<?xml version="1.0" encoding="UTF-8" standalone="no"?>
<svg
   xmlns:dc="http://purl.org/dc/elements/1.1/"
   xmlns:cc="http://creativecommons.org/ns#"
   xmlns:rdf="http://www.w3.org/1999/02/22-rdf-syntax-ns#"
   xmlns:svg="http://www.w3.org/2000/svg"
   xmlns="http://www.w3.org/2000/svg"
   viewBox="0 0 880.62665 536.44"
   height="536.44"
   width="880.62665"
   xml:space="preserve"
   id="svg2"
   version="1.1"><metadata
     id="metadata8"><rdf:RDF><cc:Work
         rdf:about=""><dc:format>image/svg+xml</dc:format><dc:type
           rdf:resource="http://purl.org/dc/dcmitype/StillImage" /></cc:Work></rdf:RDF></metadata><defs
     id="defs6" /><g
     transform="matrix(1.3333333,0,0,-1.3333333,0,536.44)"
     id="g10"><g
       transform="scale(0.1)"
       id="g12"><path
         id="path14"
         style="fill:#d7494b;fill-opacity:1;fill-rule:nonzero;stroke:none"
         d="m 2302.29,3261.68 c 0,0 68.65,20.58 132.73,-30.71 64.09,-51.29 99.27,-154.64 77.12,-237.19 -22.15,-82.54 -92.52,-125.54 -92.52,-125.54 l -117.33,393.44" /><path
         id="path16"
         style="fill:#2c6791;fill-opacity:1;fill-rule:nonzero;stroke:none"
         d="M 104.566,1416.05 C 85.6172,1370.07 76.6055,1302.48 81.1094,1227.37 85.6172,1152.27 84.1172,1111.72 61.5859,1036.61 39.0547,961.512 0,826.059 0,826.059 h 681.691 v 791.851 c 0,0 -187.511,42.06 -325.703,-30.04 -138.187,-72.1 -251.422,-171.82 -251.422,-171.82" /><path
         id="path18"
         style="fill:#265983;fill-opacity:1;fill-rule:nonzero;stroke:none"
         d="m 355.988,1587.87 c -138.187,-72.1 -251.422,-171.82 -251.422,-171.82 -5.9722,-14.5 -10.8316,-31.34 -14.7144,-49.69 1.3789,-1.77 56.6134,-71.57 180.7934,-103.26 125.765,-32.09 153.476,-21.43 153.476,-21.43 l 68.215,186.06 14.922,-199.65 c 0,0 91.043,-17.79 174.433,-19.05 v 408.88 c 0,0 -187.511,42.06 -325.703,-30.04" /><path
         id="path20"
         style="fill:#182b33;fill-opacity:1;fill-rule:nonzero;stroke:none"
         d="m 900.484,3894 c 0,0 126.776,60.83 213.006,-57.94 86.22,-118.76 20.66,-270.08 -76.67,-286.21 C 939.48,3533.73 900.484,3894 900.484,3894" /><path
         id="path22"
         style="fill:#fbcdb1;fill-opacity:1;fill-rule:nonzero;stroke:none"
         d="m 1015.12,3725.37 c 13.92,-47.74 31.82,-188.47 17.9,-305.06 -13.92,-116.59 -99.715,-278.26 -149.438,-310.08 -49.723,-31.82 -132.184,9.5 -132.184,9.5 0,0 -10.91,-29.75 -16.269,-55.79 -5.961,-28.96 25,-67.79 69.738,-129.01 17.028,-23.3 45.328,-67.41 69.735,-131.34 0,0 -364.661,90.42 -430.297,307.21 0,0 41.769,61.65 61.656,167.06 0,0 -99.445,101.44 -113.367,212.82 -13.922,111.37 23.867,242.64 143.203,344.08 119.332,101.43 377.891,125.3 479.323,-109.39" /><path
         id="path24"
         style="fill:#e9b191;fill-opacity:1;fill-rule:nonzero;stroke:none"
         d="m 569.797,3166.26 c 35.207,-41.61 140.453,-81.03 167.976,-90.83 5.665,22.57 13.625,44.3 13.625,44.3 -47.894,16.79 -145.953,74.79 -170.906,120.91 -24.953,46.11 -20.156,146.07 -20.156,146.07 0,0 -13.352,-14.89 -23.223,-62.66 -9.871,-47.76 -7.957,-109.76 32.684,-157.79" /><path
         id="path26"
         style="fill:#182b33;fill-opacity:1;fill-rule:nonzero;stroke:none"
         d="m 498.707,3244.84 c 23.356,28.54 33.336,50.07 38.406,62.58 17.528,43.26 20.785,66.46 23.223,79.29 -25.856,-7.96 -91.508,14.22 -106.031,75.13 -15.696,65.8 -4.469,99.75 21.386,119.63 25.856,19.89 65.676,21.5 93.477,-20.2 23.816,-35.72 16.785,-64.86 31.402,-70.82 14.618,-5.97 65.535,43.98 69.512,133.48 0,0 75.578,-51.71 143.199,0 67.625,51.71 43.758,121.33 43.758,121.33 0,0 23.797,-51.71 86.481,-55.69 62.69,-3.98 71.6,35.8 71.6,35.8 0,0 19.83,79.7 -57.733,137.38 0,0 7.285,117.12 -128.328,150.83 -144.161,35.83 -268.325,-31.67 -291.657,-132.49 0,0 -111.347,14.19 -159.918,-72.32 -58.222,-103.71 -36.875,-199.17 -6.07,-314.17 24.191,-90.32 60.352,-176.31 78.859,-208.78 26.235,-46.02 48.434,-40.98 48.434,-40.98" /><path
         id="path28"
         style="fill:#d7f2f5;fill-opacity:1;fill-rule:nonzero;stroke:none"
         d="m 467.027,3153.39 c -15.867,-31.28 -100.636,-61.8 -157.007,-98.11 -56.368,-36.31 -188.071,-164.66 -149.922,-422.72 38.3,-259.11 92.996,-720.94 86.73,-806.54 -6.262,-85.6 -25.055,-139.88 -73.07,-238 -48.02,-98.13 -79.3361,-160.76 -79.3361,-160.76 0,0 73.0701,-100.22 311.0781,-121.09 l 91.859,231.74 20.879,-252.62 c 0,0 294.996,-44.84 406.352,-7.04 0,0 70.187,1020.79 52.297,1199.92 -32.504,325.42 -211.532,511.33 -211.532,511.33 0,0 -91.324,-10.15 -157.554,26.72 -116.293,64.73 -140.774,137.17 -140.774,137.17" /><path
         id="path30"
         style="fill:#cfebf8;fill-opacity:1;fill-rule:nonzero;stroke:none"
         d="m 193.188,1628.89 c -0.012,0.01 -0.02,0.01 -0.032,0.01 33.434,73.04 47.989,123.01 53.477,194.52 -5.488,-71.54 -19.985,-121.44 -53.445,-194.53 m 53.449,194.58 c 0.008,0.11 0.015,0.21 0.023,0.31 -0.008,-0.1 -0.015,-0.2 -0.023,-0.31 m 0.035,0.45 c 0.008,0.08 0.012,0.18 0.019,0.27 -0.007,-0.1 -0.011,-0.18 -0.019,-0.27 m 0.039,0.49 c 0.004,0.08 0.008,0.15 0.016,0.23 -0.008,-0.08 -0.012,-0.15 -0.016,-0.23 m 0.031,0.46 c 0.008,0.08 0.012,0.15 0.02,0.23 -0.008,-0.08 -0.012,-0.15 -0.02,-0.23 m 0.039,0.53 c 0.004,0.05 0.008,0.1 0.012,0.15 -0.004,-0.05 -0.008,-0.1 -0.012,-0.15 m 0.047,0.62 c 0.703,9.6 0.602,24.16 -0.121,42.42 l 0.027,0.04 c 0.731,-18.38 0.801,-32.81 0.094,-42.46 m -76.805,737.5 c -0.007,0.02 -0.011,0.04 -0.015,0.06 -3.078,21.95 -6.102,43.09 -9.031,63.01 2.933,-19.95 5.961,-41.08 9.046,-63.07" /><path
         id="path32"
         style="fill:#4681a9;fill-opacity:1;fill-rule:nonzero;stroke:none"
         d="m 640.074,1270.89 c -69.203,6.4 -121.836,14.4 -121.836,14.4 l -3.511,42.48 v 0 l 3.511,-42.48 c 0,0 52.649,-8 121.836,-14.4" /><path
         id="path34"
         style="fill:#b7e3f2;fill-opacity:1;fill-rule:nonzero;stroke:none"
         d="m 789.563,1263.1 c -50.071,0 -103.454,3.54 -149.489,7.79 -69.187,6.4 -121.836,14.4 -121.836,14.4 l -3.511,42.48 c 0.5,0.86 184.773,320.6 166.964,340.97 -17.832,20.39 -1.855,58.36 -19.066,87.42 -17.211,29.07 -20.859,59.95 -20.859,59.95 -66.539,-42.63 -329.45,-188.77 -432.254,-188.77 -6.004,0 -11.485,0.51 -16.324,1.55 33.46,73.09 47.957,122.99 53.445,194.53 0.004,0.02 0.004,0.03 0.004,0.05 0.008,0.11 0.015,0.21 0.023,0.31 0.004,0.05 0.008,0.09 0.012,0.14 0.008,0.09 0.012,0.17 0.019,0.27 0.008,0.07 0.012,0.15 0.02,0.22 0.004,0.08 0.008,0.15 0.016,0.23 0.003,0.08 0.011,0.15 0.015,0.23 0.008,0.08 0.012,0.15 0.02,0.23 0.008,0.09 0.011,0.2 0.019,0.3 0.004,0.05 0.008,0.1 0.012,0.15 0.012,0.16 0.023,0.31 0.035,0.47 v 0 c 0.707,9.65 0.637,24.08 -0.094,42.46 l 127.567,217.78 -64.281,149.75 c -9.825,-1.94 -17.95,-2.58 -24.418,-2.58 -12.93,0 -19.235,2.58 -19.235,2.58 -33.285,81.23 -68.566,210.92 -96.344,327.51 -3.085,21.99 -6.113,43.12 -9.046,63.07 -0.293,2 -0.586,3.99 -0.879,5.97 -22.477,152.05 14.019,259.03 59.32,328.72 l 190.395,-58.24 64.695,-339.31 249.769,-324.77 245.047,-195.04 C 953.313,1696.01 924.59,1278.25 924.59,1278.25 891.566,1267.04 842.406,1263.1 789.563,1263.1" /><path
         id="path36"
         style="fill:#321f25;fill-opacity:1;fill-rule:nonzero;stroke:none"
         d="m 1471.45,3264.59 c 0,0 69.93,17.48 125.27,-36.5 66.2,-64.56 88.73,-250.1 -55.68,-325.05 0,0 -73.79,94.94 -91.44,182.13 -17.66,87.19 21.85,179.42 21.85,179.42" /><path
         id="path38"
         style="fill:#4a75c3;fill-opacity:1;fill-rule:nonzero;stroke:none"
         d="m 1494.55,1332.66 69.5,-506.601 H 457.246 c 0,0 33.016,280.721 172.016,513.551 l 865.288,-6.95" /><path
         id="path40"
         style="fill:#3d67a5;fill-opacity:1;fill-rule:nonzero;stroke:none"
         d="m 681.691,826.059 c 0,0 27.754,250.571 119.528,382.971 h 37.976 c 0,0 -92.25,-119.86 -125.242,-382.971 h -32.262" /><path
         id="path42"
         style="fill:#3d67a5;fill-opacity:1;fill-rule:nonzero;stroke:none"
         d="m 1494.55,1332.66 -865.288,6.95 c -16.457,-27.56 -31.379,-55.8 -44.985,-84.16 0.075,-1.36 7.532,-131.94 225.168,-187.62 218.775,-55.96 389.215,-10.17 521.495,109.39 0,0 82.63,-98.6 197.78,-93.63 l -34.17,249.07" /><path
         id="path44"
         style="fill:#b96957;fill-opacity:1;fill-rule:nonzero;stroke:none"
         d="m 727.043,2397.69 c -59.152,-44.5 -412.645,-322.68 -506.566,-413.28 -93.922,-90.59 -121.2465,-198.17 -85.383,-249.4 35.859,-51.23 76.844,-56.36 162.23,-20.49 85.383,35.86 422.723,232.72 422.723,232.72 0,0 21.273,31.97 33.226,168.58 11.954,136.61 -26.23,281.87 -26.23,281.87" /><path
         id="path46"
         style="fill:#9f554b;fill-opacity:1;fill-rule:nonzero;stroke:none"
         d="m 753.273,2115.82 c 3.481,39.76 2.696,80.24 -0.144,117.67 -57.742,10.97 -135.141,25.57 -190.348,35.58 -62.883,-49.99 -133.812,-107.04 -196.363,-158.66 19.242,-66.69 78.129,-186.5 122.805,-202.74 31.121,-11.32 127.879,2.72 183.761,12.28 28.844,16.66 47.063,27.29 47.063,27.29 0,0 21.273,31.97 33.226,168.58" /><path
         id="path48"
         style="fill:#b96957;fill-opacity:1;fill-rule:nonzero;stroke:none"
         d="m 1414.3,2472.56 c -68.19,9.72 -91.8,18.77 -95.94,27.9 -4.13,9.12 1.67,95.83 18.2,122.69 0,0 41.85,-20.12 89.37,-14.78 47.53,5.34 66.89,36.3 93.75,129.19 26.86,92.88 28.93,316.24 14.47,382.36 -14.47,66.12 -192.17,189.04 -382.27,111.05 -190.095,-77.99 -221.091,-359.01 -190.095,-445.79 30.992,-86.78 107.445,-144.64 107.445,-171.5 0,-26.86 4.15,-79.04 -26.84,-94.37 -31,-15.32 -117.8,-34.08 -117.8,-34.08 0,0 6.199,-65.9 227.29,-87.54 221.1,-21.63 262.42,74.87 262.42,74.87" /><path
         id="path50"
         style="fill:#f9a644;fill-opacity:1;fill-rule:nonzero;stroke:none"
         d="m 1354.62,2485.23 c 0,0 -81.52,-56.24 -224.4,-40.72 -142.872,15.53 -132.9,58.96 -132.9,58.96 0,0 -96.789,-15.04 -134.168,-25.3 C 790.059,2458.1 748.148,2443.69 727.043,2397.69 713,2367.1 687.496,2126.17 709.695,2004.12 l 23.864,-131.17 c 0,0 40.195,-145.71 30.773,-216.92 -9.422,-71.22 -168.281,-305.43 -168.281,-305.43 0,0 -10.332,-191.59 299.613,-224.65 309.946,-33.06 458.716,181.83 458.716,181.83 45.46,-154.97 192.42,-130.22 192.42,-130.22 -32.81,92.93 -47.78,374.05 -35.97,471.75 11.82,97.7 128.12,717.04 91.45,748.38 -71.24,60.89 -179.48,77.82 -247.66,87.54" /><path
         id="path52"
         style="fill:#d78b3c;fill-opacity:1;fill-rule:nonzero;stroke:none"
         d="M 1558.33,2293.39 1045.81,2190.88 705.008,2038.13 c 1.242,-12.06 2.777,-23.5 4.687,-34.01 l 13.953,-76.68 c 50.856,12.69 175.106,50.17 301.312,79.92 173,40.77 376.22,94.66 464.46,116.11 l 109.47,99.62 c 2.34,19.71 4.36,38.38 5.99,55.66 l -46.55,14.64" /><path
         id="path54"
         style="fill:#d78b3c;fill-opacity:1;fill-rule:nonzero;stroke:none"
         d="m 1251.52,1659.53 -276.387,52.69 -118.762,147.33 -56.48,104.92 c -21,-22.91 -20.661,-60.9 -11.703,-92.64 8.953,-31.74 41.839,-94.53 41.839,-94.53 l -64.636,-82.08 c 0.675,-14.37 0.453,-27.75 -1.059,-39.2 -1.723,-13 -8.465,-31.49 -18.281,-52.96 17.429,-12.05 58.402,-37.19 107.219,-45.53 65.085,-11.12 216.23,-34.36 373.1,-93.25 156.87,-58.88 214.21,-62.51 240.55,-53.72 11.81,3.94 28.32,20.75 42.95,38.11 -4.24,81.18 -4.17,158.21 0.96,200.64 0.74,6.06 1.88,14.15 3.35,23.96 l -0.77,4.86 -261.89,-18.6" /><path
         id="path56"
         style="fill:#fbcdb1;fill-opacity:1;fill-rule:nonzero;stroke:none"
         d="m 1260.09,1774.37 c -40.51,2.3 -211.68,9.17 -236.9,13 -25.221,3.82 -37.448,15.28 -45.088,33.62 -7.645,18.34 -17.579,48.14 -46.618,68.01 -29.039,19.87 -61.898,33.63 -74.125,51.2 -12.226,17.58 -18.339,51.97 -43.558,41.27 -25.219,-10.7 -15.285,-57.32 -6.113,-77.95 9.167,-20.63 36.679,-58.84 38.972,-67.25 2.293,-8.4 -8.406,-10.7 -29.039,-4.58 -20.633,6.11 -84.062,41.26 -84.062,41.26 l -6.114,32.1 c 0,0 -25.98,3.82 -38.207,-21.4 -12.226,-25.22 -7.644,-50.43 0,-65.72 7.641,-15.28 -1.527,-34.39 12.989,-57.31 14.519,-22.93 22.925,-25.22 25.984,-40.5 3.059,-15.29 12.992,-49.91 45.086,-70.81 32.098,-20.9 88.648,-27.01 152.074,-36.94 63.43,-9.94 300.999,-83.54 300.999,-83.54 0,0 19.9,24.45 33.72,89.65 19.1,90.17 0,155.89 0,155.89" /><path
         id="path58"
         style="fill:#321f25;fill-opacity:1;fill-rule:nonzero;stroke:none"
         d="m 1536.91,3103.93 c -10.93,-41.09 -42.29,-76.53 -77.73,-103.79 -35.44,-27.27 -39.53,-44.99 -49.08,-83.16 -9.54,-38.17 -29.99,-62.71 -49.07,-59.98 -19.09,2.73 -10.91,40.78 -24.54,67.42 -13.63,26.64 -38.17,64.81 -89.97,45.72 -51.8,-19.08 -44.49,-122.68 -12.7,-156.76 31.79,-34.08 54.96,-34.08 72.68,-25.9 17.72,8.18 27.26,-5.46 23.18,-27.27 -4.09,-21.81 -10.68,-89.48 -62.48,-127.65 -51.8,-38.17 -181.19,-23.04 -200.38,-9.41 -19.18,13.63 -65.48,42.14 -107.746,91.21 -42.258,49.08 -70.562,104.15 -74.832,180.42 -4.906,87.68 11.008,192.78 40.348,220.05 l 178.12,200.2 c 0,0 48.39,80.43 186.07,70.89 137.68,-9.54 182.67,-121.33 182.67,-121.33 0,0 106.31,-90.41 65.46,-160.66" /><path
         id="path60"
         style="fill:#321f25;fill-opacity:1;fill-rule:nonzero;stroke:none"
         d="m 1090.61,3369.39 c 61.98,-57.7 53.34,-167.74 -19.3,-245.78 -72.642,-78.03 -181.779,-94.51 -243.763,-36.81 -61.988,57.7 -53.348,167.74 19.293,245.77 72.644,78.04 181.78,94.52 243.77,36.82" /><path
         id="path62"
         style="fill:#fbcdb1;fill-opacity:1;fill-rule:nonzero;stroke:none"
         d="m 2524.85,2397.69 c -78.19,12.32 -144.09,13.25 -222.56,26.47 -78.46,13.21 -115.6,21.03 -107.79,95.31 7.82,74.28 15.64,123.15 15.64,123.15 l -252.16,13.68 c 0,0 -11.73,-119.23 -17.59,-146.6 -5.86,-27.37 -7.82,-27.37 -66.46,-37.14 -58.64,-9.77 -180.26,-33.62 -180.26,-33.62 0,0 16.06,-66.07 336.64,-124.71 320.57,-58.65 494.54,83.46 494.54,83.46" /><path
         id="path64"
         style="fill:#4ac08d;fill-opacity:1;fill-rule:nonzero;stroke:none"
         d="m 2277.1,2428.58 c 0,0 185.7,-22.22 247.75,-30.89 62.06,-8.66 112.54,-27.2 164.87,-154.31 0,0 -132.54,-371.72 -122.3,-430.4 14.72,-84.3 -18.21,-321.84 -28.49,-376.68 -10.28,-54.83 8.57,-179.92 46.27,-359.84 37.7,-179.921 55.19,-250.401 55.19,-250.401 H 1317.18 c 0,0 97.68,183.571 229.62,351.501 131.94,167.93 227.9,315.29 243.32,363.27 15.42,47.98 -63.4,318.72 -63.4,318.72 0,0 -215.91,-323.86 -241.61,-359.85 -25.7,-35.98 -39.41,-32.55 -107.95,-15.42 -68.54,17.14 -150.79,44.55 -150.79,44.55 0,0 -30.85,57.05 -12,139.91 18.85,82.85 45.72,105.63 45.72,105.63 0,0 34.82,-0.5 48.53,-0.5 13.71,0 37.69,1.71 58.26,49.69 20.56,47.98 164.5,407.82 203.91,491.79 39.41,83.96 65.54,129.55 149.29,143.6 83.75,14.04 153.85,13.61 153.85,13.61 0,0 45.26,-69.04 176.73,-82.74 131.46,-13.71 226.44,38.76 226.44,38.76" /><path
         id="path66"
         style="fill:#40a178;fill-opacity:1;fill-rule:nonzero;stroke:none"
         d="m 2536.47,1384.34 v 0 l -104.83,-156.26 c 14.72,-83.83 29.43,-199.21 -121.95,-281.342 C 2158.3,864.609 1586.41,826.059 1586.41,826.059 h 1053.98 c 0,0 -17.49,70.48 -55.19,250.401 -28.59,136.42 -46.3,241.23 -48.73,307.88" /><path
         id="path68"
         style="fill:#40a178;fill-opacity:1;fill-rule:nonzero;stroke:none"
         d="m 2591.85,1940.95 -112.77,-37.39 -257.82,128.59 c 0,0 -255.71,318.54 -258.63,322.93 -2.93,4.38 -115.44,42.61 -115.44,42.61 l -276.16,-81.83 -0.24,-0.51 c -14.89,-31.72 -48.93,-113.11 -81.37,-191.88 33.82,8.29 136.82,20.87 181.65,24.11 60.6,4.39 129.36,55.57 129.36,55.57 0,0 217.72,-330.28 303.77,-417.95 86.05,-87.67 143.36,-163.66 225.19,-168.04 81.83,-4.38 140.82,98.02 208.96,154.89 l 30.31,32.64 c -0.37,2.91 -0.78,5.67 -1.23,8.29 -3.24,18.56 7.81,68.45 24.43,127.96 l -0.01,0.01" /><path
         id="path70"
         style="fill:#40a178;fill-opacity:1;fill-rule:nonzero;stroke:none"
         d="m 2417.83,1484.43 37.24,-89.16 92.57,-116.94 v 0 c -10.99,73.3 -14.53,126.92 -8.71,157.97 9.35,49.84 37.38,250.53 31.38,350.01 l -0.83,4.77 -75.29,149.87 c 0,0 -13.09,-154.84 -28.9,-260.96 -11.25,-75.48 -47.46,-195.56 -47.46,-195.56" /><path
         id="path72"
         style="fill:#40a178;fill-opacity:1;fill-rule:nonzero;stroke:none"
         d="m 2371.04,1384.24 -613.57,91.72 c -22.8,-38.67 -55.91,-89 -96.71,-146.34 55.83,-8.24 289.06,-42.97 467.85,-74.11 204.5,-35.62 287.66,-62.81 350.47,-46.85 62.81,15.96 51.59,47.89 68.55,69.66 l 0.01,0.01 c -6.3,42 -10.13,77.49 -11.17,106.01 -38.98,-4.06 -165.43,-0.1 -165.43,-0.1" /><path
         id="path74"
         style="fill:#fbcdb1;fill-opacity:1;fill-rule:nonzero;stroke:none"
         d="m 2400.29,3112.06 c 29.08,-85.42 49.07,-276.45 21.81,-374.5 -27.26,-98.06 -58.16,-114.41 -98.15,-114.41 -39.98,0 -178.05,22.96 -178.05,22.96 l -187.92,10.19 c 0,0 4.29,43.18 -28.43,66.81 -32.72,23.63 -167.21,183.57 -76.34,388.95 90.88,205.38 316.25,221.74 416.22,145.4 99.96,-76.33 130.86,-145.4 130.86,-145.4" /><path
         id="path76"
         style="fill:#efb593;fill-opacity:1;fill-rule:nonzero;stroke:none"
         d="m 2323.95,2623.15 c 17.39,0 33.05,3.11 47.45,14.67 -30.63,-1.88 -69.27,9.56 -121.79,58.23 l -52.51,-19.21 -2.18,-38.49 c 43.78,-6.66 104.64,-15.2 129.03,-15.2" /><path
         id="path78"
         style="fill:#d7494b;fill-opacity:1;fill-rule:nonzero;stroke:none"
         d="m 2400.29,3112.06 c 0.16,42.64 -98,149.62 -98,149.62 0,0 -77.51,76.05 -204.89,77.96 -127.39,1.9 -236.82,-63.53 -275.21,-223.81 -38.01,-158.71 -55.64,-150.14 -84.11,-208.4 -26.33,-53.9 -60.75,-210.68 112.25,-309.76 185.34,-106.13 364.71,-63.56 408.4,-45.37 43.56,18.14 54.24,48.3 24.2,96.8 -24.49,39.54 -33.17,90.74 -34.7,120.22 -1.51,29.07 2.7,42.93 -12.04,37.76 -11.07,-3.89 -38.11,-4.5 -60.84,32.52 -25.42,41.39 -11.41,129.29 30.42,136.89 41.83,7.61 62.74,-22.81 68.45,-61.08 5.7,-38.27 -5.71,-53 15.21,-56.8 20.91,-3.8 39.92,11.41 70.35,56.8 30.42,45.39 43.72,131.43 40.51,196.65" /><path
         id="path80"
         style="fill:#4a75c3;fill-opacity:1;fill-rule:nonzero;stroke:none"
         d="m 6094.54,1595.22 c 40.7,-43.1 96.38,-142.53 106.32,-220.1 9.95,-77.56 2.12,-148.58 -13.92,-220.75 -10.81,-48.69 -11.93,-93.47 0,-153.13 11.94,-59.662 37.79,-175.181 37.79,-175.181 h -520.72 l -96.25,678.681 486.78,90.48" /><path
         id="path82"
         style="fill:#3d67a5;fill-opacity:1;fill-rule:nonzero;stroke:none"
         d="m 5876.25,1423.16 c 152.58,23.84 214.53,73.36 254.75,124.08 -12.44,19.24 -25.03,35.88 -36.46,47.98 l -486.78,-90.48 12.34,-87.02 c 51.74,-5.62 148.24,-11.42 256.15,5.44" /><path
         id="path84"
         style="fill:#673c75;fill-opacity:1;fill-rule:nonzero;stroke:none"
         d="m 6009.27,2473.09 c 13.78,-92.5 8.96,-325.97 -39.8,-423.77 -48.77,-97.8 -46.16,-140.63 -16.12,-193.03 41.65,-72.64 168.76,-261.07 168.76,-261.07 0,0 -41.98,-68.83 -173.85,-106.22 -131.87,-37.4 -355.01,-25.7 -355.01,-25.7 0,0 -93.74,222.1 -83.9,487.03 9.84,264.93 138.69,691.04 138.69,691.04 0,0 154.57,81.68 243.14,26.57 88.57,-55.11 118.09,-194.85 118.09,-194.85" /><path
         id="path86"
         style="fill:#5b3569;fill-opacity:1;fill-rule:nonzero;stroke:none"
         d="m 6011.66,2247.47 -30.93,52.57 -249.92,222.33 -136.3,-77.7 c -5.54,-22.12 9.34,-33.74 3.67,-57.91 26.25,-88.24 64.73,-247.89 98.49,-279.5 45.62,-42.69 170.28,-117.44 249.32,-105.47 8.89,19.43 11.14,22.79 23.48,47.53 22.82,45.78 36.02,121.29 42.19,198.15" /><path
         id="path88"
         style="fill:#fbcdb1;fill-opacity:1;fill-rule:nonzero;stroke:none"
         d="m 5803.8,2925.16 c 0,0 21.97,-106.09 25.51,-128.97 3.55,-22.88 15.06,-52.2 37.64,-57.09 0,0 -18.45,-72.32 -84.91,-97.73 -66.45,-25.41 -134,0 -134,0 0,0 -14.55,47.89 -29.21,74.28 -14.66,26.38 -53.44,40.97 -53.44,40.97 l 238.41,168.54" /><path
         id="path90"
         style="fill:#e9b191;fill-opacity:1;fill-rule:nonzero;stroke:none"
         d="m 5805.51,2916.87 c -1.07,5.18 -1.71,8.29 -1.71,8.29 l -238.41,-168.54 c 0,0 38.78,-14.59 53.44,-40.97 0,0 112.04,23.33 159.87,71.18 39.1,39.12 31.06,106.66 26.81,130.04" /><path
         id="path92"
         style="fill:#182b33;fill-opacity:1;fill-rule:nonzero;stroke:none"
         d="m 5629.67,3420.31 c 0,0 -112.54,57.25 -203.69,-14.4 -91.15,-71.64 -90.21,-254.31 -12.06,-300.49 0,0 151,28.01 203.61,118.38 52.61,90.39 12.14,196.51 12.14,196.51" /><path
         id="path94"
         style="fill:#fbcdb1;fill-opacity:1;fill-rule:nonzero;stroke:none"
         d="m 5517.53,3327.62 c -47.15,-20.21 -88.85,-96.65 -102.34,-209.03 -9.76,-81.28 9.73,-232.16 33.3,-301.2 23.58,-69.04 112.25,-65.45 185.27,-54.98 73.02,10.46 128.47,47.67 146.99,93.13 18.53,45.47 23.05,69.62 23.05,69.62 0,0 38.73,-40.41 74.09,-35.36 35.37,5.05 106.09,78.16 102.72,160.32 -3.37,82.17 -8.42,235.4 -129.66,277.5 -121.24,42.1 -333.42,0 -333.42,0" /><path
         id="path96"
         style="fill:#e9b191;fill-opacity:1;fill-rule:nonzero;stroke:none"
         d="m 5607.17,2796.19 60.31,-26.67 c 16.13,4.48 31.04,10.34 44.49,17.32 -0.21,0.29 -91.85,134.47 -120.94,163.89 -28.98,29.31 -176.31,85.79 -177.64,86.25 0.33,-7.5 0.75,-15.11 1.28,-22.82 l 69.07,-63.43 123.43,-154.54" /><path
         id="path98"
         style="fill:#182b33;fill-opacity:1;fill-rule:nonzero;stroke:none"
         d="m 5517.53,3327.62 c 0,0 1.53,-60.65 89.21,-122.7 87.68,-62.05 125.94,-86.01 134.03,-99.5 8.09,-13.49 -9.93,-65.07 2.21,-79.91 12.14,-14.84 42.85,1.32 58.32,41.46 14.82,38.45 63.19,57.95 88.94,38.45 24.33,-18.44 35.63,-50.92 14.56,-112.08 -17.49,-50.8 -70.73,-85.51 -101,-68.18 0,0 -1.46,-84.45 25.51,-128.97 0,0 24.28,33.31 74.2,76.01 49.91,42.7 103.86,93.96 120.05,236.94 16.19,142.99 -93.07,288.68 -149.73,322.4 -56.66,33.73 -182.11,44.98 -244.16,-11.23 l -112.14,-92.69" /><path
         id="path100"
         style="fill:#182b33;fill-opacity:1;fill-rule:nonzero;stroke:none"
         d="m 5866.95,3435.32 c 0,0 25.76,75.81 91.86,118.98 66.1,43.16 217.18,52.61 284.63,0 67.45,-52.61 116.01,-132.62 130.85,-227.98 14.84,-95.35 32.37,-141.85 106.56,-198.4 74.2,-56.54 164.58,-159.06 103.87,-314.19 -60.7,-155.13 -248.2,-157.83 -284.62,-152.43 -36.43,5.39 -47.22,31.02 -21.59,66.09 25.63,35.08 59.36,99.42 16.19,144.81 -43.17,45.4 -75.54,60.23 -136.24,98 -60.71,37.78 -102.52,82.07 -99.83,157.72 2.7,75.65 25.63,169.62 2.7,218.41 -22.93,48.79 -69.23,85.75 -137.7,40.46 0,0 -47.36,5.1 -56.68,48.53" /><path
         id="path102"
         style="fill:#5b3569;fill-opacity:1;fill-rule:nonzero;stroke:none"
         d="m 5866.95,2739.1 c 58.52,0 130.49,-18.9 153.62,-148.27 23.13,-129.36 35.12,-260.44 29.98,-336.68 -5.14,-76.25 -35.14,-140.21 -35.14,-140.21 l -236.43,138.49 c 0,0 -16.28,232.12 -20.56,317.39 -4.29,85.27 15.75,165.91 108.53,169.28" /><path
         id="path104"
         style="fill:#62a2dd;fill-opacity:1;fill-rule:nonzero;stroke:none"
         d="m 5660.37,1402.14 c 19.75,-49.76 53.25,-178.75 53.2,-295.1 -0.03,-79.68 -9.56,-280.981 -9.56,-280.981 h -895.33 l -39.02,436.631 c 0,0 64.51,207.58 279.58,261.74 215.07,54.17 529.26,50.15 611.13,-122.29" /><path
         id="path106"
         style="fill:#568bd0;fill-opacity:1;fill-rule:nonzero;stroke:none"
         d="m 5660.37,1402.14 c -81.87,172.44 -396.06,176.46 -611.13,122.29 -215.07,-54.16 -279.58,-261.74 -279.58,-261.74 l 6.38,-71.34 c 177.81,-104.48 347.82,-24.4 347.82,-24.4 l -7.25,185.46 90.12,-176.05 c 293.09,1.83 409.91,105.43 471.42,170.91 -6.31,22.7 -12.53,41.64 -17.78,54.87" /><path
         id="path108"
         style="fill:#4c2733;fill-opacity:1;fill-rule:nonzero;stroke:none"
         d="m 4893.25,3683.43 c -38.43,-20.95 -94.72,-28.22 -133.03,-23.18 -38.32,5.05 -58.74,34.62 -82.94,12.44 -29.73,-27.25 -85.7,-197.62 29.63,-274.12 146.65,-97.25 186.34,284.86 186.34,284.86" /><path
         id="path110"
         style="fill:#db9365;fill-opacity:1;fill-rule:nonzero;stroke:none"
         d="m 4720.94,3487.73 c -19.21,-67.42 -20.32,-153.96 0,-276.71 20.32,-122.74 59.17,-235.9 95.9,-251.64 25.82,-11.06 74.21,-12.57 111.66,-8.41 37.45,4.16 49.57,7.59 57.03,-54.46 7.46,-62.05 244.64,8.69 275.85,56.54 0,0 -29.13,112.34 -20.81,145.63 8.32,33.29 49.93,81.14 62.42,183.08 12.48,101.94 -2.08,285.03 -141.48,347.44 -139.39,62.41 -304.29,9.77 -368.24,-37.45 -61.89,-45.7 -72.33,-104.02 -72.33,-104.02" /><path
         id="path112"
         style="fill:#4c2733;fill-opacity:1;fill-rule:nonzero;stroke:none"
         d="m 4985.53,3134.29 c -2.1,-16.33 22.18,-56.98 34.95,-84.33 12.77,-27.36 40.41,-54.43 71.42,-56.18 31,-1.75 116.11,-0.02 152.89,36.5 20.37,18.29 20.37,54.77 49.54,120.42 29.19,65.66 51.07,179.94 36.48,269.61 -14.59,89.67 -20.73,182.68 -107.02,180.86 0,0 -24.29,98.48 -117.3,116.72 -93.01,18.24 -165.04,-8.9 -231.62,-43.77 -67.47,-35.34 -142.01,-88.51 -143.1,-155.93 0,0 12.43,-37.39 53.74,-46.51 31,-6.84 17.2,-26.28 18.77,-46.91 2.73,-35.72 8.15,-58.4 34.64,-78.1 24.88,-18.5 35.99,-20.37 35.95,-61.01 -0.05,-54.81 1.83,-67.48 18.24,-71.13 16.41,-3.64 34.65,10.95 54.71,63.83 20.06,52.89 58.36,58.83 89.37,24.86 31,-33.97 21.99,-128.93 -0.08,-154.69 -26.79,-31.26 -48.52,9.47 -51.58,-14.24" /><path
         id="path114"
         style="fill:#2c6791;fill-opacity:1;fill-rule:nonzero;stroke:none"
         d="m 3916.37,1232.98 c -15.03,-66.34 -36.31,-340.39 -39.11,-406.921 h 1043.29 c 0,0 -26.16,194.691 -94.98,310.561 0,0 -216.47,173.18 -451.11,201.11 -234.63,27.93 -458.09,-104.75 -458.09,-104.75" /><path
         id="path116"
         style="fill:#255a75;fill-opacity:1;fill-rule:nonzero;stroke:none"
         d="m 3916.37,1232.98 c -6.9,-30.43 -15.1,-104.58 -22.24,-182.35 v 0 c 0,0 35.97,-10.49 82.49,33.2 46.53,43.69 46.71,65.97 57.66,59.66 10.96,-6.31 28.89,-56.76 93.22,-122.11 48.97,-49.739 258.44,-163.271 486.33,-119.439 166.55,32.02 227.71,114.339 248.6,156.359 -10.62,27.83 -22.84,54.72 -36.86,78.32 0,0 -69.16,55.31 -171.64,108.46 L 4496.9,1215 4193.99,1331.45 c -157,-26.94 -277.62,-98.47 -277.62,-98.47" /><path
         id="path118"
         style="fill:#4a75c3;fill-opacity:1;fill-rule:nonzero;stroke:none"
         d="m 3851.67,1274.91 c 0,0 38.04,-225.22 51.53,-448.851 H 2655.9 c 0,0 39.8,355.061 65.21,524.541 l 1130.56,-75.69" /><path
         id="path120"
         style="fill:#3d67a5;fill-opacity:1;fill-rule:nonzero;stroke:none"
         d="m 2701.08,1203.98 c 0,0 107.84,-296.75 595.64,-275.941 487.8,20.813 567.88,262.591 567.88,262.591 l -12.93,84.28 -1130.56,75.69 -20.03,-146.62" /><path
         id="path122"
         style="fill:#f6b68e;fill-opacity:1;fill-rule:nonzero;stroke:none"
         d="m 3210.29,3691.03 c -86.36,0 -247.46,-49.83 -247.46,-288.99 0,0 -18.27,31.56 -41.53,18.27 -23.25,-13.29 -14.94,-89.69 0,-134.53 14.95,-44.84 47.72,-54.27 67.65,-52.61 0,0 23.91,-72.22 43.84,-103.77 19.93,-31.56 69.41,-79.8 69.41,-79.8 l -1.52,-134.19 h 303.93 c 0,0 0,101.31 0,151.14 0,49.82 72.2,164.42 72.2,164.42 0,0 32.91,-12.6 55.49,28.99 25.76,47.44 37.47,141.9 13.76,160.35 -37.25,28.99 -51.66,-33.22 -51.66,-33.22 0,0 -16.71,187.68 -116.36,234.18 -99.65,46.51 -167.75,69.76 -167.75,69.76" /><path
         id="path124"
         style="fill:#343261;fill-opacity:1;fill-rule:nonzero;stroke:none"
         d="m 2962.14,3375.71 c -5.34,48.16 -25.09,143.55 -16.11,231.86 8.98,88.32 46.4,152.69 73.34,158.68 26.95,5.98 28.44,-22.46 58.38,-28.45 0,0 -11.97,35.93 13.47,70.36 25.45,34.43 46.53,-7.64 95.8,-32.93 59.99,-30.79 87.55,-16.31 131.09,-43.25 51.4,-31.81 52.83,-69.34 52.83,-69.34 0,0 28.36,11.54 63.87,-8.66 44.57,-25.36 79.44,-112.66 65.03,-274.03 -12.79,-143.32 -48.06,-258.02 -95.23,-313.4 -47.17,-55.39 -231.96,-51.24 -302.41,-16.95 0,0 -58.9,17.4 -100.94,149.17 -26.23,82.19 -35.57,144.97 -39.12,176.94" /><path
         id="path126"
         style="fill:#d7f2f5;fill-opacity:1;fill-rule:nonzero;stroke:none"
         d="m 2978.13,2859.55 c -32.6,-18.04 -99.42,-51.09 -178.91,-63.6 -79.49,-12.5 -126.54,-17.86 -158.83,-59.19 0,0 115.54,-129.94 135.6,-365.95 14.48,-170.31 -33.94,-254.55 -33.94,-254.55 0,0 22.61,-93.78 65.35,-164.34 42.73,-70.56 -48.37,-321.53 -70.7,-406.38 -22.33,-84.85 -46.98,-203.95 -46.98,-203.95 8.04,-32.15 160.41,-326.58 574.83,-326.58 414.42,0 592.16,250.97 600.2,284.91 8.04,33.94 -41.98,227.76 -72.35,388.52 -30.37,160.77 -51.8,297.42 -25.9,415.32 25.9,117.9 71.45,277.77 82.17,417.1 10.72,139.33 -15.18,268.84 -34.83,284.92 -19.65,16.07 -44.66,13.39 -115.22,27.68 -70.56,14.29 -112.69,29.13 -147.45,44.49 0,0 -20.46,14.46 -126.75,3.74 -106.28,-10.71 -183.99,-38.4 -278.66,-16.07 -94.67,22.33 -139.36,9.58 -167.63,-6.07" /><path
         id="path128"
         style="fill:#d7f2f5;fill-opacity:1;fill-rule:nonzero;stroke:none"
         d="m 3824.72,2786.83 c -6.51,12.6 -10.91,18.9 -10.91,18.9 3.51,-2.9 7.2,-9.4 10.91,-18.9" /><path
         id="path130"
         style="fill:#cfebf8;fill-opacity:1;fill-rule:nonzero;stroke:none"
         d="m 2727.01,1507.32 c 2.9,11.99 6.13,24.72 9.68,38.22 20.53,77.98 99.13,296.26 78.56,385.87 20.57,-89.61 -58.03,-307.89 -78.55,-385.87 -3.21,-12.19 -6.47,-25.08 -9.69,-38.22 m 1087.26,73.23 c -6.66,31.37 -13.22,63.05 -19.17,93.76 v 0 c 5.95,-30.7 12.51,-62.39 19.17,-93.76 v 0 m -1043.96,448.26 c -18.61,47.42 -28.26,87.45 -28.26,87.45 h 0.01 c 0.05,-0.24 9.7,-40.17 28.25,-87.45 m 8.39,279.99 c -0.01,19.22 -0.82,39.89 -2.71,62.01 -0.02,0.27 -0.04,0.53 -0.06,0.79 0.02,-0.26 0.04,-0.53 0.06,-0.79 1.89,-22.12 2.7,-42.79 2.71,-62.01 m -2.8,63.15 c -0.02,0.15 -0.03,0.31 -0.04,0.47 0.01,-0.16 0.02,-0.32 0.04,-0.47 m -0.08,0.83 c -0.01,0.19 -0.03,0.39 -0.05,0.59 0.02,-0.19 0.04,-0.41 0.05,-0.59 m -0.07,0.84 c -0.02,0.25 -0.04,0.5 -0.07,0.76 0.03,-0.26 0.05,-0.51 0.07,-0.76 m -0.09,0.97 c -0.02,0.25 -0.04,0.49 -0.06,0.73 0.02,-0.24 0.04,-0.48 0.06,-0.73 m -0.07,0.81 c -3.38,37.26 -9.17,71.78 -16.46,103.59 l 0.05,0.01 c 7.28,-31.8 13.03,-66.35 16.41,-103.6" /><path
         id="path132"
         style="fill:#b7e3f2;fill-opacity:1;fill-rule:nonzero;stroke:none"
         d="m 3487.67,1278.32 c -96.73,0.02 -646.99,202.92 -646.99,202.92 0,0 -57.45,-23.36 -96.99,-23.36 -10.5,0 -19.75,1.65 -26.31,5.82 2.6,13.32 5.82,27.83 9.63,43.62 3.22,13.14 6.48,26.03 9.69,38.22 20.52,77.98 99.12,296.26 78.55,385.87 -1.81,7.9 -4.39,14.8 -7.85,20.51 -14.82,24.47 -27.22,51.72 -37.09,76.89 -18.55,47.28 -28.2,87.21 -28.25,87.45 0.11,0.2 36.65,63.98 36.64,192.54 -0.01,19.22 -0.82,39.89 -2.71,62.01 -0.02,0.26 -0.04,0.53 -0.06,0.79 -0.01,0.12 -0.02,0.23 -0.03,0.35 -0.02,0.15 -0.03,0.31 -0.04,0.47 -0.01,0.12 -0.03,0.24 -0.04,0.36 -0.01,0.18 -0.03,0.4 -0.05,0.59 0,0.08 -0.01,0.16 -0.02,0.25 -0.02,0.25 -0.04,0.5 -0.07,0.76 0,0.07 -0.01,0.14 -0.02,0.21 -0.02,0.25 -0.04,0.49 -0.06,0.73 0,0.03 -0.01,0.05 -0.01,0.08 -3.38,37.25 -9.13,71.8 -16.41,103.6 l 67.31,6.23 c 42.87,-80.74 60.49,-256.94 0,-428.43 l 115.7,-284.62 h 568.67 c -54.41,-70.53 -94.56,-121.78 -94.56,-121.78 0,0 14.07,-118.57 192.93,-176.85 l 185.87,200.76 c 5.95,-30.71 12.51,-62.39 19.17,-93.76 -64.95,-71.46 -264.77,-287.63 -317.66,-301.35 -2.31,-0.59 -5.29,-0.88 -8.94,-0.88" /><path
         id="path134"
         style="fill:#fbcdb1;fill-opacity:1;fill-rule:nonzero;stroke:none"
         d="m 3903.21,1791.08 -293.98,-317.53 c 0,0 -69.15,-77.64 -92.24,-95.79 -23.09,-18.14 -28.04,-41.23 -148.45,-9.89 -120.41,31.34 -624.43,203.87 -624.43,203.87 0,0 -35.34,43.24 -10.6,97 24.74,53.75 56.54,60.31 56.54,60.31 l 581.79,-128.61 44.46,49.96 486.91,140.68" /><path
         id="path136"
         style="fill:#fbcdb1;fill-opacity:1;fill-rule:nonzero;stroke:none"
         d="m 2742.06,2116.26 c 0,0 116.33,-247.97 132.1,-276.8 15.77,-28.83 18.03,-31.08 74.35,-26.58 56.32,4.51 702.92,58.58 702.92,58.58 l 16.54,-162.58 c 0,0 -822.5,-174.89 -888.75,-189.9 -44.8,-10.15 -65.71,4.6 -95,52.76 -29.29,48.17 -195.31,378.59 -195.31,378.59 l 253.15,165.93" /><path
         id="path138"
         style="fill:#4ac08d;fill-opacity:1;fill-rule:nonzero;stroke:none"
         d="m 2987.74,1816.1 v 0 c -19.27,-1.59 -32.94,-2.71 -39.23,-3.22 -56.32,-4.5 -58.58,-2.25 -74.35,26.58 -15.77,28.83 -132.1,276.8 -132.1,276.8 l -253.15,-165.93 c 0,0 166.02,-330.42 195.31,-378.58 29.29,-48.17 50.2,-62.92 95,-52.77 18.55,4.2 96.42,20.95 198.91,42.87 44.39,78.74 23.08,206.58 9.61,254.25" /><path
         id="path140"
         style="fill:#f6b68e;fill-opacity:1;fill-rule:nonzero;stroke:none"
         d="m 2302.29,2109.62 c 0,0 -342.54,308.28 -400.77,375.61 -58.24,67.33 -80.08,116.83 -131.04,137.22 -50.96,20.38 -48.05,4.37 -80.08,0 -32.03,-4.37 -52.41,1.45 -78.62,-18.93 -26.21,-20.38 -40.77,-17.47 -59.7,-33.49 -18.92,-16.01 -45.13,-64.77 -40.76,-84.8 4.36,-20.03 7.28,-89.91 106.28,-100.1 99.01,-10.2 139.77,-32.04 139.77,-32.04 l 372.03,-513.63 172.89,270.16" /><path
         id="path142"
         style="fill:#e6a078;fill-opacity:1;fill-rule:nonzero;stroke:none"
         d="m 1721.29,2573.49 c 10.96,-17.88 22.24,-41.05 5.43,-60.09 -16.81,-19.03 -72.25,-78.61 -72.25,-78.61 0,0 -53.72,-26.48 -45.07,9.1 8.65,35.58 111.89,129.6 111.89,129.6" /><path
         id="path144"
         style="fill:#e6a078;fill-opacity:1;fill-rule:nonzero;stroke:none"
         d="m 1907.49,2472.56 c 15.6,-55.79 16.35,-131.37 -0.93,-166.17 -17.28,-34.8 -64.38,-70.38 -64.38,-70.38 l -30.35,41.9 95.66,194.65" /><path
         id="path146"
         style="fill:#d7f2f5;fill-opacity:1;fill-rule:nonzero;stroke:none"
         d="m 2640.39,2736.76 c -43.68,-50.33 -75.23,-116.42 -130.81,-239.6 -55.57,-123.17 -207.29,-387.54 -207.29,-387.54 l -61.58,60.08 c 0,0 -126.18,-144.2 -123.18,-315.44 0,0 103.65,-130.68 142.7,-162.23 39.06,-31.54 79.62,-36.05 136.7,18.03 57.08,54.07 345.13,406.2 345.13,406.2 0,0 78.46,45.93 96.49,208.16 18.02,162.23 -80.87,429.62 -198.16,412.34" /><path
         id="path148"
         style="fill:#b2e6f4;fill-opacity:1;fill-rule:nonzero;stroke:none"
         d="m 2287.75,2123.8 c -26.11,-23.26 -136.29,-180.88 -109.82,-343.19 l 12.57,-14.77 c 0,0 -11.86,-10.16 -29.03,8.44 -17.17,18.6 -77.27,81.56 -87.29,100.17 -10.02,18.6 -4.29,101.59 37.2,200.33 41.5,98.74 92.79,146.24 117.12,126.63 24.32,-19.61 32.95,-28.03 51.74,-47.93 12.58,-13.32 25.51,-27.62 22.05,-43.86 l -14.54,14.18" /><path
         id="path150"
         style="fill:#80c951;fill-opacity:1;fill-rule:nonzero;stroke:none"
         d="m 4032.2,2171.34 c -55.2,29.71 -150.68,43.72 -223.03,-8.96 -9.04,-6.59 -21.13,-16.33 -39.12,-42.72 -92.97,-136.37 -353.75,-469.26 -353.75,-469.26 0,0 14.07,-118.57 192.93,-176.85 l 293.97,317.53 c 0,0 25.57,-104.51 35.62,-200.97 10.05,-96.46 -48.23,-501.78 -48.23,-501.78 0,0 44.21,-0.64 84.41,47.59 40.19,48.23 46.08,76.37 57.2,76.37 11.12,0 22.86,-74.67 131.78,-153.11 86.5,-62.289 332.63,-146.801 487.13,-97.789 176.98,56.139 177.54,138.039 187.59,176.229 -10.61,17.54 -31.7,54.57 -81.94,114.86 -50.24,60.29 -60.29,87.71 -60.29,98.12 0,10.41 20.1,56.63 12.06,74.72 -8.04,18.08 -49.8,56.27 -40.98,84.4 8.83,28.14 79.17,251.21 99.26,379.83 20.1,128.62 0,293.42 0,293.42 l -734.61,-11.63" /><path
         id="path152"
         style="fill:#6fb54b;fill-opacity:1;fill-rule:nonzero;stroke:none"
         d="m 3847.42,2179.94 c 58.28,16.45 191.24,-34.14 223.9,-66 32.66,-31.86 47.36,-176.04 209.95,-234.89 162.59,-58.84 426.85,-19.5 426.85,-19.5 l -144.59,346.21 -496.87,73.82 -219.24,-99.64" /><path
         id="path154"
         style="fill:#6fb54b;fill-opacity:1;fill-rule:nonzero;stroke:none"
         d="m 4731.63,1730.67 c 14.71,56.24 28.08,113.45 35.18,158.88 7.02,44.94 9.13,94.28 8.91,139.48 -67.43,-13.4 -662.92,-131.58 -667.08,-127.46 -4.42,4.38 -231.38,130.92 -231.38,130.92 l -152.75,22.84 c -69.88,-96.31 -171.31,-228.51 -238.52,-315.33 28.34,-16.98 66.35,-36.8 116.37,-57.4 60.06,-24.73 124.56,-28 178.39,-23.79 l 122.46,132.27 c 0,0 11.66,-47.7 22.33,-108.38 61.12,0.39 239.12,2.49 423.84,13.48 196.17,11.68 344.47,29.67 382.25,34.49" /><path
         id="path156"
         style="fill:#f14d65;fill-opacity:1;fill-rule:nonzero;stroke:none"
         d="m 4985.53,2896.51 c 59.72,21.93 239.69,72.63 334.75,61.22 95.05,-11.4 226.86,-60.83 280.09,-117.87 53.23,-57.03 49.43,-249.68 49.43,-315.58 0,-65.91 -30.28,-216.16 -53.8,-284.25 -23.51,-68.09 -29.85,-220.18 -26.04,-344.39 3.8,-124.2 81.11,-424.58 96.32,-460.07 15.21,-35.49 -57.29,-92.45 -167.78,-135.77 -137.29,-53.83 -348.06,-68.28 -348.06,-68.28 l -69.71,193.91 -13.94,-200.25 c 0,0 -81.11,-19.01 -173.63,-5.07 -92.52,13.94 -128.01,43.09 -135.61,54.5 -7.61,11.41 -31.96,335.86 -11.54,516.47 0,0 154.75,100.76 178.83,222.43 24.08,121.67 60.69,883 60.69,883" /><path
         id="path158"
         style="fill:#d3435d;fill-opacity:1;fill-rule:nonzero;stroke:none"
         d="m 5156.27,2833.08 c 42.17,-35.4 104.95,-87.61 104.82,-203 -0.1,-91.04 -47.73,-275.42 -47.73,-275.42 l -89.5,25.36 32.41,453.06" /><path
         id="path160"
         style="fill:#d3435d;fill-opacity:1;fill-rule:nonzero;stroke:none"
         d="m 5596,2240.03 c 23.52,68.09 53.8,218.34 53.8,284.25 0,56.94 2.81,208.41 -30.75,285.37 l -42.59,51.54 c -62.28,47.66 -173.22,86.59 -256.18,96.54 -29.46,3.54 -67.08,1.1 -106.74,-4.59 16.21,-5.75 60.97,-42.61 74.13,-70.26 13.17,-27.65 55.3,-50.03 107.97,-38.18 52.67,11.85 47.4,-6.31 76.37,-88.08 28.97,-81.78 68.47,-218.81 68.47,-218.81 l -135.62,-52.58 c 0,0 -300.79,-152.94 -456.58,-231.32 -4.21,-58.56 -8.47,-111.72 -12.6,-154.29 100.89,23.03 242.05,53.99 282.21,56.45 64.52,3.95 172.48,-10.54 226.47,-19.75 30.46,-5.2 91.08,21.03 138.14,44.88 3.67,23.07 8.12,43.23 13.5,58.83" /><path
         id="path162"
         style="fill:#d3435d;fill-opacity:1;fill-rule:nonzero;stroke:none"
         d="m 5168.22,2148.94 v 184.21 l -216.38,-28.4 c -9.16,-134.34 -18.8,-249.83 -27,-291.24 C 4900.76,1891.84 4746,1791.08 4746,1791.08 c -2.07,-18.38 -3.66,-38.3 -4.88,-59.18 48.31,-0.31 134.48,0.15 179.01,6.67 63.97,9.36 101.42,28.09 138.87,143.2 37.45,115.12 76.05,260.94 109.22,267.17" /><path
         id="path164"
         style="fill:#db9365;fill-opacity:1;fill-rule:nonzero;stroke:none"
         d="m 4708.12,2094.27 -646.43,-98.29 c -40.89,-5.65 -106.67,20.54 -158.49,45.26 -51.81,24.72 -59.37,32.92 -122.89,33.36 -63.53,0.43 -122.52,26.14 -134.62,6.48 -12.1,-19.66 20.69,-59.01 65.04,-69.58 44.35,-10.56 72.6,-16.3 72.6,-16.3 0,0 -50.74,0.06 -98.29,0 -47.54,-0.06 -69.96,-6.85 -84.22,-22.47 -14.27,-15.62 -11.55,-44.83 -24.45,-52.98 -12.91,-8.15 -29.89,-22.41 -29.89,-43.47 0,-21.06 -34.64,-36.68 -35.32,-55.7 -0.68,-19.01 -6.52,-23.86 5.57,-40.8 12.09,-16.93 105.82,-64.47 185.97,-69.91 80.15,-5.43 153.58,12.72 200.5,24.61 35.46,8.98 54.89,16.05 134.32,19.43 60.64,2.58 394.87,18.27 394.87,18.27 l 275.73,322.09" /><path
         id="path166"
         style="fill:#efefed;fill-opacity:1;fill-rule:nonzero;stroke:none"
         d="m 5083.91,2885.65 c -67.37,34.63 -192.16,15.83 -232.43,-137.9 -40.26,-153.73 -143.36,-653.48 -143.36,-653.48 l -275.73,-41.93 c 0,0 38.43,-164.86 0,-280.16 0,0 330.89,17.55 395.12,18.9 64.24,1.34 141.1,10.49 185.03,123.96 43.92,113.47 172.44,561.85 194.19,631.4 21.76,69.54 52.87,248.89 -122.82,339.21" /><path
         id="path168"
         style="fill:#5b42a3;fill-opacity:1;fill-rule:nonzero;stroke:none"
         d="m 4252.45,3152.19 c -105.24,-27.47 -202.05,-113.74 -227.91,-251.78 -25.85,-138.04 -15.91,-199.69 33.81,-317.03 49.72,-117.35 106.94,-194.92 85.52,-318.22 -21.42,-123.3 18.3,-193.13 108.58,-280.75 128.66,-124.86 451.38,-155.27 612.78,0 150.43,144.73 28.02,351.89 28.02,351.89 0,0 111.8,101.89 85.95,213.27 -25.86,111.37 -67.63,137.31 -163.09,187.99 -95.47,50.67 -147.52,160.81 -175.37,230.42 -27.84,69.61 -144.48,247.86 -388.29,184.21" /><path
         id="path170"
         style="fill:#4a3d86;fill-opacity:1;fill-rule:nonzero;stroke:none"
         d="m 4143.87,2265.16 c -14.37,-82.73 -1.09,-141.38 36.39,-197.49 68.97,-28.51 204.51,-77.52 235.81,-83.26 16.29,-2.98 78.34,8.82 136.91,20.61 53.99,10.88 105.03,21.75 114.58,21.05 19.89,-1.46 43.99,-11.53 97.7,-0.24 53.71,11.3 73.44,41.89 73.44,41.89 l 92.69,26.69 c 18.86,69.54 3.68,138.7 -12.84,185.17 h -772.69 c -0.61,-4.78 -1.13,-9.51 -1.99,-14.42" /><path
         id="path172"
         style="fill:#f6b68e;fill-opacity:1;fill-rule:nonzero;stroke:none"
         d="m 4734.55,2391.42 c 0,0 465.7,57.69 509.17,65.84 43.47,8.15 72,40.75 120.9,72 48.91,31.24 91.02,44.83 124.98,39.39 33.96,-5.43 86.94,-8.15 103.24,-9.51 16.3,-1.36 8.15,-32.6 -19.01,-40.75 -27.18,-8.15 -80.15,-16.3 -76.08,-21.74 4.08,-5.43 95.09,-5.43 110.04,4.08 14.94,9.51 23.09,13.58 31.24,31.24 8.15,17.66 28.53,13.59 39.39,-1.36 10.87,-14.94 21.74,-42.11 6.8,-67.92 -14.95,-25.81 -29.89,-38.39 -31.25,-50.44 -1.36,-12.05 4.08,-43.29 5.44,-62.31 1.36,-19.02 -25.82,-43.47 -31.25,-57.06 -5.43,-13.58 -6.79,-35.32 -39.39,-58.41 -32.61,-23.09 -87.74,-42.59 -117.63,-45.31 -29.89,-2.72 -150.46,15.29 -203.44,16.65 -52.98,1.35 -130.38,-17.75 -261.38,-42.54 -101.65,-19.25 -285.38,-66.8 -285.38,-66.8 l 13.61,294.95" /><path
         id="path174"
         style="fill:#d7f2f5;fill-opacity:1;fill-rule:nonzero;stroke:none"
         d="m 3813.84,2805.78 c 0,0 35.88,9.15 82.77,-21.1 46.88,-30.25 603.5,-394.77 614.09,-400.82 10.58,-6.05 223.85,7.56 223.85,7.56 0,0 33.28,-170.92 -13.61,-294.95 0,0 -229.91,-39.32 -264.7,-49.91 -34.78,-10.59 -58.98,-6.05 -127.05,19.66 -68.06,25.72 -287.38,108.91 -353.93,119.49 -66.55,10.59 -156.78,11.79 -206.2,-70.48 0,0 -25.51,109.23 4.28,282.46 31.58,183.61 40.5,408.09 40.5,408.09" /><path
         id="path176"
         style="fill:#626aab;fill-opacity:1;fill-rule:nonzero;stroke:none"
         d="m 4423.49,2041.21 c -13.49,0 -28.14,2.75 -47.45,8.63 19.3,-5.87 33.94,-8.6 47.43,-8.6 11.07,0 21.35,1.84 32.77,5.32 34.68,10.55 263.19,49.65 264.69,49.91 0,-0.01 -0.01,-0.03 -0.01,-0.04 0,0 -229.91,-39.3 -264.71,-49.9 -11.4,-3.47 -21.67,-5.32 -32.72,-5.32" /><path
         id="path178"
         style="fill:#b7e3f2;fill-opacity:1;fill-rule:nonzero;stroke:none"
         d="m 4423.47,2041.24 c -13.49,0 -28.13,2.73 -47.43,8.6 -13.11,3.98 -28.35,9.41 -46.83,16.39 -68.1,25.7 -287.39,108.9 -353.99,119.5 -18.08,2.89 -37.94,5.08 -58.25,5.08 -54.27,0 -111.83,-15.63 -147.86,-75.38 26.21,116.6 69.21,270.6 79.61,405.4 8.8,114.5 -7.11,222.3 -24,266 15.2,-29 42.39,-91.1 56.09,-185.2 19.51,-135 15.21,-189.4 13,-235.1 -2.2,-45.7 54.51,-90.9 191.61,-141.5 137.1,-50.7 315.2,-120 347,-128.6 2.39,-0.64 6.16,-0.94 11.08,-0.94 55.61,0 258.52,37.87 290.21,43.84 -3.39,-14.68 -7.59,-29.07 -12.78,-42.86 -1.5,-0.26 -230.01,-39.36 -264.69,-49.91 -11.42,-3.48 -21.7,-5.32 -32.77,-5.32" /><path
         id="path180"
         style="fill:#b2e6f4;fill-opacity:1;fill-rule:nonzero;stroke:none"
         d="m 4667.55,2387.49 c -0.1,17.87 23.8,20.15 61.37,22.43 37.57,2.27 55.78,7.17 69.44,-11.22 13.66,-18.38 29.67,-93.47 29.14,-168.68 -0.39,-55.97 -13.2,-127.46 -33.69,-136.57 -20.49,-9.11 -39.85,-11.39 -63.75,-14.8 -23.91,-3.42 -57.85,-10.21 -62.51,8.55 l 15.85,2.78 c 0,0 25.01,68.27 25.03,140.07 0.03,98.51 -18.18,158.71 -18.18,158.71 l -22.7,-1.27" /><path
         id="path182"
         style="fill:#fbcdb1;fill-opacity:1;fill-rule:nonzero;stroke:none"
         d="m 5434.65,2885.65 c -12.97,-1.33 -58.07,-20.37 -99.2,-7.75 -41.12,12.61 -87.13,80.93 -121.91,75.24 l -115.86,-23.35 c 0,0 20.02,27.79 49.1,45.12 29.09,17.33 116.65,42.52 148.03,51 41.25,11.14 92.72,21.14 122.49,9.65 67.48,-26.06 156.09,-78.83 170.28,-96.18 14.19,-17.34 316.9,-446.18 362.62,-507.67 45.72,-61.48 94.6,-140.32 80.41,-247.53 -14.19,-107.21 -47.3,-134.54 -81.99,-142.94 -34.68,-8.41 -157.66,62.54 -197.07,117.72 -39.42,55.18 -261.72,636.95 -274.34,666.91 -12.61,29.95 -28.04,61.27 -42.56,59.78" /><path
         id="path184"
         style="fill:#b96957;fill-opacity:1;fill-rule:nonzero;stroke:none"
         d="m 2548.59,1497.8 -6.59,-44.12 c 0,0 -38.46,-10.43 -60.21,-7.82 -21.75,2.61 -30.83,9.07 -25.3,16 5.54,6.93 40.42,24.81 57.89,39.75 38.16,32.65 37.97,79.99 11.88,70.13 -15.07,-5.68 -27.75,-16.32 -47.18,-19.92 -21.43,-3.97 -40.56,-9.88 -75.72,-16.74 -35.16,-6.86 -60.89,-22.91 -75.88,-34.48 -13.37,-10.32 -25.42,-17.59 -44.06,-15.4 -48.54,16.63 -150.24,51.27 -246.03,83.89 l -0.01,0.01 c -101.89,34.7 -197.03,67.11 -214.21,73.08 -38.33,13.34 -47.88,25.69 -53.44,52.54 -11.17,53.96 -43.01,164.83 -43.01,164.83 l -181.85,-271.84 c 0,0 4.97,-33.86 24.97,-93.86 20,-60 46.66,-83.34 93.33,-88.34 24.71,-2.64 170.89,-30.05 311.9,-58.23 v 0 c 0,0 248.65,-53.41 311.94,-69.71 63.29,-16.3 124.21,-26.63 162.63,-20.05 38.43,6.58 61.69,34.94 70.71,47.99 9.02,13.05 17.8,11.81 40.62,27.38 22.82,15.57 9.62,50.98 18.62,65.87 10.49,17.36 20.8,24.93 19.54,53.43 -1.25,28.5 -50.54,45.61 -50.54,45.61" /><path
         id="path186"
         style="fill:#fbcdb1;fill-opacity:1;fill-rule:nonzero;stroke:none"
         d="m 629.441,2660.18 c 0,0 116.122,-279.88 126.149,-301.77 10.027,-21.88 31.305,-19.45 169,-14.59 137.7,4.87 429.51,17.03 468.41,29.18 38.91,12.16 51.07,36.48 70.52,70.52 19.46,34.05 36.48,60.8 119.16,87.55 82.68,26.75 130.04,58.43 138.61,42.42 4.67,-8.74 12.31,-32.88 -20.49,-58.64 -32.8,-25.76 -79.48,-59.57 -73.04,-67.62 6.44,-8.05 191.08,31.28 217.33,53.13 26.26,21.84 16.34,34.75 16.34,34.75 0,0 22.3,5.5 35.18,-15.43 12.88,-20.93 15.08,-92.52 9.95,-125.15 -5.12,-32.63 -11.56,-77.7 -51.81,-114.73 -40.24,-37.03 -107.98,-71.55 -169.92,-87.48 -49.82,-12.81 -120.02,-5.47 -210.18,-26.4 -90.15,-20.93 -412.75,-95.72 -586.459,-134.94 -156.66,-35.37 -325.406,-73.71 -372.886,-57.61 -47.485,16.1 -99.817,118.07 -167.434,308.04 l 281.57,378.77" /><path
         id="path188"
         style="fill:#42acca;fill-opacity:1;fill-rule:nonzero;stroke:none"
         d="m 296.297,3039.3 c -61.93,-26.69 -150.77,-114.29 -85.113,-383 65.656,-268.71 116.722,-387.86 116.722,-387.86 0,0 252.903,-43.77 396.371,184.81 -2.429,14.59 -75.382,218.82 -141.039,372.04 -65.656,153.21 -145.902,274.8 -286.941,214.01" /><path
         id="path190"
         style="fill:#cfebf8;fill-opacity:1;fill-rule:nonzero;stroke:none"
         d="m 3220.48,2857.15 c -24.26,0 -48.85,2.37 -74.72,8.47 -36.63,8.64 -65.78,12.03 -89.39,12.03 -37.41,0 -60.91,-8.51 -78.24,-18.1 0,0 31.05,47.88 293.7,47.88 262.65,0 279.34,-29.48 279.34,-29.48 0,0 -10.9,7.7 -58.07,7.7 -17.48,0 -39.94,-1.06 -68.68,-3.96 -77.24,-7.78 -139.4,-24.54 -203.94,-24.54" /><path
         id="path192"
         style="fill:#b7e3f2;fill-opacity:1;fill-rule:nonzero;stroke:none"
         d="m 3254.89,2786.66 c -64.59,0 -108.87,11.03 -149.51,34.42 -44.31,25.5 -127.25,38.47 -127.25,38.47 v 0 c 17.33,9.59 40.83,18.1 78.24,18.1 23.61,0 52.76,-3.39 89.39,-12.03 25.87,-6.1 50.46,-8.47 74.72,-8.47 64.54,0 126.7,16.76 203.94,24.54 28.74,2.9 51.2,3.96 68.68,3.96 47.17,0 58.07,-7.7 58.07,-7.7 v 0 c -1.41,0.1 -2.82,0.15 -4.23,0.15 -30.59,0 -62.03,-24.08 -105.42,-45.78 -45.39,-22.69 -94.03,-43.23 -168.61,-45.39 -6.18,-0.18 -12.18,-0.27 -18.02,-0.27" /><path
         id="path194"
         style="fill:#d7f2f5;fill-opacity:1;fill-rule:nonzero;stroke:none"
         d="m 3254.74,2953.02 c -67.79,-3.23 -119.01,18.01 -154.06,23.66 -35.06,5.64 -74.57,-14.11 -122.55,-117.13 0,0 47.98,4.23 101.6,-9.88 53.63,-14.11 107.4,-32.11 184.92,-27.99 94.6,5.02 149.56,31.36 193.08,42.2 52.47,13.06 93.45,14.07 93.45,14.07 0,0 -76.77,137.66 -146.57,112.84 -51.39,-18.27 -90.6,-34.95 -149.87,-37.77" /><path
         id="path196"
         style="fill:#e9b191;fill-opacity:1;fill-rule:nonzero;stroke:none"
         d="m 3002.57,1484.43 322.22,126.41 -56.22,12.42 h -2.75 l -413.32,-88.37 c 42.96,-14.54 95.19,-32.14 150.07,-50.46" /><path
         id="path198"
         style="fill:#42acca;fill-opacity:1;fill-rule:nonzero;stroke:none"
         d="m 472.676,3166.26 c 0,0 49.379,-84.85 123.336,-124.48 83.996,-45.01 158.769,-36.37 158.769,-36.37 l 31.383,-40.25 c 0,0 -93.457,-22.64 -201.957,33.92 -101.91,53.12 -137.965,132.75 -137.965,132.75 l 26.434,34.43" /><path
         id="path200"
         style="fill:#40a178;fill-opacity:1;fill-rule:nonzero;stroke:none"
         d="m 1671.07,1344.19 45.3,8.22 v 58.15 c -13.59,-20.6 -28.74,-42.82 -45.3,-66.37" /><path
         id="path202"
         style="fill:#40a178;fill-opacity:1;fill-rule:nonzero;stroke:none"
         d="m 1485.11,1499.7 c 25.7,35.99 241.61,359.85 241.61,359.85 0,0 -43.98,126.67 -33.05,272.21 0,0 -45.15,-122.04 -32.91,-275.47 0,0 -170.8,-279.8 -215.7,-314.26 -44.91,-34.47 -218.69,-13.2 -218.69,-13.2 0,0 82.25,-27.41 150.79,-44.55 68.54,-17.13 82.25,-20.56 107.95,15.42" /><path
         id="path204"
         style="fill:#9f554b;fill-opacity:1;fill-rule:nonzero;stroke:none"
         d="m 1748.23,1781.81 -184.18,-265.86 -19.18,71.76 181.85,271.84 21.51,-77.74" /><path
         id="path206"
         style="fill:#211519;fill-opacity:1;fill-rule:nonzero;stroke:none"
         d="m 897.063,3054.03 c 0,0 133.367,-0.44 220.517,141.96 0,0 -40.39,-180.23 -226.002,-168.53 1.613,9.54 3.512,18.41 5.485,26.57" /><path
         id="path208"
         style="fill:#3d67a5;fill-opacity:1;fill-rule:nonzero;stroke:none"
         d="m 5936.72,1396.32 c 15.17,-69.82 37.94,-172.53 51.6,-185.68 13.66,-13.15 202.63,-37.28 202.63,-37.28 l 3.32,17.27 c 0,0 -165.3,22.96 -186.76,31.42 -14.44,5.68 -54.1,119.63 -70.79,174.27" /><path
         id="path210"
         style="fill:#568bd0;fill-opacity:1;fill-rule:nonzero;stroke:none"
         d="m 5010.94,826.059 c 0,0 -30.2,203.181 -27.86,410.781 h -22.89 c 0,0 -20.72,-135.92 22.38,-410.781 h 28.37" /><path
         id="path212"
         style="fill:#3d67a5;fill-opacity:1;fill-rule:nonzero;stroke:none"
         d="m 887.93,1082.84 c 0,0 -32.082,-118.192 -32.082,-155.84 0,-37.648 83.422,-91.129 102.672,-88.988 19.25,2.136 164.71,32.09 183.96,53.476 19.25,21.391 40.64,231.002 40.64,231.002 0,0 -39.7,-202.99 -53,-215.818 -13.31,-12.832 -143.835,-50.684 -167.475,-48.551 -23.641,2.141 -87.547,53.66 -87.547,71.141 0,17.476 12.832,153.578 12.832,153.578" /><path
         id="path214"
         style="fill:#3d67a5;fill-opacity:1;fill-rule:nonzero;stroke:none"
         d="M 672.516,1145.87 C 640.809,1075.4 613.797,980.281 603.227,965.012 592.656,949.738 478.016,940.898 478.016,940.898 l 5.078,22.122 c 0,0 73.609,6.691 92.172,10.21 18.566,3.52 23.261,19.34 33.832,44.32 10.57,24.97 63.418,128.32 63.418,128.32" /><path
         id="path216"
         style="fill:#265983;fill-opacity:1;fill-rule:nonzero;stroke:none"
         d="m 153.273,826.059 126.055,484.101 h 18.633 L 177.445,826.059 h -24.172" /><path
         id="path218"
         style="fill:#265983;fill-opacity:1;fill-rule:nonzero;stroke:none"
         d="m 261.133,1179.94 c 87.051,-11.54 209.09,4.88 253.594,147.83 l 2.57,-31.11 c 0,0 -16.313,-77.91 -84.402,-112.45 -68.094,-34.54 -133.829,-30.72 -178.125,-20.13 l 6.363,15.86" /><path
         id="path220"
         style="fill:#568bd0;fill-opacity:1;fill-rule:nonzero;stroke:none"
         d="m 5102.99,1180.18 c 11.04,-87.76 23.09,-180.68 45.44,-199.989 22.35,-19.32 180.66,-29.632 202.1,-21.902 21.44,7.742 83.32,71.781 84.62,95.221 1.3,23.43 -27.86,214.3 -27.86,214.3 0,0 6.69,-188.96 4.89,-208.19 -1.8,-19.23 -50.53,-75.6 -73.74,-79.429 -23.22,-3.839 -152.18,-4.55 -170.24,16.438 -18.05,20.991 -65.21,183.551 -65.21,183.551" /><path
         id="path222"
         style="fill:#3d67a5;fill-opacity:1;fill-rule:nonzero;stroke:none"
         d="m 5851.81,1451.81 c 0,0 39.51,-154.34 64.44,-294.47 24.92,-140.12 37.1,-331.281 37.1,-331.281 h -24.37 c 0,0 -4.06,162.73 -34.52,331.281 -30.46,168.56 -64.98,294.47 -64.98,294.47 h 22.33" /><path
         id="path224"
         style="fill:#568bd0;fill-opacity:1;fill-rule:nonzero;stroke:none"
         d="m 5508.63,1263.37 c 20.73,-122.53 34.63,-225.27 16.94,-316.632 -17.68,-91.367 -22.73,-120.679 -22.73,-120.679 h 15.41 c 0,0 17.43,92.472 26.27,139.211 8.84,46.73 6.32,122.56 -20.84,302.54 l -15.05,-4.44" /><path
         id="path226"
         style="fill:#568bd0;fill-opacity:1;fill-rule:nonzero;stroke:none"
         d="m 5613.55,1308.88 c 11.57,-77.12 21.85,-165.8 30.85,-186.36 9,-20.57 68.96,-38.69 68.96,-38.69 l -0.31,-16.62 c 0,0 -66.08,13.23 -85.36,44.55 -19.28,31.32 -14.14,197.12 -14.14,197.12" /><path
         id="path228"
         style="fill:#171f26;fill-opacity:1;fill-rule:nonzero;stroke:none"
         d="m 3219.71,128.488 c -4.32,-4.429 -8.03,-9.308 -11.08,-14.527 l -4.65,2.41 c -0.67,2.981 -3.49,5.02 -6.59,4.66 -3.31,-0.39 -5.68,-3.39 -5.29,-6.703 0.39,-3.308 3.39,-5.668 6.7,-5.289 l 1.83,0.531 4.52,-2.351 c -2.51,-5.528 -4.33,-11.3792 -5.39,-17.4299 l 7.46,-1.3203 c 2.3,13.0622 8.5,25.0702 17.92,34.7302 l -5.43,5.289" /><path
         id="path230"
         style="fill:#171f26;fill-opacity:1;fill-rule:nonzero;stroke:none"
         d="m 3274.59,151.512 c -1.71,0 -3.41,-0.063 -5.1,-0.172 l -0.73,6.262 c 1.87,1.488 2.96,3.886 2.66,6.449 -0.47,3.929 -4.03,6.738 -7.96,6.277 -3.93,-0.469 -6.74,-4.027 -6.28,-7.957 0.3,-2.539 1.9,-4.609 4.05,-5.633 l 0.73,-6.25 c -7.13,-1.16 -14.03,-3.308 -20.59,-6.457 l 3.27,-6.832 c 9.34,4.461 19.41,6.731 29.95,6.731 4.97,0 9.93,-0.532 14.75,-1.578 l 1.61,7.41 c -5.35,1.156 -10.86,1.75 -16.36,1.75" /><path
         id="path232"
         style="fill:#171f26;fill-opacity:1;fill-rule:nonzero;stroke:none"
         d="m 3340.62,126.039 c 3.3,0.402 5.66,3.41 5.25,6.723 -0.4,3.308 -3.41,5.656 -6.72,5.258 -3.1,-0.379 -5.35,-3.04 -5.3,-6.09 l -4.16,-3.629 c -4.18,4.301 -8.9,8.121 -14.08,11.39 l -4.04,-6.41 c 11.34,-7.152 20.21,-17.269 25.63,-29.261 l 6.91,3.128 c -2.51,5.543 -5.68,10.723 -9.42,15.454 l 4.02,3.507 1.91,-0.07" /><path
         id="path234"
         style="fill:#171f26;fill-opacity:1;fill-rule:nonzero;stroke:none"
         d="m 3269.12,49.4297 c -3.86,-0.2383 -7.75,-0.3516 -11.58,-0.3516 -8.8,0 -17.33,0.6133 -24.78,1.793 -3.9,0.6172 -8.46,1.5469 -12.7,2.918 10.46,-18.6094 30.69,-31.25 53.88,-31.25 28.56,0 52.62,19.1601 59.5,45.039 -6.82,-4.5 -15.06,-8.2578 -24.59,-11.2265 -11.79,-3.6797 -25.54,-6.0703 -39.73,-6.9219" /><path
         id="path236"
         style="fill:#171f26;fill-opacity:1;fill-rule:nonzero;stroke:none"
         d="m 3300.37,80.2813 c -7.5,0 -13.6,6.0976 -13.6,13.5976 0,7.5121 6.1,13.6091 13.6,13.6091 7.5,0 13.61,-6.097 13.61,-13.6091 0,-7.5 -6.11,-13.5976 -13.61,-13.5976 z M 3253,71.1992 c -10.2,0 -18.5,8.3008 -18.5,18.5 0,10.1992 8.3,18.4998 18.5,18.4998 10.2,0 18.49,-8.3006 18.49,-18.4998 0,-10.1992 -8.29,-18.5 -18.49,-18.5 z m 21.59,65.1528 c -33.52,0 -60.79,-26.661 -60.79,-59.4418 0,-4.25 0.46,-8.4922 1.37,-12.6094 6.73,-4.832 27.05,-8.9024 53.47,-7.3125 28.8,1.7305 52.97,9.5703 66.72,21.5937 -0.05,1.9493 -0.2,3.8985 -0.45,5.8086 -3.8,29.6214 -29.73,51.9614 -60.32,51.9614" /><path
         id="path238"
         style="fill:#171f26;fill-opacity:1;fill-rule:nonzero;stroke:none"
         d="m 3434.63,117.68 c -2.95,1.16 -8.06,3.09 -13.83,2.371 -5.51,-0.692 -8.44,-3.41 -8.44,-10.071 v -8.66 h 22.28 V 84.1484 h -22.28 V 29.6016 h -19.31 v 54.5468 h -13.4 V 101.32 h 13.4 v 8.891 c 0,16.801 8.95,27.82 25.68,27.82 6.42,0 11.57,-1.211 15.9,-3.082 V 117.68" /><path
         id="path240"
         style="fill:#171f26;fill-opacity:1;fill-rule:nonzero;stroke:none"
         d="m 3481.65,84.3594 c -1.77,0.289 -3.57,0.4609 -5.26,0.4609 -8.96,0 -15.1,-5.4805 -15.1,-16.1406 V 29.6016 h -19.32 V 101.32 h 18.73 v -7.8395 c 4.51,6.7305 11.4,9.7695 20.21,9.7695 4.14,0 8.47,-1.281 10.94,-3.3711 l -10.2,-15.5195" /><path
         id="path242"
         style="fill:#171f26;fill-opacity:1;fill-rule:nonzero;stroke:none"
         d="m 3507.18,72.2383 h 31.75 c -1.77,9.1719 -7.33,14.3633 -15.61,14.3633 -9.11,0 -14.44,-5.4805 -16.14,-14.3633 z m 51.14,-6.6602 c 0,-2.2265 -0.14,-4.8867 -0.37,-6.5195 h -50.84 c 2.07,-10.3594 9.32,-14.8672 18.43,-14.8672 6.21,0 12.95,2.5078 18.13,6.8789 l 11.32,-12.4414 c -8.14,-7.4687 -18.5,-10.8789 -30.56,-10.8789 -21.99,0 -37.23,14.9609 -37.23,37.5313 0,22.5703 14.8,37.9687 36.26,37.9687 20.65,0 34.79,-15.3203 34.86,-37.6719" /><path
         id="path244"
         style="fill:#171f26;fill-opacity:1;fill-rule:nonzero;stroke:none"
         d="m 3583.71,72.2383 h 31.76 c -1.78,9.1719 -7.33,14.3633 -15.62,14.3633 -9.11,0 -14.43,-5.4805 -16.14,-14.3633 z m 51.15,-6.6602 c 0,-2.2265 -0.15,-4.8867 -0.37,-6.5195 h -50.85 c 2.07,-10.3594 9.32,-14.8672 18.43,-14.8672 6.22,0 12.95,2.5078 18.13,6.8789 l 11.33,-12.4414 c -8.15,-7.4687 -18.51,-10.8789 -30.57,-10.8789 -21.98,0 -37.23,14.9609 -37.23,37.5313 0,22.5703 14.8,37.9687 36.27,37.9687 20.65,0 34.78,-15.3203 34.86,-37.6719" /><path
         id="path246"
         style="fill:#171f26;fill-opacity:1;fill-rule:nonzero;stroke:none"
         d="m 3661.54,65.5 c 0,-11.3203 7.48,-19.7617 18.43,-19.7617 11.4,0 18.51,8.8125 18.51,19.7617 0,10.9492 -7.11,19.7617 -18.51,19.7617 -10.95,0 -18.43,-8.4336 -18.43,-19.7617 z m 56.77,0 c 0,-21.5391 -14.95,-37.75 -34.71,-37.75 -9.62,0 -16.43,3.7813 -21.09,9.3281 V 0 h -19.25 v 101.32 h 18.88 v -7.9216 c 4.66,5.8516 11.54,9.8516 21.39,9.8516 19.83,0 34.78,-16.2109 34.78,-37.75" /><path
         id="path248"
         style="fill:#171f26;fill-opacity:1;fill-rule:nonzero;stroke:none"
         d="m 3746.76,29.6016 h -19.32 V 101.32 h 19.32 z m 2.59,95.1874 c 0,-6.961 -5.41,-12.289 -12.36,-12.289 -6.96,0 -12.29,5.328 -12.29,12.289 0,6.949 5.33,12.43 12.29,12.43 6.95,0 12.36,-5.481 12.36,-12.43" /><path
         id="path250"
         style="fill:#171f26;fill-opacity:1;fill-rule:nonzero;stroke:none"
         d="m 3778.99,75.7891 27.02,25.5309 h 23.68 l -34.78,-33.7497 35.01,-37.9687 h -23.76 l -27.17,29.0195 V 29.6016 h -19.31 V 136.18 h 19.31 V 75.7891" /><path
         id="path252"
         style="fill:#171f26;fill-opacity:1;fill-rule:nonzero;stroke:none"
         d="m 2462.8,49.4414 v 32.0781 c -3.96,6.1524 -12.45,11.4297 -21.24,11.4297 -14.21,0 -22.71,-11.7187 -22.71,-27.3984 0,-15.6719 8.5,-27.2422 22.71,-27.2422 8.79,0 17.28,4.9805 21.24,11.1328 z m 0,-19.1914 V 40.8008 C 2457.52,33.6211 2448.88,28.5 2438.92,28.5 c -18.46,0 -31.49,14.0586 -31.49,37.0508 0,22.5586 12.89,37.2112 31.49,37.2112 9.52,0 18.17,-4.6917 23.88,-12.4534 v 37.6524 h 10.99 V 30.25 h -10.99" /><path
         id="path254"
         style="fill:#171f26;fill-opacity:1;fill-rule:nonzero;stroke:none"
         d="m 2522.71,93.6797 c -15.09,0 -22.56,-12.75 -23.15,-23.5781 H 2546 c -0.15,10.539 -7.18,23.5781 -23.29,23.5781 z m -34.72,-27.9805 c 0,20.5117 14.65,37.0628 34.86,37.0628 21.39,0 33.99,-16.7034 33.99,-37.9417 v -2.7812 h -57.28 c 0.88,-13.3282 10.26,-24.461 25.49,-24.461 8.06,0 16.26,3.2227 21.82,8.9336 l 5.28,-7.1836 C 2545.12,32.3008 2535.6,28.5 2524.02,28.5 c -20.94,0 -36.03,15.082 -36.03,37.1992" /><path
         id="path256"
         style="fill:#171f26;fill-opacity:1;fill-rule:nonzero;stroke:none"
         d="m 2564.74,39.6289 5.72,7.9102 c 4.68,-5.418 13.62,-10.1094 23.28,-10.1094 10.85,0 16.71,5.1289 16.71,12.1601 0,17.129 -43.8,6.5899 -43.8,32.8086 0,10.9922 9.52,20.3636 26.36,20.3636 12.01,0 20.51,-4.5432 26.22,-10.2503 l -5.13,-7.6211 c -4.24,5.1289 -12.01,8.9297 -21.09,8.9297 -9.66,0 -15.67,-4.832 -15.67,-11.1289 0,-15.5234 43.8,-5.2734 43.8,-32.8125 0,-11.8594 -9.52,-21.3789 -27.83,-21.3789 -11.58,0 -21.39,3.5117 -28.57,11.1289" /><path
         id="path258"
         style="fill:#171f26;fill-opacity:1;fill-rule:nonzero;stroke:none"
         d="M 2635.34,30.25 V 101 h 10.99 V 30.25 Z m -1.9,88.18 c 0,4.101 3.37,7.468 7.33,7.468 4.1,0 7.46,-3.367 7.46,-7.468 0,-4.102 -3.36,-7.321 -7.46,-7.321 -3.96,0 -7.33,3.219 -7.33,7.321" /><path
         id="path260"
         style="fill:#171f26;fill-opacity:1;fill-rule:nonzero;stroke:none"
         d="m 2715.76,50.6094 v 30.9101 c -3.81,6.1524 -12.31,11.4297 -21.09,11.4297 -14.21,0 -22.71,-11.2773 -22.71,-26.9492 0,-15.5312 8.5,-26.9609 22.71,-26.9609 8.78,0 17.28,5.4218 21.09,11.5703 z m -51.27,-38.5196 5.57,8.1993 c 5.86,-7.0274 12.89,-9.668 23,-9.668 11.71,0 22.7,5.7187 22.7,21.2383 v 10.1094 c -5.13,-7.1797 -13.77,-12.5977 -23.73,-12.5977 -18.46,0 -31.49,13.7695 -31.49,36.6289 0,22.6992 12.89,36.762 31.49,36.762 9.52,0 18.02,-4.6917 23.73,-12.4534 V 101 h 10.98 V 32.3008 c 0,-23.42971 -16.4,-30.76174 -33.68,-30.76174 -12.02,0 -20.22,2.35157 -28.57,10.55074" /><path
         id="path262"
         style="fill:#171f26;fill-opacity:1;fill-rule:nonzero;stroke:none"
         d="m 2792.81,30.25 v 46.2891 c 0,12.4492 -6.3,16.4101 -15.82,16.4101 -8.65,0 -16.85,-5.2773 -20.95,-10.9883 V 30.25 h -10.99 V 101 h 10.99 V 90.75 c 4.98,5.8594 14.65,12.012 25.19,12.012 14.8,0 22.56,-7.4729 22.56,-22.8518 V 30.25 h -10.98" /><path
         id="path264"
         style="fill:#171f26;fill-opacity:1;fill-rule:nonzero;stroke:none"
         d="m 2852.71,93.6797 c -15.08,0 -22.56,-12.75 -23.14,-23.5781 H 2876 c -0.14,10.539 -7.17,23.5781 -23.29,23.5781 z M 2818,65.6992 c 0,20.5117 14.65,37.0628 34.86,37.0628 21.39,0 33.98,-16.7034 33.98,-37.9417 v -2.7812 h -57.27 c 0.88,-13.3282 10.25,-24.461 25.49,-24.461 8.05,0 16.26,3.2227 21.82,8.9336 l 5.28,-7.1836 C 2875.13,32.3008 2865.6,28.5 2854.03,28.5 2833.09,28.5 2818,43.582 2818,65.6992" /><path
         id="path266"
         style="fill:#171f26;fill-opacity:1;fill-rule:nonzero;stroke:none"
         d="m 2952.17,49.4414 v 32.0781 c -3.96,6.1524 -12.45,11.4297 -21.24,11.4297 -14.21,0 -22.7,-11.7187 -22.7,-27.3984 0,-15.6719 8.49,-27.2422 22.7,-27.2422 8.79,0 17.28,4.9805 21.24,11.1328 z m 0,-19.1914 V 40.8008 C 2946.9,33.6211 2938.26,28.5 2928.29,28.5 c -18.45,0 -31.49,14.0586 -31.49,37.0508 0,22.5586 12.89,37.2112 31.49,37.2112 9.53,0 18.17,-4.6917 23.88,-12.4534 v 37.6524 h 10.99 V 30.25 h -10.99" /><path
         id="path268"
         style="fill:#171f26;fill-opacity:1;fill-rule:nonzero;stroke:none"
         d="m 3047.67,38.3086 c 14.36,0 22.86,11.5703 22.86,27.2422 0,15.6797 -8.5,27.3984 -22.86,27.3984 -8.64,0 -17.28,-5.2773 -21.09,-11.4297 V 49.4414 c 3.81,-6.1523 12.45,-11.1328 21.09,-11.1328 z M 3015.59,30.25 v 97.711 h 10.99 V 90.3086 c 5.71,7.7617 14.21,12.4534 23.88,12.4534 18.45,0 31.49,-14.6526 31.49,-37.2112 0,-22.9922 -13.04,-37.0508 -31.49,-37.0508 -9.96,0 -18.61,5.1211 -23.88,12.3008 V 30.25 h -10.99" /><path
         id="path270"
         style="fill:#171f26;fill-opacity:1;fill-rule:nonzero;stroke:none"
         d="m 3093.96,12.5313 c 1.61,-0.7305 4.25,-1.1719 6,-1.1719 4.84,0 8.06,1.6094 10.55,7.4687 L 3115.2,29.5195 3085.61,101 h 11.86 l 23.59,-58 23.43,58 h 12.01 l -35.44,-85.1016 c -4.25,-10.24996 -11.43,-14.20699 -20.8,-14.35934 -2.35,0 -6.01,0.44141 -8.06,1.03125 l 1.76,9.96099" /></g></g></svg>