<?xml version="1.0" encoding="UTF-8" standalone="no"?>
<svg
   xmlns:dc="http://purl.org/dc/elements/1.1/"
   xmlns:cc="http://creativecommons.org/ns#"
   xmlns:rdf="http://www.w3.org/1999/02/22-rdf-syntax-ns#"
   xmlns:svg="http://www.w3.org/2000/svg"
   xmlns="http://www.w3.org/2000/svg"
   viewBox="0 0 4266.6665 2666.6667"
   height="2666.6667"
   width="4266.6665"
   xml:space="preserve"
   id="svg2"
   version="1.1"><metadata
     id="metadata8"><rdf:RDF><cc:Work
         rdf:about=""><dc:format>image/svg+xml</dc:format><dc:type
           rdf:resource="http://purl.org/dc/dcmitype/StillImage" /></cc:Work></rdf:RDF></metadata><defs
     id="defs6" /><g
     transform="matrix(1.3333333,0,0,-1.3333333,0,2666.6667)"
     id="g10"><g
       transform="scale(0.1)"
       id="g12"><g
         transform="scale(1.96319)"
         id="g14"><path
           id="path16"
           style="fill:#ffffff;fill-opacity:1;fill-rule:nonzero;stroke:none"
           d="M 16300,0 H 0 V 10187.5 H 16300 V 0" /></g><g
         transform="scale(1.88606)"
         id="g18"><path
           id="path20"
           style="fill:#aec3ff;fill-opacity:1;fill-rule:nonzero;stroke:none"
           d="m 16300,4918.08 v -35.42 c 0,-108.74 -3.3,-224.91 -9.1,-348.5 -4.9,-102.17 -11.5,-209.27 -20.5,-318.81 -19,-243.9 -48.7,-503.38 -87.4,-763.71 -6.6,-45.34 -14,-90.61 -21.4,-135.1 -7.4,-46.97 -15.7,-93.95 -24.7,-140.87 -41.2,-231.54 -90.7,-459.74 -149.1,-675.59 -16.5,-58.48 -33,-116.17 -49.5,-172.16 -35.4,-117.02 -73.3,-229.05 -114.5,-334.51 v -0.79 c -52.7,-134.3 -109.6,-257.89 -171.3,-367.43 -5.8,-10.71 -12.4,-22.27 -19,-32.98 -19.7,-34.63 -40.4,-66.7 -60.9,-97.24 -14.9,-21.37 -29.7,-41.99 -44.5,-61.77 -11.6,-14.85 -23.1,-28.85 -34.6,-42.84 -14.8,-17.29 -28.9,-33.78 -43.7,-49.42 -5.8,-6.57 -11.5,-12.35 -17.3,-18.13 -11.5,-11.56 -23.1,-23.06 -34.6,-33.77 -37.9,-32.98 -76.6,-61.77 -117,-84.84 -0.8,-0.84 -1.7,-0.84 -2.4,-1.69 -1.7,-1.65 -4.2,-2.44 -5.8,-3.29 -4.2,-2.44 -8.3,-4.93 -11.6,-6.58 -8.2,-4.13 -16.5,-8.21 -24.7,-12.35 l -952.3,-6.57 -1636.2,-10.71 -3300.32,12.35 -1176.48,4.08 -1177.27,4.14 h -2.49 l -79.9,0.85 -2184,7.37 -170.54,0.84 h -44.49 l -692.02,2.5 -347.66,1.64 -1486.22,5.73 h -18.12 c 0,0 -0.82,0.85 -1.65,1.69 -8.25,6.58 -49.44,42 -111.23,103.76 -11.52,11.56 -23.88,23.92 -36.24,37.12 -13.19,13.15 -26.37,27.15 -40.37,42.79 -303.17,330.37 -862.566,1092.43 -843.618,2197.22 10.71,661.54 116.978,1823.99 914.468,2647.01 13.18,13.19 26.36,27.19 39.54,40.37 3.3,2.47 6.59,5.77 10.71,9.89 0.82,0.82 1.65,1.65 2.48,2.47 4.12,4.12 8.23,7.41 13.17,12.36 1.65,1.65 3.3,3.29 4.94,4.94 3.31,3.3 6.61,6.59 10.71,9.89 3.31,3.29 7.42,7.42 11.54,11.53 5.78,4.12 10.71,9.06 16.48,14.83 0,0.82 0,0.82 0.82,0.82 3.3,2.48 6.6,5.78 9.9,9.07 v 0.82 c 5.76,4.95 11.52,9.89 16.47,14.83 4.94,3.3 9.06,8.24 14,12.36 0.82,0 0.82,0 0.82,0.82 7.42,6.59 14.83,13.19 23.07,18.95 4.13,4.12 9.06,8.24 14,12.36 3.31,3.3 7.42,6.59 10.72,9.88 3.3,1.65 4.94,4.13 8.24,5.77 4.11,4.12 9.06,8.24 14.01,12.36 2.46,2.47 4.94,4.12 7.41,5.77 5.76,4.94 11.53,9.06 17.3,14 0.82,0.83 1.65,1.65 2.47,2.47 9.06,6.59 17.3,14.01 26.36,20.6 7.42,5.76 14.84,11.53 22.25,17.3 0.82,0.82 2.47,1.65 3.3,2.47 6.58,4.95 13.17,9.89 20.59,14.83 5.76,4.95 12.35,9.89 18.12,14.01 2.48,1.65 4.13,3.29 6.6,4.94 8.23,5.77 16.47,11.53 24.71,18.13 5.76,4.11 12.36,8.23 18.12,12.35 7.41,4.94 14.01,9.89 21.42,14.83 4.94,3.3 9.88,6.59 14.84,10.71 7.41,4.94 14.82,9.06 22.24,14 5.76,4.13 12.35,8.24 18.12,12.36 2.48,1.65 4.13,3.3 6.59,4.12 6.59,4.12 12.36,8.24 18.96,12.36 7.4,4.94 14.82,9.06 22.23,14.01 0,0 0.83,0 0.83,0.82 7.41,4.12 14.83,9.06 21.42,13.18 8.24,4.12 15.65,9.06 23.07,14.01 0.81,0 2.46,0.82 3.28,1.64 6.6,4.12 13.19,8.24 19.77,11.54 7.43,4.94 15.67,9.06 23.08,13.18 7.42,4.94 15.65,9.06 23.07,13.18 0,0 0,0.83 0.82,0.83 7.42,4.11 15.65,8.23 23.07,13.18 8.24,4.12 15.65,8.23 23.07,12.35 1.65,0.83 2.47,0.83 3.29,1.66 7.41,4.11 14.83,7.41 22.24,11.53 7.42,4.12 14.84,7.41 22.25,11.53 5.77,3.29 12.37,6.59 18.13,9.06 27.18,14.01 55.2,28.01 83.2,41.2 49.43,23.06 99.69,45.31 151.59,65.9 7.42,3.3 15.66,6.59 23.07,9.07 7.42,3.29 14.82,5.77 22.24,9.06 7.42,3.28 14.83,5.77 23.08,9.06 12.34,4.94 24.7,9.07 37.06,14.01 8.24,2.47 16.48,5.76 24.72,8.23 7.42,3.29 14.82,5.76 22.25,8.24 9.05,3.29 18.12,6.59 28,9.89 0,0 0,0 0.82,0 0.83,0.82 1.65,0.82 2.48,0.82 7.42,2.47 14.83,5.77 23.06,8.24 10.71,3.3 22.25,7.41 33.78,10.71 9.89,3.29 19.77,6.59 29.66,9.89 0.83,0 0.83,0 1.65,0 8.24,3.29 17.3,5.77 26.37,8.23 4.11,1.65 8.23,2.48 12.35,4.12 9.06,2.47 18.12,4.94 26.37,7.42 3.29,0.82 5.76,1.65 8.23,2.47 10.71,3.3 21.41,5.77 31.31,9.06 10.7,2.47 21.42,5.77 32.12,9.06 4.13,0.83 8.25,1.66 12.37,2.47 8.23,2.48 16.48,4.95 24.71,6.6 1.65,0.82 3.29,1.65 4.94,1.65 11.54,3.29 23.9,5.76 35.43,9.05 10.71,2.48 21.42,4.95 32.13,7.43 2.48,0.82 5.77,1.64 9.06,2.46 11.54,2.48 22.25,4.95 33.78,8.24 13.18,2.47 25.55,4.95 37.89,8.24 h 0.83 c 13.18,2.47 25.54,5.77 37.89,8.24 14.01,2.47 27.2,5.76 40.37,8.24 6.6,1.64 13.19,3.29 18.95,4.94 6.59,1.65 13.2,3.29 19.77,4.95 5.77,0.82 11.54,2.46 17.31,4.11 5.76,1.65 11.53,2.47 18.12,4.12 4.95,1.65 10.71,3.3 16.48,4.95 5.77,1.64 11.53,2.47 17.3,4.12 5.77,1.64 10.71,3.29 15.65,4.93 11.54,3.3 23.9,6.6 35.42,9.89 5.77,1.65 10.72,3.3 16.49,4.95 10.7,3.29 21.42,7.41 32.12,10.7 0.83,0 0.83,0 1.65,0 10.71,3.31 21.43,7.42 31.31,10.72 11.53,4.11 21.42,7.41 32.13,11.53 10.7,4.12 21.42,7.42 32.13,11.53 0.83,0.83 1.64,0.83 3.29,1.65 14.83,5.76 30.49,11.53 45.32,17.3 v 0.82 c 4.94,1.65 9.88,3.3 14,5.77 6.59,2.48 12.36,4.95 18.12,7.42 9.07,4.12 18.13,7.42 27.19,11.53 4.95,2.47 10.72,4.94 15.66,7.42 15.66,6.59 30.48,14 46.13,21.42 8.24,4.12 17.29,8.24 25.54,12.35 8.24,4.12 16.48,8.25 24.72,12.36 0.82,0.83 1.65,0.83 1.65,1.65 9.05,4.12 17.3,9.06 26.36,13.18 0.82,0.82 1.64,1.64 3.28,1.64 6.6,4.13 13.19,7.42 19.78,11.54 3.3,1.65 6.59,4.12 10.72,5.77 4.94,2.47 9.87,5.76 14.82,8.23 4.13,2.48 7.43,4.95 11.54,6.6 8.23,4.94 16.48,9.89 24.71,14.83 7.42,4.95 15.65,9.06 23.07,14 8.25,5.76 17.29,10.72 25.54,16.49 8.23,4.93 16.48,10.7 24.72,15.65 l 0.83,0.81 c 6.57,4.12 12.35,8.24 18.12,12.36 4.11,2.48 7.41,4.94 10.7,7.42 4.94,2.47 9.07,5.76 13.18,9.06 4.95,2.47 9.06,5.77 13.19,9.06 4.94,3.3 9.06,5.77 13.17,9.06 4.95,3.3 9.07,6.6 14.02,9.89 3.29,2.47 6.57,4.94 9.88,7.42 7.42,4.94 14.01,10.71 21.42,16.47 0.82,0.83 2.47,1.65 3.3,2.47 7.41,4.95 14.82,10.72 21.42,16.48 9.88,7.42 20.59,15.65 30.48,23.89 7.41,5.77 14.83,11.54 22.25,18.13 0.81,0.82 2.46,2.47 3.28,3.3 5.78,4.11 11.55,9.06 16.49,14 1.63,0.82 2.46,1.65 4.11,2.47 2.47,2.47 5.77,5.77 9.07,8.23 1.65,1.66 3.28,2.48 4.94,4.13 2.47,2.47 4.93,4.12 7.41,6.59 1.65,1.65 2.47,2.47 4.12,3.3 0.83,0.82 1.65,1.64 1.65,1.64 0.83,0.83 1.65,1.65 1.65,1.65 4.11,3.29 8.24,7.42 12.35,10.71 5.78,4.94 10.72,9.88 16.48,14.83 1.64,1.65 4.12,3.3 5.76,5.77 4.95,4.11 9.9,9.05 15.66,14 0.82,0.82 2.47,2.47 4.12,4.12 1.65,0.82 2.47,2.47 4.12,3.3 5.77,5.77 11.54,10.71 16.47,16.47 1.65,0.83 2.48,1.64 3.3,2.47 3.3,3.3 5.78,5.77 9.06,9.06 2.48,1.65 4.13,3.3 5.77,5.77 1.65,0.82 3.3,2.47 4.12,3.3 1.65,2.47 3.3,3.29 4.95,4.94 1.65,2.47 4.12,4.12 5.76,5.77 0.82,0.82 2.47,2.47 4.12,4.12 1.64,1.64 2.47,3.29 4.12,4.12 2.47,2.47 4.94,4.94 7.42,7.41 5.76,5.76 10.7,10.71 16.47,16.47 9.89,10.72 20.6,21.43 31.31,32.14 0,0.82 0.82,1.65 1.64,1.65 4.95,5.76 9.89,10.71 14.84,16.48 l 4.12,4.11 c 7.41,8.24 15.65,17.3 23.06,25.54 0.82,0.82 1.64,1.65 2.47,2.47 0.82,1.65 2.47,2.47 3.3,4.12 8.24,9.06 16.47,17.3 23.89,26.37 1.65,1.64 2.47,2.47 3.3,3.29 l 0.82,1.65 c 9.05,9.88 17.3,19.77 26.36,29.66 0.83,0.82 1.65,1.64 2.46,2.47 0.83,1.65 1.65,2.47 2.48,3.3 9.07,10.71 18.12,21.41 26.37,31.3 9.06,11.53 18.12,22.25 27.18,32.96 9.06,10.71 18.14,22.24 27.19,32.95 0.82,0.82 1.64,1.64 1.64,2.47 6.61,8.24 13.19,16.48 19.78,25.54 1.64,1.65 3.29,3.3 4.94,4.94 4.13,4.94 8.24,10.71 11.54,15.65 3.29,4.12 6.59,7.42 9.06,11.54 10.71,13.18 20.6,27.19 31.3,40.36 25.54,33.78 50.26,68.39 75.8,102.98 0.83,0.83 1.65,2.48 3.31,4.12 5.75,8.25 10.69,15.66 16.46,23.9 3.3,4.12 6.6,8.24 9.06,12.36 7.42,9.88 14.01,18.95 20.6,28.83 2.46,3.29 4.94,6.59 6.59,9.89 4.95,6.59 10.71,14 15.64,21.42 4.96,6.59 9.9,14.01 14.85,21.42 19.77,28.84 40.37,58.49 60.14,88.14 2.46,2.48 4.11,5.77 6.59,8.25 0.81,0.83 0.81,0.83 0.81,1.64 1.65,2.47 3.3,4.95 4.95,7.42 8.24,12.36 17.3,24.71 25.54,37.07 9.89,14.83 19.78,29.66 29.66,43.66 42.02,62.62 83.21,124.41 125.22,186.19 7.42,11.54 14.84,22.25 23.06,32.96 0,0.82 0.85,1.64 1.65,2.47 1.64,3.3 3.28,5.76 5.78,8.24 5.78,9.06 12.35,18.12 18.13,28.01 4.93,6.59 9.86,14.01 14.79,21.42 3.34,4.12 6.63,9.06 9.92,14 5.77,7.42 10.71,14.84 16.48,23.07 1.65,2.47 3.29,4.95 4.94,7.41 0.85,1.65 2.49,3.31 3.28,4.13 6.58,9.88 13.21,18.95 19.78,28.01 1.64,2.47 3.29,4.94 4.93,7.41 8.27,11.54 16.49,23.89 24.71,35.43 8.27,11.53 17.34,23.06 25.55,34.6 0,0.82 0,0.82 0,0.82 1.65,1.65 3.29,4.12 4.14,5.77 l 2.44,2.47 c 2.49,3.29 4.98,6.59 7.42,10.71 1.65,1.65 2.49,4.12 4.14,5.77 3.28,4.12 5.78,7.41 8.22,11.53 4.13,5.77 9.06,11.54 13.2,17.3 12.35,16.48 24.71,32.96 37.06,49.43 11.56,14.83 22.27,29.66 33.77,44.49 6.63,9.07 14,18.13 20.63,26.36 4.93,5.77 9.06,12.36 14,18.13 5.77,6.59 11.5,14 17.28,21.42 5.78,7.41 11.56,14.83 18.13,21.41 5.78,7.42 11.56,14.84 17.29,22.25 36.27,43.66 73.33,86.5 111.24,128.52 6.57,6.59 13.2,14.01 19.77,21.42 11.51,12.36 23.92,25.54 36.22,37.9 5.77,6.59 11.55,12.36 17.33,18.95 l 46.13,46.13 c 5.78,5.77 12.36,11.54 18.13,17.3 4.14,4.12 8.22,8.25 12.36,11.53 4.93,4.95 9.86,9.89 14.84,14.01 5.78,5.77 12.36,11.53 18.93,18.13 0.85,0.82 2.49,1.64 3.29,3.3 6.57,5.76 13.2,11.52 19.78,17.29 7.42,6.59 14.84,13.19 22.26,19.77 6.58,5.77 13.15,12.36 20.58,18.13 0.85,0.83 2.49,2.47 3.28,3.3 7.43,5.77 14,11.53 20.63,17.3 6.57,5.76 14,11.53 20.57,16.48 1.64,1.64 3.29,2.46 4.14,4.11 7.42,5.77 13.99,10.71 21.42,16.48 7.42,6.59 15.64,12.36 23.06,18.95 8.22,5.76 16.49,12.35 23.86,18.12 4.13,3.3 8.27,5.77 12.41,9.07 4.08,2.47 8.21,5.77 11.5,9.06 4.14,2.47 7.42,4.94 11.56,8.23 12.35,9.07 24.71,18.13 37.86,26.37 4.13,3.3 7.42,5.77 11.56,8.24 4.13,3.29 9.06,6.59 13.2,9.06 4.08,3.3 8.21,5.77 13.15,8.24 8.21,5.76 16.49,11.54 24.7,17.3 9.07,4.94 17.34,10.71 26.36,16.48 6.62,4.11 14.05,9.06 21.42,13.18 2.49,1.65 4.98,3.29 7.42,4.12 0,0.82 0.85,0.82 0.85,0.82 7.42,4.12 14,9.06 21.42,13.18 9.06,5.76 18.93,10.71 27.99,16.47 4.93,2.48 9.07,4.95 14,7.42 4.98,3.3 9.91,5.77 14.85,8.24 4.13,2.48 8.21,4.94 12.35,6.6 50.26,28.01 102.97,54.36 157.36,78.25 3.29,1.66 6.58,3.3 9.87,4.12 7.42,3.3 14.84,6.6 22.26,9.89 7.43,3.29 14,6.6 21.42,9.06 2.44,0.82 4.94,1.65 6.58,3.31 5.78,1.64 10.71,4.11 15.64,5.76 7.42,3.29 14.85,6.58 22.27,9.06 6.57,2.47 12.35,4.95 18.13,7.41 3.29,0.83 5.78,1.65 9.07,3.3 9.06,3.29 17.28,6.59 26.35,9.06 30.49,11.53 62.62,22.24 94.75,32.96 9.86,3.29 18.93,5.76 28.84,9.06 12.35,3.29 23.86,7.41 36.21,10.71 8.28,2.47 16.49,4.12 23.92,6.59 3.28,0.8 5.77,1.6 9.06,2.5 9.86,2.4 20.57,5.7 31.28,8.2 10.72,3.3 22.27,5.8 33.78,8.2 10.71,3.3 22.27,5.8 33.77,8.3 10.77,2.5 22.27,4.9 32.98,7.4 0.8,0.8 1.65,0.8 2.49,0.8 10.71,2.5 23.07,5 34.57,7.4 308.16,62.6 668.96,82.4 1098.22,44.5 66.7,-5.7 131.81,-14.8 195.22,-26.3 598.97,-105.49 1033.95,-433.38 1449.16,-671.47 324.57,-185.37 636.87,-317.18 1006.77,-246.33 40.3,7.41 80.7,17.3 121.9,29.66 11.5,3.29 23.1,6.59 33.7,9.88 11.6,3.3 22.3,6.6 33.8,9.89 45.4,14.01 90.7,26.36 136,39.55 20.6,5.76 41.2,11.53 61.8,16.47 2.4,0.82 4.1,1.65 5.8,1.65 10.6,3.29 20.5,5.77 30.4,8.24 10.8,3.29 21.4,5.77 31.3,8.24 36.3,9.88 71.7,18.94 107.1,27.18 12.4,3.3 25.5,6.59 38.7,9.89 65.2,15.65 130.2,30.48 194.5,44.49 10.7,2.47 22.2,4.94 32.9,7.41 13.2,2.47 25.6,4.95 38,8.24 11.5,1.65 23,4.12 34.5,6.59 10.7,2.47 20.6,4.12 31.3,6.59 5.8,0.83 11.6,2.48 17.3,3.3 9.1,1.65 18.2,3.3 27.2,4.94 7.4,1.65 14,3.29 21.5,4.12 8.2,1.65 16.4,3.29 24.7,4.94 20.5,3.3 40.3,7.42 60.1,10.71 6.6,0.83 13.2,2.48 19.8,3.29 19.8,3.31 39.5,6.6 58.5,9.89 2.5,0 4.1,0.83 6.5,0.83 8.3,1.65 16.5,2.47 24.8,4.12 11.5,1.65 23.1,3.29 34.6,5.77 25.5,3.29 50.2,7.41 74.9,10.7 9.9,1.66 19.8,2.47 29.7,4.12 14.8,1.65 28.8,3.3 43.7,5.76 h 2.5 c 79,10.72 157.3,18.97 233.9,24.73 11.5,0.82 21.4,1.64 32.1,2.47 26.4,2.47 52.8,4.11 79.1,5.77 2.5,0.81 5.8,0.81 7.4,0.81 14,0.84 28,1.65 42.1,2.48 14.8,0.82 28.8,0.82 42.8,1.64 18.1,0.84 36.2,1.66 53.5,1.66 9.9,0.82 19.8,1.64 29.7,1.64 14,0 28,0.83 41.2,0.83 20.6,0.82 40.4,0.82 60.1,0.82 61,0 119.5,-0.82 178,-3.29 20.6,-0.82 40.4,-1.66 60.1,-2.48 26.4,-0.82 52.8,-2.46 78.3,-4.94 32.9,-2.47 65.1,-4.94 96.4,-8.24 28.8,-2.47 57.6,-5.77 85.7,-9.06 11.5,-0.82 22.2,-2.47 33.8,-4.12 11.5,-1.64 23,-3.29 34.5,-4.95 11.6,-1.64 23.1,-3.29 33.8,-4.93 47.8,-7.42 94.8,-15.66 141.7,-24.72 56.1,-10.71 111.2,-23.07 164.8,-36.25 24.7,-6.59 48.6,-12.36 72.5,-19.77 16.5,-4.12 32.9,-9.06 49.4,-14.01 37.1,-10.71 72.5,-22.24 108.8,-34.6 17.3,-5.77 33.7,-11.53 50.2,-17.3 51.9,-18.95 103,-39.54 153.2,-60.96 l 9.1,-4.13 c 9.1,-4.11 18.9,-8.23 28.1,-12.35 32,-14.83 64.2,-29.66 95.5,-45.31 12.4,-5.77 24.7,-12.36 37.1,-18.96 31.3,-16.47 60.9,-32.13 90.6,-49.42 23,-13.19 46.2,-26.36 68.4,-40.37 16.5,-9.88 33,-20.59 49.4,-31.3 25.5,-16.48 51.1,-33.78 76.6,-51.08 14.8,-10.71 30.5,-21.42 45.3,-32.96 27.2,-18.95 53.6,-39.54 79.9,-60.14 28,-22.24 56.1,-45.31 82.4,-68.38 27.2,-23.07 54.4,-46.96 79.9,-71.67 43.7,-40.37 85.7,-81.56 126.1,-125.23 14.8,-14.82 28,-29.66 42,-45.31 55.2,-60.96 108,-124.41 158.2,-190.3 10.7,-13.18 19.7,-25.54 28.8,-37.9 5.8,-8.25 11.6,-15.66 16.5,-23.9 17.3,-22.25 32.1,-43.67 46.1,-64.26 l 18.2,-25.54 c 531.3,-785.94 764.5,-1847.06 893.8,-2894.99 14.8,-115.34 22.3,-262.79 23.1,-432.51" /></g><g
         transform="scale(1.55794)"
         id="g22"><path
           id="path24"
           style="fill:#aec3ff;fill-opacity:1;fill-rule:nonzero;stroke:none"
           d="M 16300,11442.3 V 2232.75 H 5307.18 v 6851.8 c 8.98,6.98 17.96,13.97 26.94,21.95 0.98,0.99 2.98,2.99 3.98,3.99 6.99,4.98 13.97,10.97 19.95,16.96 1.99,0.99 2.98,1.99 4.98,2.98 2.99,3 6.99,6.99 10.98,9.97 2,2 3.98,3 5.98,4.99 2.99,3 5.98,4.99 8.97,7.98 2,2 3,2.99 4.99,4 1,1 2,1.99 2,1.99 1,1 1.99,1.99 1.99,1.99 4.99,3.99 9.98,8.98 14.96,12.97 6.99,5.98 12.97,11.96 19.95,17.95 1.99,2 4.98,3.99 6.98,6.98 5.99,4.99 11.98,10.97 18.95,16.96 0.99,0.99 2.99,2.99 4.98,4.98 2,1 3,2.99 5,4 6.99,6.98 13.96,12.96 19.94,19.94 1.99,1 2.99,1.99 3.99,2.99 3.99,3.99 6.99,6.98 10.97,10.97 2.99,2 4.99,3.99 6.98,6.98 1.99,1 3.99,3 4.98,4 2.01,2.99 4,3.98 6,5.98 2,2.99 4.99,4.98 6.97,6.98 1,1 3,2.99 4.99,4.99 1.99,1.99 2.99,3.98 4.99,4.99 2.99,2.99 5.98,5.98 8.98,8.97 6.98,6.98 12.96,12.96 19.95,19.94 11.96,12.97 24.93,25.93 37.89,38.91 0,0.99 1,1.99 2,1.99 5.98,6.98 11.97,12.97 17.96,19.95 l 4.98,4.98 c 8.97,9.97 18.95,20.95 27.93,30.92 0.98,1 1.98,2 2.98,2.99 0.99,2 2.99,2.99 3.99,4.99 9.99,10.97 19.95,20.95 28.93,31.91 1.99,2 2.99,3 3.99,4 l 1,1.99 c 10.96,11.97 20.94,23.94 31.91,35.9 1,1.01 2,2 2.98,2.99 1,2 2,2.99 3,4 10.98,12.96 21.94,25.92 31.92,37.9 10.97,13.95 21.94,26.93 32.91,39.89 10.97,12.97 21.95,26.93 32.91,39.89 0.99,1 1.99,1.99 1.99,2.99 7.99,9.98 15.97,19.95 23.94,30.92 6.98,7.98 13.98,16.96 19.95,24.93 3.98,4.99 7.98,8.98 10.97,13.97 12.97,15.96 24.94,32.92 37.9,48.87 30.91,40.89 60.84,82.78 91.76,124.67 1,1 2,2.99 4,4.98 6.97,9.98 12.95,18.95 19.94,28.93 3.99,4.99 7.98,9.97 10.97,14.96 8.97,11.96 16.96,22.94 24.93,34.91 2.98,3.98 5.98,7.97 7.98,11.97 5.98,7.98 12.96,16.95 18.94,25.93 5.99,7.95 11.98,16.95 17.96,25.95 23.94,34.9 48.88,70.8 72.82,106.7 2.98,3 4.97,7 7.97,10 0.99,1 0.99,1 0.99,2 1.99,3 3.99,6 5.99,8.9 9.98,15 20.93,30 30.92,44.9 11.97,18 23.94,35.9 35.9,52.9 50.87,75.8 100.74,150.6 151.59,225.4 8.99,13.9 17.97,26.9 27.92,39.9 0,1 1.03,2 1.99,3 1.99,4 3.98,6.9 7,9.9 7,11 14.96,22 21.95,34 5.97,7.9 11.94,16.9 17.91,25.9 4.05,5 8.02,11 12,16.9 7,9 12.97,18 19.96,28 1.99,3 3.99,6 5.97,8.9 1.03,2 3.02,4 3.99,5 7.95,12 15.98,23 23.94,33.9 1.99,3 3.97,6 5.97,9 10.01,14 19.96,28.9 29.91,42.9 10.01,14 20.99,27.9 30.94,41.9 0,1 0,1 0,1 1.99,2 3.97,5 5,7 l 2.95,3 c 3.02,3.9 6.04,7.9 8.99,12.9 1.99,2 3.02,5 5.01,7 3.98,5 6.99,9 9.95,14 5,6.9 10.97,13.9 15.98,20.9 14.95,20 29.91,39.9 44.87,59.9 13.99,17.9 26.95,35.9 40.88,53.8 8.03,11 16.95,22 24.97,31.9 5.97,7 10.98,15 16.95,22 6.99,7.9 13.93,16.9 20.92,25.9 7,9 13.99,18 21.95,25.9 7,9 14,18 20.93,27 43.9,52.8 88.77,104.7 134.66,155.5 7.96,8 15.99,17 23.95,26 13.92,14.9 28.94,30.9 43.84,45.9 6.99,7.9 13.99,14.9 20.98,22.9 l 55.85,55.9 c 6.99,6.9 14.95,13.9 21.95,20.9 5.01,5 9.95,10 14.95,14 5.97,5.9 11.94,11.9 17.98,16.9 6.99,7 14.95,14 22.91,22 1.03,0.9 3.02,1.9 3.98,3.9 7.96,7 15.98,14 23.94,21 8.99,8 17.98,15.9 26.96,23.9 7.96,7 15.92,15 24.91,22 1.02,1 3.01,3 3.98,4 8.98,6.9 16.94,13.9 24.96,20.9 7.96,7 16.95,14 24.91,20 1.99,1.9 3.98,2.9 5.01,4.9 8.98,7 16.94,13 25.93,20 8.98,8 18.93,14.9 27.92,22.9 9.95,7 19.96,15 28.88,22 5.01,4 10.02,6.9 15.02,10.9 4.95,3 9.95,7 13.93,11 5.01,3 8.99,6 13.99,10 14.96,10.9 29.92,21.9 45.83,31.9 5.01,4 8.99,7 14,10 5,4 10.97,7.9 15.98,10.9 4.94,4 9.95,7 15.92,10 9.95,7 19.96,14 29.91,21 10.98,5.9 20.99,12.9 31.9,19.9 8.02,5 17.01,11 25.93,16 3.02,2 6.04,3.9 8.99,4.9 0,1 1.02,1 1.02,1 8.99,5 16.95,11 25.94,16 10.97,7 22.91,13 33.89,19.9 5.97,3 10.97,6 16.94,9 6.04,4 12.01,7 17.98,10 5,3 9.94,6 14.95,8 60.85,33.9 124.65,65.8 190.51,94.7 3.98,2 7.96,4 11.94,5 8.98,4 17.97,8 26.96,12 8.98,4 16.94,8 25.93,10.9 2.95,1 5.97,2 7.96,4 6.99,2 12.96,5 18.93,7 8.99,4 17.97,8 26.96,11 7.96,3 14.95,6 21.95,9 3.98,1 7,2 10.98,4 10.97,3.9 20.92,7.9 31.9,10.9 36.91,14 75.8,27 114.7,39.9 11.94,4 22.92,7 34.92,11 14.95,4 28.88,9 43.84,13 10.01,2.9 19.96,4.9 28.95,7.9 3.98,1 6.99,2 10.97,3 11.94,3 24.91,7 37.87,10 12.97,4 26.96,7 40.89,10 12.97,4 26.96,7 40.89,10 13.03,2.9 26.96,5.9 39.92,8.9 0.97,1 1.99,1 3.02,1 12.96,3 27.92,6 41.85,9 373.06,75.8 809.85,99.7 1329.51,53.9 80.79,-7 159.59,-18 236.29,-32 725.2,-127.6 1251.8,-524.6 1754.4,-812.8 393,-224.4 771,-384 1218.8,-298.2 48.8,9 97.7,20.9 147.6,35.9 14,4 27.9,8 40.8,12 14,4 27,7.9 40.9,11.9 54.9,17 109.8,31.9 164.6,47.9 25,7 49.9,14 74.9,19.9 2.9,1 4.9,2 6.9,2 12.9,4 25,7 36.9,10 13,4 25.9,7 37.9,10 43.9,12 86.8,22.9 129.7,32.9 14.9,4 30.9,8 46.8,12 78.9,18.9 157.6,36.9 235.4,53.8 13,3 27,6 39.9,9 16,3 30.9,6 45.9,10 14,2 28,5 41.9,8 12.9,2.9 24.9,4.9 37.9,7.9 6.9,1 13.9,3 20.9,4 11,2 22,4 33,6 8.9,2 16.9,4 25.9,5 10,2 19.9,4 29.9,6 24.9,4 48.9,9 72.8,13 8,0.9 16,2.9 23.9,3.9 24,4 47.9,8 70.8,12 3.1,0 5,1 8,1 10,2 20,3 30,5 13.9,2 27.9,4 41.8,7 31,4 60.9,8.9 90.8,12.9 12,2 23.9,3 35.9,5 17.9,2 34.9,4 52.9,7 h 3 c 95.7,13 190.4,23 283.2,29.9 14,1 25.9,2 38.9,3 31.9,3 63.8,5 95.7,7 3,1 7,1 9,1 17,1 33.9,2 50.9,3 17.9,1 34.9,1 51.9,2 21.9,1 43.8,2 64.7,2 12.1,1 24,2 36,2 16.9,0 33.9,1 49.9,1 24.9,1 48.8,1 72.8,1 73.8,0 144.6,-1 215.4,-4 24.9,-1 48.9,-2 72.8,-3 31.9,-1 63.8,-3 94.8,-6 39.8,-3 78.7,-6 116.6,-10 34.9,-3 69.8,-7 103.8,-10.9 13.9,-1 26.9,-3 40.9,-5 13.9,-2 27.9,-4 41.8,-6 14,-2 27.9,-4 40.9,-6" /></g><g
         transform="scale(1.88605)"
         id="g26"><path
           id="path28"
           style="fill:#f99746;fill-opacity:1;fill-rule:nonzero;stroke:none"
           d="m 16300,4882.8 c -1.3,-797.43 -152,-2055.04 -476.3,-2890.22 -74.3,-191.46 -157.8,-360.7 -250.7,-497.18 -89.3,-131.12 -187.2,-231.86 -294.1,-292.94 -2.2,-1.22 -4.2,-2.44 -6.3,-3.55 -3.9,-2.17 -7.7,-4.24 -11.5,-6.26 -8.2,-4.29 -16.5,-8.37 -24.8,-12.19 l -952,-6.47 V 5333.74 C 12583.7,6114.48 12256,8690.27 12196,9445 c 304,40.95 585.3,55.35 845.5,45.77 147.7,-5.36 288.6,-18.45 423.2,-38.74 272.4,-41.07 518.4,-111.71 740.6,-207.88 90.5,-39.1 177.1,-82.48 259.9,-129.8 113.5,-64.86 219.9,-137.11 319.8,-216.14 224.9,-177.71 416.5,-389.38 580.2,-626.84 l 15.3,-22.26 2.3,-3.45 c 531.5,-785.97 765.1,-1846.95 894.5,-2894.72 14.5,-117.46 22.2,-266.77 22.6,-438.55 0.1,-9.76 0.1,-19.62 0.1,-29.59" /></g><g
         transform="scale(1.04135)"
         id="g30"><path
           id="path32"
           style="fill:#f99746;fill-opacity:1;fill-rule:nonzero;stroke:none"
           d="m 10075.3,16300 c -165.4,-883.8 -510.87,-2332.8 -1171.27,-3716.4 -52.38,-109.9 -106.81,-219.4 -163.19,-328 -231.2,-445.1 -496.78,-877.8 -801.38,-1276.8 -300.5,-393.8 -638.95,-754.5 -1019.87,-1061.51 V 2164.97 l -630.64,2.31 -2690.97,9.98 -33.63,0.1 c 0,0 -139.79,114.75 -342.97,336.29 -549.27,598.84 -1561.69,1977.91 -1527.74,3979.83 20.37,1197.38 211.9,3303.84 1656.22,4793.62 23.82,24.7 48.07,49.2 72.65,73.3 5.28,5.2 11.32,11.1 18.11,17.7 7.22,7.1 14.43,14.2 21.77,21.2 3.02,2.9 6.04,5.9 9.06,8.8 13.36,12.8 26.83,25.6 40.41,38.3 11.97,11.4 23.94,22.5 36.11,33.7 l 1.84,1.6 c 6.25,5.8 12.5,11.5 18.85,17.2 9.82,9.1 19.73,17.9 29.64,26.8 8.52,7.6 17.04,15.2 25.55,22.6 l 1.19,1.1 c 13.47,12.1 27.16,23.9 40.85,35.5 8.51,7.5 17.02,14.8 25.65,22.1 6.79,5.9 13.58,11.6 20.48,17.3 4.52,3.9 8.95,7.6 13.47,11.3 8.83,7.3 17.68,14.8 26.63,22 4.21,3.5 8.51,7.1 12.82,10.4 10.35,8.7 20.59,17 31.05,25.3 1.73,1.5 3.56,2.9 5.28,4.3 15.63,12.5 31.36,25 47.21,37.3 13.26,10.4 26.73,20.8 40.2,31 2.05,1.6 4.09,3.1 6.14,4.8 12.08,9.2 24.36,18.4 36.65,27.5 11.32,8.6 22.74,17 34.17,25.4 3.67,2.8 7.43,5.5 11.21,8.2 14.87,10.9 29.96,21.7 45.05,32.4 10.78,7.9 21.67,15.5 32.55,23.1 12.72,8.9 25.55,17.9 38.38,26.6 9.16,6.4 18.43,12.7 27.7,19 13.14,8.8 26.3,17.7 39.44,26.4 11,7.3 22.1,14.6 33.2,21.7 4.09,2.9 8.19,5.6 12.29,8 11.31,7.5 22.64,14.8 34.06,22 13.36,8.5 26.84,17 40.32,25.4 l 1.18,0.8 c 13.15,8.2 26.41,16.4 39.67,24.5 13.68,8.3 27.36,16.7 41.17,24.9 2.16,1.3 4.2,2.5 6.24,3.7 11.76,7 23.62,14.1 35.47,21 13.91,8.1 27.92,16.2 42.03,24.3 13.8,7.9 27.6,15.8 41.51,23.6 l 1.07,0.6 c 14.22,7.9 28.57,15.9 42.9,23.8 13.8,7.6 27.6,15.1 41.5,22.6 2.05,1.1 4.09,2.2 6.03,3.3 13.16,7 26.41,14 39.67,21 13.25,7 26.52,13.9 39.88,20.8 11.21,5.7 22.31,11.4 33.52,17 49.37,25 99.59,49.5 150.58,73.4 89.24,41.9 180.96,82 275.29,120.4 13.46,5.5 27.03,11 40.63,16.4 13.57,5.4 27.16,10.8 40.84,16 13.69,5.4 27.49,10.7 41.29,16 22.41,8.6 45.05,17 67.79,25.3 14.55,5.4 29.11,10.8 43.87,16 13.8,5 27.59,9.9 41.49,14.7 16.5,5.9 32.99,11.6 49.58,17.3 l 1.63,0.5 c 1.4,0.6 2.91,1 4.31,1.4 13.9,4.9 27.91,9.6 41.92,14.3 20.27,6.6 40.54,13.3 61.01,19.9 18,5.8 36.11,11.6 54.33,17.2 0.97,0.4 1.94,0.7 2.91,1 15.74,4.9 31.47,9.7 47.32,14.6 7.86,2.3 15.73,4.7 23.6,7.1 15.73,4.7 31.58,9.4 47.53,14 4.96,1.5 9.81,2.9 14.66,4.3 18.86,5.5 37.94,10.9 57.02,16.2 19.3,5.4 38.59,10.7 58.09,15.9 7.12,2 14.23,3.9 21.35,5.7 14.98,4.1 30.18,8.1 45.37,12 3.03,0.9 5.93,1.6 8.95,2.4 21.55,5.5 43.12,11 64.89,16.4 18.97,4.7 38.05,9.3 57.23,14 5.39,1.3 10.78,2.5 16.16,3.7 20.71,5 41.51,9.8 62.41,14.6 22.43,5.2 44.96,10.1 67.59,15.1 l 2.37,0.5 c 22.84,5 45.7,9.9 68.77,14.7 24.14,5 48.18,10.2 72,15.6 11.86,2.7 23.71,5.4 35.46,8.2 11.85,2.7 23.61,5.6 35.24,8.4 10.57,2.6 21.24,5.2 31.69,7.9 10.57,2.6 21.13,5.3 31.58,8.1 10.35,2.5 20.7,5.3 30.94,8 10.45,2.8 20.9,5.6 31.36,8.6 9.49,2.5 18.86,5.2 28.25,7.8 21.33,6.1 42.56,12.3 63.58,18.7 10.14,3 20.16,6 30.19,9.1 19.72,6.1 39.23,12.3 58.63,18.7 l 1.84,0.5 c 19.5,6.4 38.91,12.9 58.1,19.5 19.5,6.7 38.79,13.5 58.09,20.5 19.18,6.9 38.15,14 57.12,21.1 1.95,0.8 3.88,1.5 5.71,2.2 27.92,10.7 55.41,21.5 82.68,32.6 l 0.64,0.4 c 8.41,3.3 16.71,6.8 25.01,10.2 11.1,4.6 22.21,9.3 33.31,14 16.05,6.9 32.01,13.9 47.86,20.9 9.91,4.5 19.82,8.9 29.74,13.4 27.81,12.6 55.19,25.5 82.35,38.7 15.85,7.5 31.47,15.3 46.99,23.2 14.87,7.4 29.64,14.8 44.41,22.5 1.18,0.6 2.48,1.3 3.66,1.9 15.63,8.1 31.15,16.3 46.57,24.7 1.93,1 3.87,2.1 5.93,3.1 12.28,6.7 24.57,13.4 36.75,20.2 6.14,3.4 12.29,6.9 18.43,10.3 9.26,5.1 18.44,10.4 27.48,15.7 7.12,4 14.13,8.1 21.24,12.2 14.98,8.7 29.75,17.4 44.51,26.4 13.91,8.3 27.71,16.7 41.4,25.2 15.73,9.7 31.36,19.5 46.88,29.5 14.98,9.5 29.75,19.2 44.52,29 l 1.72,1.1 c 10.99,7.2 21.99,14.5 32.88,22.1 6.46,4.2 12.92,8.6 19.4,13.1 8.08,5.4 16.05,10.9 24.03,16.5 7.98,5.4 15.85,11 23.71,16.6 8.09,5.7 16.17,11.4 24.26,17.4 8.08,5.7 16.06,11.4 24.03,17.3 6.14,4.4 12.18,8.9 18.22,13.4 13.04,9.6 25.98,19.2 38.8,29.1 2.37,1.6 4.64,3.3 6.9,5.2 12.82,9.7 25.55,19.5 38.26,29.4 18.44,14.2 36.55,28.8 54.65,43.3 13.48,10.9 26.95,21.9 40.32,33 6.35,5.3 12.82,10.7 19.18,16 5.93,4.9 11.75,9.9 17.56,14.8 2.17,1.9 4.31,3.6 6.37,5.5 5.82,4.9 11.54,9.7 17.25,14.8 2.79,2.4 5.6,4.7 8.4,7.2 4.74,4.1 9.59,8.2 14.34,12.4 2.15,2 4.42,3.8 6.57,5.8 1.29,1.1 2.69,2.3 3.99,3.5 0.97,0.8 1.82,1.6 2.8,2.5 7.33,6.3 14.55,12.8 21.77,19.2 10.03,9 20.05,18.1 30.07,27.1 3.56,3.1 7.12,6.4 10.57,9.6 9.16,8.4 18.32,16.8 27.38,25.2 2.79,2.6 5.71,5.3 8.51,7.9 2.48,2.4 4.85,4.6 7.33,6.9 10.13,9.5 20.26,19.1 30.28,28.7 1.73,1.6 3.35,3.2 5.08,4.8 5.71,5.5 11.42,11 17.13,16.5 3.56,3.5 7.12,6.8 10.56,10.2 2.37,2.3 4.75,4.7 7.23,7.1 3.01,3 6.03,5.9 9.05,8.9 3.23,3.1 6.47,6.3 9.59,9.4 2.48,2.5 4.96,4.8 7.33,7.3 2.92,2.8 5.72,5.7 8.62,8.5 4.43,4.4 8.84,8.8 13.16,13.3 9.8,9.7 19.39,19.4 28.88,29.2 19.19,19.5 38.27,39.2 57.13,59.2 l 2.58,2.6 c 9.27,9.9 18.55,19.7 27.81,29.7 2.27,2.4 4.43,4.6 6.58,7 14.44,15.5 28.78,31 43,46.8 1.3,1.4 2.48,2.7 3.78,4.1 2.16,2.3 4.31,4.8 6.47,7.2 14.55,16.1 29.1,32.2 43.43,48.5 1.62,1.8 3.23,3.7 4.85,5.5 l 1.94,2.3 c 15.95,18.1 31.8,36.2 47.54,54.5 1.5,1.7 3.01,3.4 4.41,5.1 1.73,2 3.34,4 5.07,5.9 16.17,18.9 32.12,37.7 48.07,56.8 16.39,19.6 32.77,39.2 48.94,59.1 16.16,19.7 32.34,39.6 48.29,59.6 16.05,19.9 31.9,40 47.74,60.1 12.75,16.2 25.4,32.5 38.03,48.9 18.79,24.2 37.56,48.5 55.96,72.9 46.46,61.4 92.27,123.4 137.54,185.9 2.04,2.8 4.09,5.6 6.14,8.4 10.13,14.1 20.27,28.2 30.4,42.3 5.49,7.6 10.88,15.3 16.38,23 12.4,17.3 24.68,34.7 36.97,52.1 4.31,5.8 8.4,11.8 12.5,17.7 9.06,12.8 18.11,25.8 27.06,38.7 9.16,12.9 18.21,25.9 27.27,38.9 36.86,52.9 73.51,106.2 109.94,159.5 3.55,5.2 7.21,10.5 10.77,15.8 l 1.73,2.4 0.11,0.3 v 0.1 c 3.12,4.5 6.25,9 9.38,13.7 15.19,22.3 30.39,44.6 45.58,67 18.01,26.5 35.9,53 53.79,79.5 75.78,112.1 151.44,224.7 227.68,336.9 13.44,19.8 26.88,39.5 40.52,59.4 1.15,1.7 2.21,3.3 3.46,5 3.26,5 6.72,9.9 10.08,14.9 11.33,16.5 22.66,33 33.99,49.5 8.94,13 17.87,26 26.89,39 5.76,8.4 11.53,16.8 17.39,25.1 9.69,14.1 19.49,28.1 29.28,42.3 3.27,4.5 6.44,9.1 9.61,13.6 1.82,2.7 3.74,5.4 5.76,8.2 11.62,16.7 23.33,33.5 35.14,50.2 3.17,4.5 6.44,9 9.7,13.6 14.98,21.3 30.06,42.4 45.14,63.6 15.07,21.2 30.25,42.3 45.51,63.3 l 0.96,1.4 c 2.5,3.4 4.8,6.7 7.3,9.9 0.96,1.5 2.02,3 3.27,4.6 4.61,6.4 9.22,12.8 14.02,19.2 2.59,3.6 5.09,7.3 7.87,10.8 4.99,7 10.18,14 15.27,21 7.49,10.3 15.07,20.4 22.7,30.6 22.2,30.3 44.9,60.5 67.8,90.7" /></g><g
         transform="scale(1.83093)"
         id="g34"><path
           id="path36"
           style="fill:#ed7d2b;fill-opacity:1;fill-rule:nonzero;stroke:none"
           d="m 16300,2052.56 c -76.5,-197.22 -162.5,-371.56 -258.2,-512.14 -91.9,-135.07 -192.8,-238.84 -302.9,-301.76 -2.3,-1.26 -4.4,-2.51 -6.6,-3.66 l -625.7,577.3 v 3802.41 c -1118.4,860.82 -1546.2,3243.98 -1672.5,4161.76 152.1,-5.52 297.3,-19 435.9,-39.91 280.7,-42.3 534,-115.07 762.9,-214.13 l 267.8,-133.71 C 14407,7922.59 15589.5,5666.2 15589.5,5666.2 l 295.4,-1502.58 v -0.17 L 16300,2052.56" /></g><g
         transform="scale(1.88605)"
         id="g38"><path
           id="path40"
           style="fill:#ed7d2b;fill-opacity:1;fill-rule:nonzero;stroke:none"
           d="m 16300,4882.8 c -1.3,-797.43 -152,-2055.04 -476.3,-2890.22 -74.3,-191.46 -157.8,-360.7 -250.7,-497.18 -112.4,68.19 -190.2,117.6 -190.2,117.6 l 37.9,2428.78 v 0.16 l -481.8,1593.45 c -599.9,1011.23 -761.8,2710.55 -473.7,3478.96 422.2,-205.03 736.3,-605.52 900,-842.98 l 15.3,-22.26 2.3,-3.45 c 531.5,-785.97 765.1,-1846.95 894.5,-2894.72 14.5,-117.46 22.2,-266.77 22.6,-438.55 0.1,-9.76 0.1,-19.62 0.1,-29.59" /></g><g
         transform="scale(1.16956)"
         id="g42"><path
           id="path44"
           style="fill:#c6d5ff;fill-opacity:1;fill-rule:nonzero;stroke:none"
           d="M 14672.8,5067.96 H 8952.15 l 59.77,498.22 112.95,925.99 1119.93,9230.73 c 0,1.4 1.3,1.4 1.3,1.4 12,6.6 22.6,14.6 34.6,21.2 14.6,9.3 30.5,17.3 45.1,26.6 8,4 14.6,8 22.6,11.9 8,5.4 16,9.4 23.9,13.3 6.7,4 13.3,8 20,10.7 81,45.1 166,87.6 253.7,126.2 5.3,2.6 10.6,5.3 15.9,6.6 12,5.3 24,10.7 35.9,16 12,5.3 22.6,10.6 34.6,14.6 3.9,1.3 7.9,2.6 10.6,5.3 9.3,2.7 17.3,6.6 25.2,9.3 12,5.3 24,10.6 35.9,14.6 10.6,4 19.9,8 29.3,12 5.3,1.3 9.3,2.6 14.6,5.3 14.6,5.3 27.9,10.6 42.5,14.6 49.1,18.6 101,35.9 152.8,53.1 15.9,5.4 30.5,9.3 46.5,14.7 19.9,5.3 38.5,11.9 58.4,17.2 13.3,4 26.6,6.7 38.5,10.6 5.3,1.4 9.4,2.7 14.7,4 15.9,4 33.1,9.3 50.4,13.3 17.3,5.3 35.9,9.3 54.5,13.3 17.3,5.3 35.9,9.3 54.4,13.3 17.4,4 36,8 53.2,12 1.3,1.3 2.7,1.3 4,1.3 17.3,4 37.2,8 55.8,11.9 326.1,66.3 688.8,102.8 1095.3,102.8 212.9,0 437.7,-10 675.7,-31 107.6,-9.3 212.6,-23.9 314.8,-42.5 l 1171.8,-9948.25 18.6,-164.68 11.9,-102.35 13.4,-104.91 -21.3,-166.13 -19.9,-174 -54.5,-447.77 -6.7,-50.45" /></g><path
         id="path46"
         style="fill:#ed7d2b;fill-opacity:1;fill-rule:nonzero;stroke:none"
         d="m 9671.15,15793.8 c -428.43,-1268.2 -912.99,-2209.2 -1403.37,-2916.4 -4.04,-5.7 -7.97,-11.4 -11.9,-17.1 -18.74,-26.9 -37.49,-53.5 -56.23,-79.6 C 6989.68,11090.1 5759.5,10794.4 5267.54,10492.4 l -1520.77,-8225.1 -35.02,0.1 c 0,0 -145.58,119.5 -357.16,350.2 -571.98,623.6 -1626.27,2059.7 -1590.92,4144.4 21.22,1246.9 220.67,3440.5 1724.72,4991.9 24.8,25.7 50.06,51.2 75.65,76.3 5.5,5.4 11.79,11.6 18.86,18.4 1.68,1.7 3.48,3.4 5.27,5.1 39.74,38.1 102.59,96.7 185.54,172.2 l 1.23,1.1 c 14.03,12.6 28.29,24.9 42.54,37 8.87,7.8 17.73,15.4 26.71,23 7.08,6.1 14.15,12 21.33,18 4.71,4 9.32,7.9 14.03,11.8 9.2,7.6 18.41,15.3 27.73,22.9 4.38,3.7 8.86,7.4 13.35,10.9 10.78,8.9 21.44,17.6 32.33,26.2 1.8,1.6 3.71,3.1 5.5,4.5 16.28,13 32.66,26 49.16,38.8 13.81,10.9 27.84,21.7 41.87,32.4 2.13,1.7 4.26,3.2 6.39,4.9 12.58,9.7 25.37,19.2 38.17,28.7 11.78,8.9 23.68,17.7 35.58,26.4 3.82,2.9 7.74,5.7 11.67,8.6 15.49,11.3 31.2,22.6 46.92,33.7 11.22,8.2 22.56,16.2 33.89,24.1 13.25,9.3 26.61,18.6 39.97,27.7 9.54,6.6 19.19,13.2 28.84,19.7 13.69,9.2 27.39,18.4 41.08,27.5 11.45,7.7 23.01,15.3 34.57,22.7 4.26,2.9 8.53,5.7 12.8,8.3 11.78,7.8 23.57,15.4 35.47,22.9 13.91,8.9 27.94,17.7 41.98,26.5 l 1.23,0.8 c 13.69,8.5 27.5,17 41.31,25.5 14.25,8.6 28.5,17.4 42.87,25.9 2.25,1.3 4.38,2.6 6.51,3.9 12.24,7.3 24.59,14.6 36.93,21.8 14.48,8.5 29.07,16.9 43.77,25.4 14.37,8.2 28.74,16.4 43.22,24.5 l 1.12,0.6 c 14.81,8.3 29.75,16.6 44.67,24.8 14.37,8 28.74,15.7 43.22,23.6 2.13,1.1 4.26,2.2 6.28,3.4 13.7,7.2 27.5,14.5 41.31,21.8 13.8,7.3 27.61,14.5 41.53,21.7 11.67,5.9 23.23,11.9 34.9,17.7 51.41,26.2 103.6,51.7 156.81,76.5 92.93,43.6 188.45,85.4 286.67,125.3 14.02,5.8 28.16,11.5 42.31,17.1 14.14,5.6 28.29,11.2 42.54,16.7 14.25,5.6 28.62,11.1 42.99,16.6 23.34,9 46.92,17.8 70.6,26.4 15.15,5.6 30.31,11.2 45.68,16.6 14.37,5.3 28.73,10.4 43.21,15.4 17.18,6.1 34.35,12 51.63,18 l 1.69,0.5 c 1.46,0.6 3.03,1 4.49,1.5 14.48,5 29.07,10 43.66,14.8 21.1,7 42.21,13.9 63.53,20.8 18.74,6 37.6,12.1 56.57,17.9 1.01,0.4 2.02,0.7 3.03,1 16.39,5.1 32.78,10.1 49.28,15.2 8.19,2.5 16.38,4.9 24.58,7.4 16.38,4.9 32.88,9.8 49.49,14.6 5.17,1.6 10.22,3 15.27,4.5 19.64,5.7 39.51,11.3 59.38,16.8 20.09,5.6 40.18,11.2 60.49,16.6 7.41,2 14.82,4.1 22.23,6 15.6,4.2 31.43,8.4 47.25,12.4 3.15,0.9 6.17,1.7 9.32,2.5 22.44,5.7 44.9,11.5 67.57,17.1 19.75,4.9 39.62,9.7 59.6,14.6 5.61,1.3 11.22,2.6 16.83,3.9 21.56,5.1 43.22,10.2 64.99,15.1 23.35,5.4 46.81,10.6 70.38,15.8 l 2.47,0.5 c 23.79,5.2 47.59,10.3 71.61,15.3 25.14,5.3 50.17,10.6 74.98,16.3 12.35,2.8 24.69,5.6 36.93,8.5 12.34,2.8 24.58,5.8 36.7,8.7 11,2.7 22.11,5.4 33,8.2 11,2.7 22,5.5 32.88,8.5 10.78,2.6 21.56,5.6 32.22,8.4 10.88,2.9 21.77,5.8 32.66,8.8 9.88,2.7 19.64,5.5 29.41,8.2 22.22,6.3 44.33,12.8 66.22,19.4 10.55,3.2 20.99,6.3 31.43,9.6 20.54,6.3 40.86,12.8 61.06,19.4 l 1.91,0.6 c 20.31,6.6 40.52,13.4 60.5,20.3 20.31,6.9 40.4,14 60.5,21.3 19.97,7.2 39.73,14.6 59.48,22 2.03,0.8 4.04,1.6 5.95,2.2 29.07,11.2 57.7,22.5 86.09,34.1 l 0.67,0.3 c 8.76,3.5 17.4,7.1 26.05,10.7 11.56,4.8 23.12,9.6 34.68,14.6 16.72,7.1 33.34,14.4 49.84,21.7 10.32,4.6 20.64,9.2 30.97,13.9 28.96,13.2 57.47,26.7 85.76,40.3 16.5,7.9 32.77,16 48.93,24.2 15.49,7.6 30.98,15.5 46.25,23.4 1.23,0.7 2.58,1.4 3.81,2.1 16.28,8.4 32.44,16.9 48.49,25.7 2.02,1 4.04,2.1 6.18,3.2 12.79,7 25.59,13.9 38.27,21 6.4,3.6 12.8,7.2 19.19,10.8 9.65,5.2 19.2,10.8 28.62,16.3 7.41,4.1 14.71,8.4 22.12,12.6 15.6,9.1 30.98,18.2 46.35,27.5 14.48,8.7 28.85,17.4 43.11,26.3 16.38,10.1 32.66,20.3 48.82,30.8 15.6,9.8 30.98,19.9 46.36,30.1 l 1.79,1.2 c 11.45,7.5 22.9,15.1 34.24,23 6.73,4.4 13.46,9 20.2,13.7 8.42,5.6 16.72,11.3 25.03,17.1 8.31,5.7 16.5,11.5 24.69,17.3 8.42,6 16.84,11.9 25.26,18.1 8.42,6 16.72,11.9 25.03,18.1 6.39,4.6 12.68,9.2 18.97,13.9 13.58,10 27.05,20 40.4,30.3 2.47,1.7 4.83,3.5 7.19,5.4 13.35,10.1 26.6,20.3 39.84,30.6 19.2,14.8 38.06,30 56.91,45.1 14.14,11.4 28.06,22.9 41.98,34.4 2.47,2 4.94,4.1 7.41,6.3 10.32,8.4 20.65,17 30.86,25.8 2.25,1.9 4.49,3.7 6.63,5.7 6.06,5.1 12.01,10.1 17.96,15.4 2.91,2.5 5.83,4.9 8.75,7.5 4.94,4.3 9.99,8.5 14.93,12.9 2.24,2 4.6,4 6.84,6.1 1.35,1.1 2.81,2.3 4.16,3.6 1.01,0.9 1.9,1.7 2.91,2.6 7.64,6.6 15.16,13.3 22.68,20 10.44,9.4 20.87,18.8 31.31,28.2 3.71,3.3 7.41,6.6 11.01,10 9.54,8.8 19.08,17.5 28.51,26.3 2.91,2.7 5.94,5.5 8.86,8.2 2.58,2.4 5.05,4.8 7.63,7.1 10.55,9.9 21.1,19.9 31.54,29.9 1.8,1.7 3.48,3.4 5.28,5.1 5.95,5.7 11.9,11.4 17.84,17.1 3.71,3.6 7.42,7.1 11,10.7 2.47,2.4 4.95,4.8 7.53,7.3 3.14,3.1 6.28,6.2 9.42,9.3 3.37,3.3 6.74,6.5 9.99,9.8 2.59,2.6 5.17,5 7.63,7.6 3.04,2.9 5.96,6 8.98,8.9 4.61,4.6 9.21,9.2 13.7,13.8 10.21,10.1 20.2,20.2 30.08,30.4 19.98,20.3 39.85,40.9 59.49,61.6 l 2.69,2.8 c 9.65,10.2 19.31,20.5 28.96,30.9 2.36,2.5 4.61,4.8 6.85,7.3 15.04,16.2 29.97,32.3 44.78,48.7 1.35,1.5 2.58,2.8 3.93,4.3 2.25,2.4 4.49,5 6.74,7.5 15.15,16.7 30.3,33.5 45.23,50.5 1.68,1.9 3.36,3.8 5.05,5.7 l 2.02,2.4 c 16.61,18.8 33.11,37.7 49.5,56.8 1.57,1.8 3.14,3.6 4.6,5.2 1.8,2.2 3.48,4.2 5.28,6.2 16.83,19.7 33.44,39.3 50.06,59.2 17.06,20.4 34.12,40.8 50.96,61.5 16.83,20.5 33.67,41.3 50.28,62 16.72,20.8 33.22,41.7 49.72,62.7 13.28,16.9 26.45,33.9 39.6,50.8 19.57,25.3 39.11,50.5 58.28,76 48.38,64 96.08,128.5 143.22,193.6 2.13,2.9 4.26,5.9 6.4,8.8 10.55,14.6 21.1,29.3 31.65,44 5.72,8 11.33,15.9 17.06,23.9 12.91,18.1 25.7,36.1 38.5,54.3 4.49,6.1 8.75,12.3 13.02,18.4 9.43,13.4 18.86,26.9 28.17,40.3 9.55,13.5 18.97,27 28.4,40.5 38.39,55.2 76.55,110.6 114.49,166.2 3.7,5.3 7.51,10.9 11.22,16.4 l 1.8,2.5" /><path
         id="path48"
         style="fill:#f99746;fill-opacity:1;fill-rule:nonzero;stroke:none"
         d="m 3488.39,7146.4 c 113.7,195.2 1129.08,3329 1196.41,3228.1 67.35,-100.9 -505.06,-3213.9 -505.06,-3213.9 l -691.35,-14.2" /><g
         transform="scale(1.47768)"
         id="g50"><path
           id="path52"
           style="fill:#c6d5ff;fill-opacity:1;fill-rule:nonzero;stroke:none"
           d="m 16300,4011.22 h -4686.7 158.9 l -22.2,191.38 -24.1,202.95 -5.3,43.11 -26.3,225.01 v 1.09 l 17.9,150.37 1.1,7.31 36.7,307.03 63.2,518.45 51.5,422.69 290.2,2388.03 22.1,184.02 404.8,3333.34 c 336.5,-192.2 662.7,-339.2 1026.2,-339.2 84.1,0 170.1,7.8 258.8,24.8 51.5,9.5 103.1,22.1 155.6,37.9 14.7,4.2 29.5,8.4 43.1,12.6 14.7,4.2 28.4,8.4 43.1,12.6 57.9,17.9 115.7,33.6 173.5,50.5 26.3,7.3 52.6,14.7 78.9,21 3.1,1 5.2,2.1 7.4,2.1 13.6,4.2 26.3,7.4 38.8,10.5 13.8,4.2 27.4,7.4 40,10.5 46.3,12.6 91.5,24.2 136.7,34.7 15.8,4.2 32.6,8.4 49.4,12.7 83.1,19.9 166.2,38.9 248.2,56.7 13.7,3.2 28.4,6.3 42.1,9.5 16.8,3.1 32.5,6.3 48.4,10.5 14.7,2.1 29.4,5.3 44.1,8.4 13.7,3.2 26.3,5.3 39.9,8.4 7.4,1.1 14.8,3.2 22.2,4.2 11.5,2.1 23.1,4.2 34.7,6.4 9.4,2.1 17.8,4.1 27.3,5.2 10.5,2.1 21,4.2 31.5,6.3 26.3,4.2 51.5,9.5 76.8,13.7 8.4,1 16.8,3.1 25.2,4.2 25.3,4.2 50.5,8.4 74.7,12.6 3.2,0 5.3,1.1 8.4,1.1 l 896.9,-7618.35 1.1,-6.29 45.2,-388.04" /></g><g
         transform="scale(1.06721)"
         id="g54"><path
           id="path56"
           style="fill:#d7e2ff;fill-opacity:1;fill-rule:nonzero;stroke:none"
           d="m 16300,5554.02 h -219.9 l 7.3,55.29 59.7,490.72 21.8,190.68 23.3,182.06 v -1.5 l 36.4,-311.56 7.3,-59.68 33.5,-281.02 30.6,-264.99" /></g><g
         transform="scale(1.09093)"
         id="g58"><path
           id="path60"
           style="fill:#ffb27d;fill-opacity:1;fill-rule:nonzero;stroke:none"
           d="m 16240.4,11677.3 c 0,0 -96.3,73.3 -139.7,87 -43.3,13.8 -127.3,78.7 -138.2,51.9 -10.9,-26.7 56.4,-68 52.8,-98.6 -3.5,-30.6 -214.1,-79.7 -212.8,-112.1 1.3,-32.3 49.5,-110.6 129.8,-101.6 80.4,9 284,57.3 325.9,36.5 41.8,-20.9 -17.8,136.9 -17.8,136.9" /></g><g
         transform="scale(1.25591)"
         id="g62"><path
           id="path64"
           style="fill:#22407a;fill-opacity:1;fill-rule:nonzero;stroke:none"
           d="m 15979.4,10535.4 c -103.2,-138.7 -224.2,-248.3 -348.3,-334.6 -394.9,-274.71 -823.2,-315.62 -823.2,-315.62 -170.9,-6.87 -417.9,67.17 -604.2,97.18 h -0.1 c -81.2,13.05 -117,22.84 -117,22.84 0,0 -31,28.6 -22,107.1 2,17 24.3,44.6 24.3,44.6 0,0 661.5,60.1 774.8,112.7 178.6,153.8 336.3,353.6 439.1,509.6 86.8,131.8 138.9,213.2 164.9,223.1 229.8,87.8 832.3,-36.2 511.7,-466.9" /></g><g
         transform="scale(1.23506)"
         id="g66"><path
           id="path68"
           style="fill:#233862;fill-opacity:1;fill-rule:nonzero;stroke:none"
           d="m 15476.4,5247.05 h 768.5 c 55.1,37.33 -14.9,402.42 -14.9,402.42 0,0 -209.7,79.58 -245.9,-82.27 -36.3,-161.69 -267.2,-213.19 -389.3,-232.86 -83.6,-13.6 -110,-59.52 -118.4,-87.29" /></g><g
         transform="scale(1.32141)"
         id="g70"><path
           id="path72"
           style="fill:#233862;fill-opacity:1;fill-rule:nonzero;stroke:none"
           d="m 15530.3,4904.15 h 718.2 c 51.5,34.89 -13.8,376.12 -13.8,376.12 0,0 -196.1,74.38 -229.9,-76.89 -34,-151.13 -249.7,-199.26 -363.9,-217.65 -78.1,-12.71 -102.8,-55.62 -110.6,-81.58" /></g><g
         transform="scale(1.26145)"
         id="g74"><path
           id="path76"
           style="fill:#233862;fill-opacity:1;fill-rule:nonzero;stroke:none"
           d="m 15355.1,8783.61 c 0,0 33.8,-421.94 73.5,-929.14 54,-688.97 199.8,-2397.25 199.8,-2397.25 0,0 95.5,-81.49 307.1,-36.94 0,0 180.1,589.32 233.9,1261.96 0.9,11.02 1.7,22.12 2.6,33.22 50.1,684.77 128,2126.61 128,2126.61 l -944.9,-58.46" /></g><g
         transform="scale(1.32649)"
         id="g78"><path
           id="path80"
           style="fill:#2b478b;fill-opacity:1;fill-rule:nonzero;stroke:none"
           d="m 14796.5,8491.57 c 0,0 511,-1271.92 674.3,-1754.02 116.3,-343.39 444.5,-1548.14 444.5,-1548.14 0,0 142.7,-43.43 262.6,40.48 0,0 122.1,1230.84 -124.5,1577.92 -130.8,184.17 -32.5,1914.1 -563,1928.91 -530.5,14.81 -693.9,-245.15 -693.9,-245.15" /></g><g
         transform="scale(1.25766)"
         id="g82"><path
           id="path84"
           style="fill:#ffb27d;fill-opacity:1;fill-rule:nonzero;stroke:none"
           d="m 15847.1,10933.9 c 82.2,-43.3 162.5,-46 232.2,-31.2 63.7,13.4 118.3,41.5 157.2,66.4 40,25.5 63.5,47.8 63.5,47.8 0,0 -2.8,4 -7.5,11.9 -24.2,41.6 -97.9,191 -65.2,431.2 0.5,3.2 -23.4,-1.3 -59.3,-9.8 -106.9,-25.3 -321.9,-86.3 -331.4,-89 h -0.4 c 0,0 -2.6,-50.5 -11.4,-141.1 -0.8,-7.9 -1.6,-16.3 -2.4,-24.9 -1.1,-10.6 -2.3,-21.9 -3.6,-33.5 -10,-94.1 28.3,-227.8 28.3,-227.8" /></g><g
         transform="scale(1.25169)"
         id="g86"><path
           id="path88"
           style="fill:#ed975d;fill-opacity:1;fill-rule:nonzero;stroke:none"
           d="m 15900.2,11273.6 c 160.4,-36.7 399.8,200.1 399.8,200.1 -17.5,13 -35.9,23.3 -54.9,31.1 -107.4,-25.4 -323.4,-86.7 -333,-89.4 h -0.4 c 0,0 -2.6,-50.8 -11.5,-141.8" /></g><g
         transform="scale(1.26905)"
         id="g90"><path
           id="path92"
           style="fill:#ffb27d;fill-opacity:1;fill-rule:nonzero;stroke:none"
           d="m 15628.9,11271.8 c 0,0 65.1,-23.3 148,-34.5 121.3,-16.3 280.8,-6.7 330.9,140.1 84.4,247 192.2,395.1 -56.2,495.9 -132.9,54 -217.9,56.9 -275.7,36.3 -50.2,-17.8 -79.7,-53.3 -102.2,-88.5 -48.2,-75.6 -145.2,-506 -44.8,-549.3" /></g><g
         transform="scale(1.27928)"
         id="g94"><path
           id="path96"
           style="fill:#163560;fill-opacity:1;fill-rule:nonzero;stroke:none"
           d="m 15354.5,11707.3 c 142.6,-102.5 340,-1.8 401.3,-29 61.3,-27.3 72.3,-130 73.4,-162.6 1.1,-32.7 5.4,-60.3 88.6,-40.7 13.6,3.2 23.5,2.2 30.2,-1.8 34.6,-20.5 -9.6,-119.8 -22.9,-141.3 0,0 -19.1,-71 23.4,-105.7 5.1,-4.1 88.5,-40.6 289.7,267.2 31.6,48.3 61.8,157.2 12.9,262 -48.7,104.8 -252.5,206.1 -425.4,259.7 -64.8,20.2 -112.8,19.4 -150.3,5.7 -62.7,-22.9 -96.1,-82.2 -129.3,-141.7 -55.6,-99.9 -191.6,-171.8 -191.6,-171.8" /></g><g
         transform="scale(1.28945)"
         id="g98"><path
           id="path100"
           style="fill:#e9f3fe;fill-opacity:1;fill-rule:nonzero;stroke:none"
           d="m 16289,8791.6 c 11,-84.61 -71,-130.49 -145.2,-147.61 0,0 -68.5,-14.73 -155,-29.38 -84.7,-14.3 -186.9,-28.24 -259,-27.8 -369.1,2.91 -677.9,111.61 -677.9,111.61 -69.5,0 -101.2,107.47 -112.6,257.39 -7.6,101.55 -5.9,222.6 -0.5,343.04 1.8,39 4.1,78 6.4,116.2 4.9,75.8 10.6,148.59 15.8,212.91 4.8,60.44 9.2,113.38 11.8,154.4 0,0.09 54.5,342.04 58.4,594.84 2.7,181.3 40.2,291.7 65.7,318.6 73.9,78.1 287.9,127.6 330.8,134.4 3.2,0.5 5,0.7 5,0.7 176,-98.8 413.1,34.8 413.1,34.8 5.3,-1 10.5,-2.2 15.8,-3.4 5,1.1 32,-0.6 70,-6 93.2,-13.4 253.2,-48.8 320.4,-118.6 33.9,-35.1 40.9,-144.8 37.5,-260.7 -4.7,-161.4 -29.4,-334.6 -29.4,-334.6 5.3,-130.2 6.9,-284.59 7.6,-443.41 1,-258.52 -0.4,-528.61 7.8,-724.57 2.9,-72.53 7.3,-134.91 13.5,-182.82" /></g><g
         transform="scale(1.33946)"
         id="g102"><path
           id="path104"
           style="fill:#ffb27d;fill-opacity:1;fill-rule:nonzero;stroke:none"
           d="m 16166.3,8222.98 c 0,0 122.2,-191.89 129.1,-265.34 4.6,-49.93 -6.6,-246.79 -31.5,-247.47 -35.2,-0.97 -70.4,121.49 -84,153.27 -13.6,31.78 -29.5,56.75 -43.1,56.75 -13.7,0 29.5,-122.58 0,-108.96 -29.6,13.62 -79.5,127.04 -84,154.32 -4.5,27.28 26.6,114.54 11.4,148.89 -15.2,34.35 102.1,108.54 102.1,108.54" /></g><g
         transform="scale(1.23072)"
         id="g106"><path
           id="path108"
           style="fill:#22407a;fill-opacity:1;fill-rule:nonzero;stroke:none"
           d="m 16016.9,9426.59 c 5.3,-63.63 29.7,-123.14 68.3,-166.87 l 61,-68.75 c 15.3,-17.26 39,-15.17 51.6,4.47 l 73.4,115.28 c 19.8,30.91 28.8,70.21 25.3,109.72 -7.8,87.98 -22.4,257.49 -34.4,421.07 -9.8,132.54 -17.8,261.29 -19.1,339.59 -4,249.9 28.7,1046.4 28.7,1046.4 l -48.8,-2.6 c 0,0 -118.4,-307.9 -177.9,-728.1 -14.7,-103.4 -25.7,-213.5 -30.6,-327.7 0,0 -21.1,-454.85 2.5,-742.51" /></g><g
         transform="scale(1.25739)"
         id="g110"><path
           id="path112"
           style="fill:#d9e9f9;fill-opacity:1;fill-rule:nonzero;stroke:none"
           d="m 16299.7,11130.1 c 0.3,20.8 -81.8,46.4 -81.8,46.4 0,0 -112.4,-155.8 -297.5,-158.5 0,0 52.7,-102.7 114.9,-129.3 0,0 261.8,90.3 264.4,241.4" /></g><g
         transform="scale(1.22811)"
         id="g114"><path
           id="path116"
           style="fill:#d9e9f9;fill-opacity:1;fill-rule:nonzero;stroke:none"
           d="m 16300,11284.4 c 0,0 -100.5,59.6 -100.8,124.1 0,0 -57.9,-9.3 -86.2,-40.7 0,0 -30.8,-93.3 0.8,-157.5 0,0 144.6,22 186.2,74.1" /></g><g
         transform="scale(1.23567)"
         id="g118"><path
           id="path120"
           style="fill:#233862;fill-opacity:1;fill-rule:nonzero;stroke:none"
           d="m 16268,11224.9 -135.4,32.4 c 0,0 -17.7,-1.5 -17.2,-23.6 0.5,-22 38.1,-86.5 54.8,-91.6 16.7,-5.2 129.8,38.1 97.8,82.8" /></g><g
         transform="scale(1.25744)"
         id="g122"><path
           id="path124"
           style="fill:#e9f3fe;fill-opacity:1;fill-rule:nonzero;stroke:none"
           d="m 16299,11137.4 c 1,20.7 -65.4,63.4 -65.4,63.4 0,0 -128.7,-150.3 -313.8,-153 0,0 52.7,-102.7 114.9,-129.3 0,0 258.1,95.8 264.3,218.9" /></g><g
         transform="scale(1.22811)"
         id="g126"><path
           id="path128"
           style="fill:#e9f3fe;fill-opacity:1;fill-rule:nonzero;stroke:none"
           d="m 16300,11311.7 c 0,0 -101.6,53.8 -101.9,118.4 0,0 -61.4,-27 -89.7,-58.5 0,0 -26.2,-69.8 5.4,-134.1 0,0 144.6,22.1 186.2,74.2" /></g><g
         transform="scale(1.29907)"
         id="g130"><path
           id="path132"
           style="fill:#22407a;fill-opacity:1;fill-rule:nonzero;stroke:none"
           d="m 16300,8405.12 c 0,0 -145.4,-93.38 -404,-103.29 -101.4,-3.89 -403.9,22.46 -403.9,22.46 l 5.1,780.51 223.8,1600.5 114.3,5.1 c -7.5,22.7 -14.8,45 -21.6,65.6 92.5,-13.3 251.3,-48.5 318,-117.7 29,-30.1 38.1,-115.3 38,-212 l 61.7,-967.18 42.2,-660.71 26.4,-413.29" /></g><g
         transform="scale(1.21111)"
         id="g134"><path
           id="path136"
           style="fill:#22407a;fill-opacity:1;fill-rule:nonzero;stroke:none"
           d="m 16206.1,9878.46 v -884.14 l -337.3,46.97 c 0,0 -21.2,1354.11 -21.7,1676.81 -0.6,322.7 192.7,691.2 192.7,691.2 0,0 93.2,63.5 260.2,120.6 l -93.9,-1651.44" /></g><g
         transform="scale(1.29726)"
         id="g138"><path
           id="path140"
           style="fill:#233862;fill-opacity:1;fill-rule:nonzero;stroke:none"
           d="m 16300,8772.16 c 0,0 -356.5,1028.1 -358.9,1080.72 l 230.4,-93.58 82.6,-266.96 45.9,-720.18" /></g><g
         transform="scale(1.21577)"
         id="g142"><path
           id="path144"
           style="fill:#233862;fill-opacity:1;fill-rule:nonzero;stroke:none"
           d="m 16300,11508.3 c 0,0 -118.2,-514.8 -127.5,-1167.8 -2.2,-150.1 -22.7,-454.9 -28.4,-543.48 0,0 -153.8,737.68 -156.9,951.28 0,0 99.3,72.7 99.3,97.2 0,24.5 -108.1,87.8 -108.1,87.8 0,0 81.4,418 127.6,470.6 56.1,63.9 194,104.4 194,104.4" /></g><g
         transform="scale(1.33369)"
         id="g146"><path
           id="path148"
           style="fill:#22407a;fill-opacity:1;fill-rule:nonzero;stroke:none"
           d="m 15680.1,10408.4 c 0,0 175.3,-78.4 314.4,-658.41 104.9,-437.31 305.5,-1553.89 305.5,-1553.89 l -169.8,-69.82 c 0,0 -621.5,1427.1 -710.5,1627.79 -88.8,200.69 260.4,654.33 260.4,654.33" /></g><g
         transform="scale(1.26869)"
         id="g150"><path
           id="path152"
           style="fill:#233862;fill-opacity:1;fill-rule:nonzero;stroke:none"
           d="m 16124.1,11077 c 0,0 -304.3,-1274.26 -255.9,-1754.25 0,0 111.9,512.93 381,933.05 0,0 -98.2,86.4 -92.8,118.3 0,0 72.9,21.6 143.6,7 0,0 -23.1,577.7 -53.9,643.8 -18.4,39.5 -122,52.1 -122,52.1" /></g><g
         transform="scale(1.22281)"
         id="g154"><path
           id="path156"
           style="fill:#ffffff;fill-opacity:1;fill-rule:nonzero;stroke:none"
           d="m 16295.7,11836.8 c -4.4,-21 -20,-35.5 -35,-32.4 -14.9,3.1 -23.5,22.6 -19.2,43.6 4.4,21 20,35.4 34.9,32.4 15,-3.1 23.6,-22.7 19.3,-43.6" /></g><path
         id="path158"
         style="fill:#22407a;fill-opacity:1;fill-rule:nonzero;stroke:none"
         d="m 13717.8,14077.9 c 0,0 570.1,4.8 707.3,-187.6 137.2,-192.4 319.7,-1413.4 281.1,-1572.1 -89.6,-367.8 -450.8,142.5 -613.8,353.5 -163,211 -374.6,1406.2 -374.6,1406.2" /><path
         id="path160"
         style="fill:#22407a;fill-opacity:1;fill-rule:nonzero;stroke:none"
         d="m 14692.8,12652.3 153.4,-1230.3 h -439.4 l -119.8,959.7 405.8,270.6" /><path
         id="path162"
         style="fill:#233862;fill-opacity:1;fill-rule:nonzero;stroke:none"
         d="m 13335.7,6472.6 c 0,0 -21,164 -69.8,261.5 -48.7,97.5 -358.9,35.4 -358.9,35.4 0,0 -62.1,-53.2 -75.4,-301.3 l 504.1,4.4" /><path
         id="path164"
         style="fill:#233862;fill-opacity:1;fill-rule:nonzero;stroke:none"
         d="m 14392.6,6474.8 c -72.9,44.5 -31.4,376.4 -31.4,376.4 0,0 339.6,271.7 386.3,63.7 46.7,-208 322.6,-301.4 479.7,-326.9 108.5,-17.6 142,-77.6 152.4,-113.2 h -987" /><path
         id="path166"
         style="fill:#233862;fill-opacity:1;fill-rule:nonzero;stroke:none"
         d="m 13689.1,8888.8 c 13.8,-76.2 22.6,-138.7 24.9,-183.5 31.6,-615.9 518.4,-2024 605.5,-2056.8 134.7,-50.9 346.9,57.2 457.9,92.6 46,14.7 77,61.1 66.8,108.1 -241.1,1108.4 -329.7,2704.3 -361.9,3649.2 -16.3,476 -98,804.7 -98,804.7 0,0 -1187.4,316.8 -1194.4,-83.9 -6.3,-354.6 393.3,-1745.4 499.2,-2330.4" /><path
         id="path168"
         style="fill:#233862;fill-opacity:1;fill-rule:nonzero;stroke:none"
         d="m 13689.1,8888.8 793.2,1609.6 c -16.3,476 -98,804.7 -98,804.7 0,0 -1187.4,316.8 -1194.4,-83.9 -6.3,-354.6 393.3,-1745.4 499.2,-2330.4" /><path
         id="path170"
         style="fill:#233862;fill-opacity:1;fill-rule:nonzero;stroke:none"
         d="m 13953.3,11217.8 -627.7,-4549.4 c 0,0 -275.7,-66.4 -490.1,-13.3 0,0 -183.8,2419.6 -168.4,3004.5 15.3,585 -131.9,1565.2 33.6,1673.3 165.4,108.1 1252.6,-115.1 1252.6,-115.1" /><path
         id="path172"
         style="fill:#e9f3fe;fill-opacity:1;fill-rule:nonzero;stroke:none"
         d="m 12656.6,12385.8 -78.3,-1092.2 c -3,-41.1 23.3,-78.5 62.9,-90 87.5,-25.4 188.5,-43.1 383.2,-83.4 182.8,-38 428.9,-71.7 731.2,-73.5 480.8,-3.1 662.8,162.6 662.8,162.6 20.7,-0.3 -10.9,100.3 -39.4,578.8 -9.7,162 -19,367.5 -25.7,627.1 -6.1,233.6 -10.2,511.2 -10.6,840.5 -0.5,396.1 -613.6,822.2 -624.9,822.2 l -0.1,-0.2 c 0,-57 -89.9,-162.3 -228.4,-171.3 -164.3,-10.8 -369.7,107.8 -369.7,202.5 0,0.1 -28.6,-28 -39.6,-46.4 -64.7,-109.3 -268.9,-539.1 -359.1,-973 -13.5,-64.3 -23.8,-132.2 -32.1,-203.6 -0.1,-1.1 -0.2,-2.1 -0.3,-3.2 -1.6,-13.1 -3,-26.2 -4.3,-39.4 -0.3,-2.3 -0.5,-4.7 -0.7,-7 -1.2,-12 -2.5,-24.2 -3.5,-36.4 -0.4,-3.4 2.4,-9.6 -0.9,-10.5 -33,-8.1 -123.2,-309.6 -18.8,-306.9 31.8,0.9 -2.5,-64 -3.7,-96.7 l -0.2,-2.5 0.2,2.5" /><path
         id="path174"
         style="fill:#ffb27d;fill-opacity:1;fill-rule:nonzero;stroke:none"
         d="m 13723.6,14164.9 -0.3,-58.9 c 0,0 16,-184.3 -210.9,-211.2 -227,-27 -398.9,71.8 -392.8,214.1 20.5,110.1 42.9,185.7 44.4,276.8 0.6,33.9 -1.7,69.8 -8,110.4 l 439.8,8.8 129.5,-21.2 -1.7,-318.8" /><path
         id="path176"
         style="fill:#22407a;fill-opacity:1;fill-rule:nonzero;stroke:none"
         d="m 13390.1,11934.5 6.6,-993 -878.3,102.8 62.9,2391.6 443.3,136.5 199.1,-547.5 166.4,-1090.4" /><path
         id="path178"
         style="fill:#e2915a;fill-opacity:1;fill-rule:nonzero;stroke:none"
         d="m 13725.3,14483.7 -1.7,-228 c -46.7,-21.7 -132.4,-23.3 -199,-11.3 -199,35.6 -294,103.5 -362.3,211.1 0.5,33.9 0,0 -6.3,40.6 l 439.8,8.8 129.5,-21.2" /><path
         id="path180"
         style="fill:#ffb27d;fill-opacity:1;fill-rule:nonzero;stroke:none"
         d="m 13122.3,14566.9 c 51,-274.7 405.3,-265.6 558.5,-248.4 43.1,4.8 70.2,10.3 70.2,10.3 48.6,13 75.7,89.5 88.3,189.8 25,198.4 -6.6,489.6 -40.1,564.1 -50.5,112.1 -145.5,233.3 -502.3,145.8 -356.9,-87.5 -240.1,-309.8 -174.6,-661.6" /><path
         id="path182"
         style="fill:#233862;fill-opacity:1;fill-rule:nonzero;stroke:none"
         d="m 13908.7,15344.1 c 0,0 -157.1,12.1 -342.3,92.6 -150.4,65.4 -340.1,-6.6 -401.7,-39 1.7,9.9 5.6,23.4 15,37 0,0 -27.6,-19.6 -31.7,-47 -2.8,-2.1 -4.1,-3.5 -3.4,-4 0,0 -31.3,5.7 -51.5,-3.4 0,0 14.1,2.1 19.2,-7 0.5,-1 1.3,-1.8 2.2,-2.5 -234.5,-113.3 -256.2,-484 -180.7,-569.8 90.8,-103.2 211.2,-313.9 211.2,-313.9 0,0 28.2,33.2 11.7,124 -16.5,90.8 61.9,90.8 161,132.1 99,41.3 16.5,156.9 103.2,227 86.7,70.2 404.5,28.9 400.4,82.6 118,43 87.4,279.2 87.4,291.3" /><path
         id="path184"
         style="fill:#d9e9f9;fill-opacity:1;fill-rule:nonzero;stroke:none"
         d="m 13047.9,14123.3 c -0.5,29.3 115.2,65.4 115.2,65.4 0,0 158.5,-219.7 419.6,-223.5 0,0 -74.4,-144.8 -162.1,-182.3 0,0 -369.2,127.3 -372.7,340.4" /><path
         id="path186"
         style="fill:#d9e9f9;fill-opacity:1;fill-rule:nonzero;stroke:none"
         d="m 13582.7,13970.3 c 0,0 138.4,82 138.8,170.9 0,0 79.7,-12.8 118.7,-56.1 0,0 42.5,-128.4 -1,-216.9 0,0 -199.2,30.4 -256.5,102.1" /><path
         id="path188"
         style="fill:#ba4c43;fill-opacity:1;fill-rule:nonzero;stroke:none"
         d="m 13488.8,13983.5 187.6,45 c 0,0 24.5,-2.2 23.8,-32.7 -0.6,-30.6 -52.8,-119.9 -75.9,-127 -23.1,-7.1 -179.9,52.9 -135.5,114.7" /><path
         id="path190"
         style="fill:#e9f3fe;fill-opacity:1;fill-rule:nonzero;stroke:none"
         d="m 13047.9,14134.2 c -1.4,29.2 92.3,89.5 92.3,89.5 0,0 181.4,-212 442.5,-215.8 0,0 -74.4,-144.9 -162.1,-182.4 0,0 -364.1,135.1 -372.7,308.7" /><path
         id="path192"
         style="fill:#e9f3fe;fill-opacity:1;fill-rule:nonzero;stroke:none"
         d="m 13582.7,14007.9 c 0,0 139.9,74.1 140.4,163 0,0 84.5,-37.1 123.5,-80.5 0,0 36.1,-96.1 -7.4,-184.6 0,0 -199.2,30.3 -256.5,102.1" /><path
         id="path194"
         style="fill:#c65447;fill-opacity:1;fill-rule:nonzero;stroke:none"
         d="m 13925.6,11439.1 c -7.2,-87.8 -40.8,-169.9 -94.3,-230.3 l -84.1,-94.9 c -21.1,-23.8 -53.9,-20.9 -71.1,6.2 l -101.5,159.1 c -27.2,42.7 -39.6,96.9 -34.9,151.4 10.8,121.5 31,355.5 47.6,581.2 13.4,183 24.5,360.7 26.3,468.7 5.5,345 -39.7,1444.3 -39.7,1444.3 l 67.5,-3.5 c 0,0 163.4,-425 245.5,-1004.9 20.3,-142.8 35.5,-294.8 42.3,-452.4 0,0 29.1,-627.8 -3.6,-1024.9" /><path
         id="path196"
         style="fill:#22407a;fill-opacity:1;fill-rule:nonzero;stroke:none"
         d="m 14224.1,12034.6 62.9,-1220.7 h 334.2 l -198.5,2706.9 -573.1,427.6 203.7,-861.4 170.8,-1052.4" /><path
         id="path198"
         style="fill:#233862;fill-opacity:1;fill-rule:nonzero;stroke:none"
         d="m 13808.9,14119.1 c 0,0 223.1,-983.8 339.9,-1646.7 31.7,-179.7 68.3,-330.1 75.3,-437.8 0,0 -38.7,900.9 -34.9,1160.5 0,0 -160.3,84.9 -160.3,114.7 0,29.8 171,110.3 171,110.3 0,0 -108.3,554.8 -167.4,615.9 -59.1,61.1 -223.6,83.1 -223.6,83.1" /><path
         id="path200"
         style="fill:#233862;fill-opacity:1;fill-rule:nonzero;stroke:none"
         d="m 12683.5,12836.3 c 0,0 142.3,-482.6 545.1,-612.7 l -818.3,93.6 c 0,0 -34.2,481.6 0,489.2 34.1,7.6 273.2,29.9 273.2,29.9" /><path
         id="path202"
         style="fill:#22407a;fill-opacity:1;fill-rule:nonzero;stroke:none"
         d="m 13030.3,14077.9 c 0,0 -407.7,31 -574.1,-141.4 -226,-233.9 -480.8,-1635.5 -382.5,-1909.6 60.2,-167.9 785.4,-51.1 1189.4,-62.6 v 268.5 c 0,0 -641.8,148.3 -641.8,344.9 0,131.7 409,1500.2 409,1500.2" /><path
         id="path204"
         style="fill:#233862;fill-opacity:1;fill-rule:nonzero;stroke:none"
         d="m 13065.5,14160 c 0,0 386,-1616.6 324.6,-2225.5 0,0 -142,650.7 -483.4,1183.8 0,0 124.6,109.6 117.8,150 0,0 -92.5,27.4 -182.2,9 0,0 9.9,696.8 65.8,770.4 56,73.6 157.4,112.3 157.4,112.3" /><path
         id="path206"
         style="fill:#ffb27d;fill-opacity:1;fill-rule:nonzero;stroke:none"
         d="m 13263.1,12178.7 c 0,0 279.9,58.3 322.9,44.9 161.2,-50.5 263.6,-189.8 263.6,-219.5 0,-29.7 -586.5,0 -586.5,0 v 174.6" /><g
         transform="scale(1.32925)"
         id="g208"><path
           id="path210"
           style="fill:#f99746;fill-opacity:1;fill-rule:nonzero;stroke:none"
           d="M 16300,4875.25 H 14069.3 V 8027.8 H 16300 V 4875.25" /></g><g
         transform="scale(1.34492)"
         id="g212"><path
           id="path214"
           style="fill:#f99746;fill-opacity:1;fill-rule:nonzero;stroke:none"
           d="M 16300,7850.72 H 13715.5 V 8942.43 H 16300 V 7850.72" /></g><g
         transform="scale(1.34492)"
         id="g216"><path
           id="path218"
           style="fill:#ed7d2b;fill-opacity:1;fill-rule:nonzero;stroke:none"
           d="m 13715.5,7850.72 189.9,-273.79 H 16110 l 190,273.79 h -2584.5" /></g><g
         transform="scale(1.33739)"
         id="g220"><path
           id="path222"
           style="fill:#ed7d2b;fill-opacity:1;fill-rule:nonzero;stroke:none"
           d="m 13872.7,4845.57 62.3,194.86 h 2313.9 l 51.1,-194.86 h -2427.3" /></g><g
         transform="scale(1.16269)"
         id="g224"><path
           id="path226"
           style="fill:#ed7d2b;fill-opacity:1;fill-rule:nonzero;stroke:none"
           d="m 16300,10344 h -215.3 c 0,59.4 48.2,107.6 107.6,107.6 59.5,0 107.7,-48.2 107.7,-107.6" /></g><g
         transform="scale(1.17647)"
         id="g228"><path
           id="path230"
           style="fill:#ed7d2b;fill-opacity:1;fill-rule:nonzero;stroke:none"
           d="m 16012.4,10298.1 -19.3,1.1 c 0.1,3.3 22.7,329.2 292.6,624.9 l 14.3,-13.1 c -265.5,-290.6 -287.5,-609.7 -287.6,-612.9" /></g><g
         transform="scale(1.18008)"
         id="g232"><path
           id="path234"
           style="fill:#ed7d2b;fill-opacity:1;fill-rule:nonzero;stroke:none"
           d="m 16198.1,10839.3 v 0 c -12.1,12 -12.1,31.7 0,43.8 l 46.1,46 c 12,12.1 31.6,12.1 43.8,0 12,-12 12,-31.8 0,-43.8 l -46,-46 c -12.2,-12.1 -31.8,-12.1 -43.9,0" /></g><g
         transform="scale(1.55822)"
         id="g236"><path
           id="path238"
           style="fill:#ed7d2b;fill-opacity:1;fill-rule:nonzero;stroke:none"
           d="M 16300,1427.72 H 5721.79 V 4177.71 H 16300 V 1427.72" /></g><path
         id="path240"
         style="fill:#f99746;fill-opacity:1;fill-rule:nonzero;stroke:none"
         d="m 15550.7,6480.4 h -2965.1 v 4190.5 h 2965.1 V 6480.4" /><path
         id="path242"
         style="fill:#f99746;fill-opacity:1;fill-rule:nonzero;stroke:none"
         d="m 15806.2,10558.6 h -3476 v 1468.3 h 3476 v -1468.3" /><path
         id="path244"
         style="fill:#ed7d2b;fill-opacity:1;fill-rule:nonzero;stroke:none"
         d="m 12330.2,10558.6 255.4,-368.2 h 2965.1 l 255.5,368.2 h -3476" /><path
         id="path246"
         style="fill:#ed7d2b;fill-opacity:1;fill-rule:nonzero;stroke:none"
         d="m 12437.1,6480.4 83.4,260.6 h 3094.6 l 68.3,-260.6 h -3246.3" /><path
         id="path248"
         style="fill:#2b478b;fill-opacity:1;fill-rule:nonzero;stroke:none"
         d="m 15450.8,12026.9 h 250.4 c 0,69.1 -56.1,125.1 -125.2,125.1 -69.1,0 -125.2,-56 -125.2,-125.1" /><path
         id="path250"
         style="fill:#2b478b;fill-opacity:1;fill-rule:nonzero;stroke:none"
         d="m 15564.6,12115.4 c -0.2,3.8 -26.4,379.5 -338.3,721.1 l 16.8,15.4 c 317.6,-347.9 344,-731.3 344.3,-735.1 l -22.8,-1.4" /><path
         id="path252"
         style="fill:#2b478b;fill-opacity:1;fill-rule:nonzero;stroke:none"
         d="m 15287.7,12791.2 v 0 c 14.2,14.2 14.2,37.5 0,51.7 l -54.3,54.3 c -14.2,14.2 -37.5,14.2 -51.7,0 -14.2,-14.2 -14.2,-37.5 0,-51.7 l 54.3,-54.3 c 14.2,-14.2 37.5,-14.2 51.7,0" /><g
         transform="scale(1.121)"
         id="g254"><path
           id="path256"
           style="fill:#2b478b;fill-opacity:1;fill-rule:nonzero;stroke:none"
           d="m 16300,6684.92 -37.5,-22.66 -51.1,84.39 37.6,22.66 51,-84.39" /></g><g
         transform="scale(1.12467)"
         id="g258"><path
           id="path260"
           style="fill:#2b478b;fill-opacity:1;fill-rule:nonzero;stroke:none"
           d="m 11588.2,1978.09 c 0,0 544.4,1482.75 655.6,1946.8 95.4,398.43 259.4,813.75 553.7,931.83 166,66.6 344.7,114.08 526.2,144.75 22.1,25.7 71.2,71.76 160.5,109.9 2.8,65.62 1.8,132.22 -6.5,189.03 v 0.09 c -90.8,69 -178.9,175.17 -229.4,338.15 -47.8,52.37 -89,135.59 -76.5,171.51 4,11.56 9.4,19.3 15.5,24.19 -7.3,12 -14.1,24.54 -20,37.97 -51.4,41.79 -43.6,145.73 -74.4,191.43 -37.2,55.3 -82.8,198.28 -45.1,243.45 37.6,45.17 53.9,104.21 63.7,228.42 9.8,124.22 99.3,67.76 174.6,84.21 75.3,16.36 60.3,40.01 97.9,130.34 37.7,90.34 120.5,82.88 248.5,56.47 128,-26.32 101.7,56.55 233.4,75.31 131.8,18.85 184.5,-105.37 300.4,-106.52 115.9,-1.07 136.4,-130.62 241.8,-198.37 105.4,-67.85 0,-292.71 0,-292.71 5,-50.41 0,0 52.3,-87.58 52.3,-87.58 -37.2,-140.58 -5.5,-253.5 31.9,-112.92 -85.9,-101.54 -85.9,-101.54 -0.4,-1.6 -0.9,-3.11 -1.2,-4.71 19.6,7.91 45.6,9.51 58.3,-26.86 19,-54.32 -85,-216.86 -148.9,-216.95 -44.1,-147.6 -106.5,-238.91 -175,-297.51 -3.7,-37.87 -8.1,-96.2 -7.5,-161.91 83.7,-27.21 144.1,-63.31 183.1,-92.21 199.4,90.25 741.9,369.89 912.4,808.15 210.2,540.61 438.9,1035.24 438.9,1035.24 0,0 -87.4,319.56 -35.1,445.64 l -133.2,189.93 -58.8,-35.66 -37.4,61.8 45.6,27.65 c -20.2,16.45 -38,36.36 -52.3,59.84 -67,110.79 -31.5,254.92 79.3,321.96 110.7,67.13 254.9,31.65 321.9,-79.13 14.3,-23.57 23.6,-48.55 28.8,-74.07 l 45.6,27.65 37.5,-61.88 -58.6,-35.39 103,-195.17 c 37.2,14.67 66.1,18.14 79,1.42 90.3,-116.92 102,-223 84.6,-311.2 l 221,-418.17 -239.5,-144.93 -132.5,189.04 c -8.1,-33.97 -12.1,-57.98 -12.1,-57.98 0,0 254.5,-990.78 -181.4,-1645.37 -189.7,-285.06 -477.8,-661.62 -742.6,-995.94 22.2,-824.69 -60.5,-2138.94 -60.5,-2138.94 h -2301.6 c 0,0 2.7,266.04 10.6,635.3 l -287.3,-635.3 -764.9,-37.97" /></g><path
         id="path262"
         style="fill:#2b478b;fill-opacity:1;fill-rule:nonzero;stroke:none"
         d="m 10039.2,7493.8 -42.1,-25.4 -57.26,94.6 42.04,25.4 57.32,-94.6" /><path
         id="path264"
         style="fill:#2b478b;fill-opacity:1;fill-rule:nonzero;stroke:none"
         d="m 6159.8,5462.2 c 186.64,74.9 387.65,128.3 591.71,162.8 24.95,28.9 80.05,80.7 180.59,123.6 3.1,73.8 2,148.7 -7.41,212.6 l -0.01,0.1 c -102.04,77.6 -201.09,197 -257.9,380.3 -53.83,58.9 -100.2,152.5 -86.1,192.9 4.55,13 10.62,21.7 17.47,27.2 -8.25,13.5 -15.82,27.6 -22.52,42.7 -57.8,47 -49.06,163.9 -83.65,215.3 -41.88,62.2 -93.15,223 -50.81,273.8 42.34,50.8 60.69,117.2 71.71,256.9 11.01,139.7 111.77,76.2 196.46,94.7 84.68,18.4 67.74,45 110.08,146.6 42.34,101.6 135.5,93.2 279.46,63.5 143.96,-29.6 114.32,63.6 262.52,84.7 148.19,21.2 207.47,-118.5 337.79,-119.8 130.33,-1.2 153.37,-146.9 271.95,-223.1 118.59,-76.3 0,-329.2 0,-329.2 5.68,-56.7 0,0 58.85,-98.5 58.84,-98.5 -41.94,-158.1 -6.14,-285.1 35.79,-127 -96.66,-114.2 -96.66,-114.2 v 0 c -0.46,-1.8 -0.95,-3.5 -1.42,-5.3 22.16,8.9 51.36,10.7 65.68,-30.2 21.33,-61.1 -95.67,-243.9 -167.6,-244 -49.52,-166 -119.75,-268.7 -196.7,-334.6 -4.29,-42.6 -9.1,-108.2 -8.4,-182.1 94.1,-30.6 162,-71.2 205.89,-103.7 224.26,101.5 834.34,416 1026.04,908.9 236.48,608 493.74,1164.3 493.74,1164.3 0,0 -98.3,359.4 -39.53,501.2 l -149.74,213.6 -66.19,-40.1 -42.08,69.5 51.31,31.1 c -22.65,18.5 -42.75,40.9 -58.77,67.3 -75.4,124.6 -35.54,286.7 89.04,362.1 124.58,75.5 286.7,35.6 362.11,-89 16.02,-26.5 26.52,-54.6 32.44,-83.3 l 51.3,31.1 42.08,-69.6 -65.9,-39.8 115.91,-219.5 c 41.8,16.5 74.32,20.4 88.79,1.6 101.58,-131.5 114.68,-250.8 95.26,-350 l 248.45,-470.3 -269.39,-163 -149.04,212.6 c -9.07,-38.2 -13.56,-65.2 -13.56,-65.2 0,0 286.2,-1114.3 -203.99,-1850.5 C 9249.46,5472.5 8925.5,5049 8627.74,4673 8652.71,3745.5 8559.7,2267.4 8559.7,2267.4 H 5971.14 c 0,0 3.1,299.2 11.99,714.5 0,0 -154.32,2347.5 176.67,2480.3" /><path
         id="path266"
         style="fill:#2b478b;fill-opacity:1;fill-rule:nonzero;stroke:none"
         d="m 6823.18,5658.1 c 0,0 -635.12,572.4 -638.32,1168.3 -3.19,596 -41.04,1154.5 -41.04,1154.5 l -307.65,20.3 c 0,0 -608.02,-857.2 -430.22,-1645.3 177.79,-788.1 675.48,-2229.6 675.48,-2229.6 l 741.75,1531.8" /><path
         id="path268"
         style="fill:#2b478b;fill-opacity:1;fill-rule:nonzero;stroke:none"
         d="m 6143.82,7980.9 c 0,0 266.92,364.1 180.15,467.8 -86.77,103.6 -59.25,479.6 -204.06,467.8 -137.5,-11.2 -275.4,-394.4 -262.27,-492.8 13.14,-98.3 -21.47,-422.5 -21.47,-422.5 l 307.65,-20.3" /><path
         id="path270"
         style="fill:#2b478b;fill-opacity:1;fill-rule:nonzero;stroke:none"
         d="m 6332.54,8332.3 c 0,0 126.9,328.9 87.62,337.3 -39.29,8.4 -79.09,-55 -96.81,-89.8 -26.66,-52.4 -45.75,-58.2 -51.91,-64.6 -37.89,-39.2 61.1,-182.9 61.1,-182.9" /><g
         transform="scale(1.39567)"
         id="g272"><path
           id="path274"
           style="fill:#2b478b;fill-opacity:1;fill-rule:nonzero;stroke:none"
           d="m 16300,5369.3 -30.1,-18.2 -41,67.78 30.1,18.2 41,-67.78" /></g><g
         transform="scale(1.39934)"
         id="g276"><path
           id="path278"
           style="fill:#2b478b;fill-opacity:1;fill-rule:nonzero;stroke:none"
           d="m 13485.1,3903.42 c 133.3,53.53 277,91.69 422.8,116.34 17.8,20.65 57.2,57.67 129.1,88.33 2.2,52.74 1.4,106.26 -5.3,151.93 l -0.1,0.07 c -72.9,55.45 -143.6,140.78 -184.3,271.77 -38.4,42.09 -71.6,108.98 -61.5,137.85 3.3,9.29 7.7,15.51 12.5,19.44 -5.8,9.64 -11.3,19.72 -16.1,30.51 -41.3,33.59 -35.1,117.13 -59.8,153.86 -29.8,44.45 -66.5,159.36 -36.3,195.66 30.3,36.31 43.4,83.76 51.3,183.59 7.9,99.84 79.9,54.46 140.4,67.68 60.5,13.15 48.4,32.16 78.7,104.76 30.2,72.61 96.8,66.61 199.6,45.38 102.9,-21.15 81.8,45.45 187.7,60.53 105.9,15.15 148.2,-84.68 241.4,-85.61 93.1,-0.86 109.5,-104.98 194.3,-159.44 84.8,-54.52 0,-235.25 0,-235.25 4.1,-40.52 0,0 42.1,-70.39 42,-70.39 -30,-112.98 -4.4,-203.74 25.5,-90.76 -69.1,-81.61 -69.1,-81.61 -0.3,-1.29 -0.7,-2.5 -1,-3.79 15.8,6.36 36.7,7.65 46.9,-21.58 15.2,-43.66 -68.4,-174.3 -119.8,-174.37 -35.3,-118.63 -85.5,-192.02 -140.5,-239.11 -3.1,-30.44 -6.5,-77.32 -6,-130.13 67.2,-21.87 115.7,-50.88 147.1,-74.11 160.3,72.53 596.3,297.28 733.2,649.52 169,434.49 352.9,832.04 352.9,832.04 0,0 -70.3,256.83 -28.2,358.17 l -107.1,152.64 -47.3,-28.66 -30.1,49.67 36.7,22.23 c -16.2,13.22 -30.5,29.22 -42,48.09 -53.9,89.04 -25.4,204.88 63.6,258.76 89.1,53.96 204.9,25.45 258.8,-63.6 11.5,-18.93 19,-39.02 23.2,-59.53 l 36.7,22.23 30.1,-49.74 -47.1,-28.44 82.8,-156.86 c 29.9,11.79 53.1,14.58 63.5,1.14 72.5,-93.97 81.9,-179.22 68,-250.11 l 177.5,-336.09 -192.4,-116.49 -106.6,151.93 c -6.4,-27.29 -9.6,-46.59 -9.6,-46.59 0,0 204.5,-796.31 -145.8,-1322.41 -152.6,-229.11 -384.1,-531.75 -596.9,-800.45 17.9,-662.82 -48.6,-1719.1 -48.6,-1719.1 h -1849.9 c 0,0 2.3,213.81 8.6,510.6 0,0 -110.2,1677.58 126.3,1772.48" /></g><g
         transform="scale(1.19837)"
         id="g280"><path
           id="path282"
           style="fill:#2b478b;fill-opacity:1;fill-rule:nonzero;stroke:none"
           d="m 16300,4721.48 c 0,0 -530,477.65 -532.6,974.91 -2.7,497.34 -34.2,963.38 -34.2,963.38 l -256.8,16.94 c 0,0 -507.4,-715.3 -359,-1372.94 148.4,-657.64 563.7,-1860.52 563.7,-1860.52 l 618.9,1278.23" /></g><g
         transform="scale(1.17307)"
         id="g284"><path
           id="path286"
           style="fill:#2b478b;fill-opacity:1;fill-rule:nonzero;stroke:none"
           d="m 16072.5,6803.41 c 0,0 227.5,310.38 153.5,398.78 -73.9,88.32 -50.5,408.84 -173.9,398.78 -117.2,-9.55 -234.8,-336.21 -223.6,-420.09 11.3,-83.8 -18.3,-360.17 -18.3,-360.17 l 262.3,-17.3" /></g><g
         transform="scale(1.17606)"
         id="g288"><path
           id="path290"
           style="fill:#2b478b;fill-opacity:1;fill-rule:nonzero;stroke:none"
           d="m 16192.1,7084.92 c 0,0 107.9,279.66 74.5,286.81 -33.4,7.14 -67.3,-46.77 -82.3,-76.36 -22.6,-44.56 -38.9,-49.49 -44.2,-54.93 -32.2,-33.33 52,-155.52 52,-155.52" /></g><g
         transform="scale(1.62527)"
         id="g292"><path
           id="path294"
           style="fill:#2b478b;fill-opacity:1;fill-rule:nonzero;stroke:none"
           d="m 16087.2,3307.88 c 80.3,194.56 -284,400 -339.9,551.48 -55.8,151.54 317.5,394.83 14.1,822.02 -78.6,110.68 -244.2,105.46 -345.8,89.58 -52.1,-8.06 -104.9,-10.27 -157.3,-4.55 -273.5,29.78 -438.7,-226.49 -475.7,-416.36 -21.2,-108.85 -16.3,-222.74 104.3,-294.29 7.5,-10.71 16.8,-18.15 27.2,-23.75 36,-438.95 186.3,-376.06 186.3,-376.06 9.2,-61.72 5.8,-139.8 -0.6,-206.37 -116.6,-12.36 -231.8,-32.67 -339.4,-61.22 0,0 -1005.7,223.66 -1267.7,480.23 -262,256.51 -522.6,481.7 -522.6,481.7 0,0 -33,206.86 -95.9,265.87 l 27.2,144.03 43.2,-5.16 5.4,45.34 -33.4,4 c 7.3,14.71 12.3,30.89 14.4,48.12 9.7,81.27 -48.3,155.05 -129.6,164.77 -81.2,9.72 -154.9,-48.24 -164.7,-129.52 -2.1,-17.23 -1.1,-34.08 2.6,-50.14 l -33.4,4 -5.4,-45.35 42.9,-5.17 -8.5,-139.17 c -25.1,-1.3 -42.7,-6.84 -45.8,-19.82 -21.5,-90.88 -0.5,-154.99 32.4,-201.26 l -18.2,-298.35 175.6,-21.1 27.1,143.42 c 13.5,-17.47 22,-30.21 22,-30.21 0,0 111.8,-636.94 533.4,-900.28 338.4,-211.47 950.3,-514.99 1178.3,-626.42 -5.1,-42.82 -12,-81.22 -21.5,-112.29 -96.7,-317.79 311.5,-1188.85 387.9,-1192.79 H 16300 c 0,0 -73.8,1807.46 -212.8,1915.07" /></g><g
         transform="scale(1.26701)"
         id="g296"><path
           id="path298"
           style="fill:#2b478b;fill-opacity:1;fill-rule:nonzero;stroke:none"
           d="m 16255.3,5210.05 35.2,-4.26 9.5,79.16 -35.2,4.26 -9.5,-79.16" /></g><path
         id="path300"
         style="fill:#1f3b63;fill-opacity:1;fill-rule:nonzero;stroke:none"
         d="m 14259.4,5026.5 c -242.1,447.9 -641,480.5 -641,480.5 -174.9,46.4 -362.2,79.4 -551.7,99.5 -10.3,108.2 -15.8,235.1 -1,335.4 0,0 244.4,-102.2 302.8,611.2 16.8,9.1 32,21.2 44.2,38.6 196,116.3 204.1,301.4 169.6,478.3 -60.2,308.6 -328.6,725.1 -773.2,676.7 -85.1,-9.3 -171,-5.7 -255.6,7.4 -165.2,25.8 -434.3,34.3 -562.1,-145.6 -493.1,-694.3 113.7,-1089.7 23,-1336 -90.8,-246.2 -683.1,-580.1 -552.4,-896.3 -225.9,-174.9 -345.9,-3112.5 -345.9,-3112.5 h 3465.8 c 0,0 -65.9,2287.7 -322.5,2762.8" /><path
         id="path302"
         style="fill:#1f3b63;fill-opacity:1;fill-rule:nonzero;stroke:none"
         d="m 11462,5376.2 c 0,0 -1019.7,-1263.7 -907.4,-1652.8 112.2,-389.1 853,-897.9 1047.6,-808.1 194.5,89.8 -140.2,2460.9 -140.2,2460.9" /><path
         id="path304"
         style="fill:#1f3b63;fill-opacity:1;fill-rule:nonzero;stroke:none"
         d="m 11802,7160.6 c 0,0 -80.1,-279.4 -416.8,-339.3 -336.8,-59.8 -172.1,-329.2 -224.5,-508.8 -52.4,-179.6 -329.3,-211.9 -276.9,-478.9 52.4,-267 -359.2,-501.4 291.8,-1032.6 651,-531.3 1242.2,1533.9 1242.2,1533.9 l -224.5,763.3 -391.3,62.4" /><g
         transform="scale(1.22472)"
         id="g306"><path
           id="path308"
           style="fill:#1f3b63;fill-opacity:1;fill-rule:nonzero;stroke:none"
           d="m 16036.6,4104.19 c -197.6,365.71 -523.4,392.33 -523.4,392.33 -142.8,37.89 -295.7,64.84 -450.4,81.25 -8.4,88.34 -12.9,191.96 -0.9,273.85 0,0 199.7,-83.44 247.3,499.06 13.8,7.42 26.1,17.31 36.1,31.51 160.1,94.96 166.6,246.1 138.4,390.54 -49,251.98 -268.2,592.05 -631.2,552.53 -69.5,-7.59 -139.6,-4.65 -208.7,6.05 -134.9,21.06 -354.6,28 -459,-118.89 -402.6,-566.9 92.9,-889.75 18.7,-1090.86 -74,-201.02 -557.6,-473.65 -450.9,-731.84 -184.5,-142.8 -282.5,-2541.39 -282.5,-2541.39 H 16300 c 0,0 -53.8,1867.94 -263.4,2255.86" /></g><g
         transform="scale(1.05385)"
         id="g310"><path
           id="path312"
           style="fill:#1f3b63;fill-opacity:1;fill-rule:nonzero;stroke:none"
           d="m 15982.4,5101.47 c 0,0 -967.6,-1199.12 -861.1,-1568.34 106.5,-369.21 809.5,-852.02 994,-766.8 184.7,85.21 -132.9,2335.14 -132.9,2335.14" /></g><g
         transform="scale(1.09195)"
         id="g314"><path
           id="path316"
           style="fill:#1f3b63;fill-opacity:1;fill-rule:nonzero;stroke:none"
           d="m 15736.1,6557.62 c 0,0 -73.4,-255.87 -381.7,-310.73 -308.4,-54.76 -157.7,-301.48 -205.6,-465.95 -47.9,-164.48 -301.5,-194.06 -253.5,-438.57 47.9,-244.52 -329,-459.18 267.2,-945.65 596.2,-486.56 1137.5,1404.73 1137.5,1404.73 l -205.5,699.02 -358.4,57.15" /></g><path
         id="path318"
         style="fill:#1d3356;fill-opacity:1;fill-rule:nonzero;stroke:none"
         d="m 8866.1,5362 c -130.65,316.2 461.61,650.1 552.36,896.3 90.75,246.3 -516.01,641.7 -22.97,1336 127.81,179.9 396.92,171.4 562.12,145.6 84.59,-13.1 170.49,-16.7 255.59,-7.4 444.6,48.4 713,-368.1 773.2,-676.7 34.4,-176.9 26.4,-362 -169.6,-478.3 -12.2,-17.4 -27.4,-29.5 -44.2,-38.6 -58.4,-713.4 -302.8,-611.2 -302.8,-611.2 -14.8,-100.3 -9.3,-227.2 1,-335.5 189.5,-20 376.8,-53 551.7,-99.4 0,0 1634.5,363.5 2060.3,780.5 425.8,416.9 849.4,782.9 849.4,782.9 0,0 53.6,336.2 155.9,432 l -44.2,234.2 -70.2,-8.4 -8.8,73.7 54.2,6.5 c -11.9,23.9 -20,50.2 -23.3,78.2 -15.9,132.1 78.4,252 210.5,267.8 132,15.8 251.9,-78.4 267.8,-210.5 3.3,-28 1.7,-55.5 -4.2,-81.5 l 54.2,6.5 8.8,-73.7 -69.9,-8.4 13.9,-226.2 c 40.9,-2.1 69.5,-11.1 74.4,-32.2 35,-147.7 1,-251.9 -52.5,-327.1 l 29.6,-485 -285.6,-34.2 -43.9,233.1 c -22,-28.4 -35.8,-49.1 -35.8,-49.1 0,0 -181.6,-1035.2 -866.8,-1463.2 -550.1,-343.7 -1955.4,-833.9 -1880.3,-1200.6 108.5,-528.9 -93.8,-1938.6 -93.8,-1938.6 H 8520.19 c 0,0 120.05,2937.6 345.91,3112.5" /><path
         id="path320"
         style="fill:#1d3356;fill-opacity:1;fill-rule:nonzero;stroke:none"
         d="m 14416.4,6587 -44.6,-5.4 -12,100.3 44.6,5.4 12,-100.3" /><path
         id="path322"
         style="fill:#1d3356;fill-opacity:1;fill-rule:nonzero;stroke:none"
         d="m 8866.1,5362 c 0,0 -1019.68,-1263.7 -907.44,-1652.8 C 8070.9,3320.1 8811.7,2811.3 9006.25,2901.1 9200.81,2990.9 8866.1,5362 8866.1,5362" /><path
         id="path324"
         style="fill:#1d3356;fill-opacity:1;fill-rule:nonzero;stroke:none"
         d="m 9206.09,7146.4 c 0,0 -80.11,-279.4 -416.84,-339.3 -336.72,-59.9 -172.1,-329.2 -224.48,-508.8 -52.38,-179.6 -329.24,-211.9 -276.86,-478.9 52.37,-267.1 -359.18,-501.4 291.83,-1032.7 651,-531.2 1242.14,1534 1242.14,1534 l -224.48,763.3 -391.31,62.4" /><g
         transform="scale(1.76794)"
         id="g326"><path
           id="path328"
           style="fill:#1d3356;fill-opacity:1;fill-rule:nonzero;stroke:none"
           d="m 16104.3,3032.9 c 74,178.85 -261,367.72 -312.4,506.97 -51.3,139.32 291.9,362.97 13,755.68 -72.3,101.76 -224.5,96.95 -317.9,82.36 -47.9,-7.41 -96.5,-9.45 -144.6,-4.19 -251.5,27.38 -403.3,-208.21 -437.4,-382.76 -19.4,-100.06 -14.9,-204.76 96,-270.54 6.9,-9.84 15.5,-16.68 25,-21.83 33,-403.52 171.3,-345.71 171.3,-345.71 8.3,-56.74 5.2,-128.51 -0.6,-189.77 -107.2,-11.32 -213.1,-29.98 -312.1,-56.23 0,0 -924.5,205.61 -1165.3,441.48 -240.9,235.81 -480.5,442.83 -480.5,442.83 0,0 -30.3,190.16 -88.2,244.35 l 25,132.47 39.7,-4.75 5,41.68 -30.6,3.68 c 6.7,13.52 11.3,28.4 13.1,44.24 9,74.71 -44.3,142.53 -119,151.47 -74.7,8.94 -142.5,-44.35 -151.5,-119.07 -1.9,-15.83 -1,-31.39 2.4,-46.09 l -30.7,3.67 -5,-41.68 39.6,-4.75 -7.9,-127.95 c -23.1,-1.19 -39.3,-6.28 -42.1,-18.21 -19.8,-83.55 -0.5,-142.49 29.7,-185.02 l -16.7,-274.33 161.5,-19.34 24.9,131.84 c 12.4,-16.06 20.2,-27.77 20.2,-27.77 0,0 102.7,-585.54 490.3,-827.63 311.2,-194.4 1106,-471.67 1063.6,-679.09 -61.4,-299.16 53,-1096.53 53,-1096.53 H 16300 c 0,0 -67.9,1661.59 -195.7,1760.52" /></g><g
         transform="scale(1.40969)"
         id="g330"><path
           id="path332"
           style="fill:#1d3356;fill-opacity:1;fill-rule:nonzero;stroke:none"
           d="m 16259.8,4672.67 31.7,-3.83 8.5,71.15 -31.6,3.83 -8.6,-71.15" /></g><g
         transform="scale(1.80928)"
         id="g334"><path
           id="path336"
           style="fill:#1d3356;fill-opacity:1;fill-rule:nonzero;stroke:none"
           d="m 15736.4,2963.61 c 0,0 563.6,-698.46 501.5,-913.52 -62,-215.05 -471.4,-496.27 -579,-446.64 -107.5,49.64 77.5,1360.16 77.5,1360.16" /></g><g
         transform="scale(1.80423)"
         id="g338"><path
           id="path340"
           style="fill:#1d3356;fill-opacity:1;fill-rule:nonzero;stroke:none"
           d="m 15592,3960.91 c 0,0 44.4,-154.86 231,-188.06 186.7,-33.2 95.4,-182.46 124.4,-282 29.1,-99.55 182.6,-117.45 153.5,-265.44 -29,-148.04 199.1,-277.9 -161.7,-572.37 -360.8,-294.42 -688.5,850.22 -688.5,850.22 l 124.4,423.06 216.9,34.59" /></g><g
         transform="scale(1.17765)"
         id="g342"><path
           id="path344"
           style="fill:#233862;fill-opacity:1;fill-rule:nonzero;stroke:none"
           d="m 16215.7,6363.35 35.7,-21.57 48.6,80.33 -35.7,21.57 -48.6,-80.33" /></g><g
         transform="scale(1.49299)"
         id="g346"><path
           id="path348"
           style="fill:#233862;fill-opacity:1;fill-rule:nonzero;stroke:none"
           d="m 16300,1490.09 c 0,0 -362.9,1136.64 -446.6,1486.28 -71.9,300.07 -242.7,593.23 -464.3,682.18 -125.1,50.17 -259.7,85.94 -396.3,109.05 -16.8,19.36 -53.7,54.05 -121,82.79 -2.1,49.43 -1.3,99.59 5,142.39 v 0.07 c 68.3,51.98 134.6,131.95 172.7,254.72 36,39.45 67.1,102.15 57.7,129.21 -3.1,8.7 -7.1,14.53 -11.8,18.21 5.6,9.05 10.6,18.49 15.1,28.6 38.7,31.49 32.9,109.78 56.1,144.21 28,41.66 62.3,149.37 34,183.39 -28.3,34.03 -40.7,78.5 -48,172.07 -7.4,93.57 -74.9,51.04 -131.6,63.43 -56.8,12.33 -45.4,30.14 -73.8,98.19 -28.3,68.05 -90.7,62.43 -187.1,42.53 -96.5,-19.82 -76.6,42.6 -175.8,56.74 -99.3,14.2 -139,-79.37 -226.3,-80.24 -87.3,-0.81 -102.8,-98.4 -182.2,-149.44 -79.4,-51.1 0,-220.49 0,-220.49 -3.8,-37.98 0,0 -39.4,-65.98 -39.4,-65.97 28.1,-105.89 4.1,-190.96 -24,-85.06 64.8,-76.49 64.8,-76.49 0.3,-1.2 0.6,-2.34 0.9,-3.55 -14.8,5.97 -34.4,7.17 -44,-20.22 -14.3,-40.93 64.1,-163.37 112.3,-163.43 33.1,-111.19 80.2,-179.98 131.7,-224.12 2.9,-28.53 6.1,-72.47 5.6,-121.97 -63,-20.49 -108.5,-47.69 -137.9,-69.45 -150.1,67.98 -558.8,278.63 -687.2,608.77 -158.4,407.24 -330.7,779.84 -330.7,779.84 0,0 65.8,240.73 26.5,335.71 l 100.3,143.06 44.3,-26.86 28.2,46.56 -34.3,20.83 c 15.1,12.39 28.6,27.39 39.3,45.07 50.5,83.46 23.8,192.03 -59.6,242.54 -83.5,50.57 -192.1,23.84 -242.6,-59.62 -10.7,-17.74 -17.7,-36.57 -21.7,-55.79 l -34.3,20.83 -28.2,-46.62 44.1,-26.65 -77.6,-147.02 c -28,11.05 -49.9,13.66 -59.5,1.07 -68.1,-88.08 -76.8,-167.99 -63.8,-234.43 l -166.4,-315.01 180.4,-109.17 99.8,142.4 c 6.1,-25.59 9.1,-43.67 9.1,-43.67 0,0 -191.7,-746.36 136.6,-1239.46 143,-214.74 360,-498.39 559.4,-750.24 -16.7,-621.23 45.6,-1611.26 45.6,-1611.26 l 2518.4,-28.6" /></g><path
         id="path350"
         style="fill:#1f3b63;fill-opacity:1;fill-rule:nonzero;stroke:none"
         d="m 8791.73,7072 26.49,-100.3 -44.68,-11.8 -26.37,100.5 -117.07,-30.9 -77.67,231 c -18.41,-32 -29.52,-55.1 -29.52,-55.1 0,0 -31.09,-873.9 -501.61,-1437 -52.09,-62.6 -109.78,-121.3 -173.53,-174.6 -253.11,-211.7 -526.75,-468.8 -781.21,-703.3 -414.06,-381.4 -626.42,-934.1 -574.79,-1494.6 40.41,-439.5 73.97,-915 58.03,-1128.5 0,-1.2 -0.11,-2.5 -0.22,-3.7 -0.23,-2.3 -0.34,-4.5 -0.57,-6.8 l -2837.26,10.5 c 0,0 -145.58,119.5 -357.16,350.2 -60.72,788.6 -124.25,1865.8 -52.3,2217.6 -298.9,-29.2 -310.46,223.9 -266.8,322 43.77,98.2 -136.94,238.2 -253.44,489.8 -116.4,251.5 210,331.9 101.46,603.9 -108.53,272 -8.3,736.4 195.3,947.2 133.12,137.8 373.1,150.9 523.28,143.5 122.34,151.7 360.75,175.2 515.41,172.8 87.89,-1.5 175.89,7.1 261.19,28.5 445.61,112.2 777.62,-273.8 882.45,-579.2 60.16,-175.2 78.24,-364.7 -104.83,-510.8 -9.99,-19.4 -23.68,-33.9 -39.62,-45.6 41.53,-734.1 -221.68,-664.8 -221.68,-664.8 -0.79,-104.1 22.78,-232.5 48.6,-341.2 97.76,3.2 195.53,3 291.83,-0.8 141.54,-5.5 282.63,10.1 419.23,45.1 70.82,18.1 140.53,41.3 208.32,69.5 210.56,87.5 491.39,210.3 764.82,348.8 85.64,43.4 170.61,88.3 252.43,134.2 271.18,152.1 508.24,314.5 625.08,465.7 166.45,215.3 333.81,420.4 468.39,581.7 168.25,201.7 285.31,335.2 285.31,335.2 0,0 6.97,349.7 97.54,461.8 l -78.01,232 -70.26,-18.6 -19.42,73.8 54.22,14.2 c -18.64,27.3 -32.1,58.9 -38.72,93.7 -23.02,121.5 49.94,243.9 167.91,281.5 135.92,43.2 278.81,-36.5 314.61,-172.8 7.41,-28 9.66,-56.2 7.41,-83.5 l 54.1,14.3 19.42,-73.8 -69.93,-18.4 46.13,-228.3 c 41.99,3.6 72.29,-1.4 80.37,-22.2 56.46,-145.4 36.59,-256.3 -7.3,-340.3 l 98.78,-489.4 -124.14,-32.7" /><g
         transform="scale(1.87183)"
         id="g352"><path
           id="path354"
           style="fill:#2e3552;fill-opacity:1;fill-rule:nonzero;stroke:none"
           d="m 16300,1194.82 v -8.55 c 0,-10.2 -8.1,-18.54 -18.1,-18.54 H 1134.59 c -9.98,0 -18.11,8.34 -18.11,18.54 v 8.55 c 0,10.15 8.13,18.53 18.11,18.53 H 16281.9 c 10,0 18.1,-8.38 18.1,-18.53" /></g><path
         id="path356"
         style="fill:#1f3b63;fill-opacity:1;fill-rule:nonzero;stroke:none"
         d="m 9014.86,13026.9 -55.22,-80.5 -137.27,-30 -5333.98,-1162.5 c 24.8,25.7 50.06,51.2 75.65,76.3 l 5272.14,1157.5 178.68,39.2" /><path
         id="path358"
         style="fill:#22407a;fill-opacity:1;fill-rule:nonzero;stroke:none"
         d="m 10597.7,12902.5 7,-1.1 -96.4,-499.1 -7.2,1.8 c 30.9,-21.6 66.7,-37.1 106,-44.7 150.5,-29.1 296.1,69.3 325.2,219.8 29,150.5 -69.4,296.1 -219.9,325.2 -39.2,7.6 -78.1,6.4 -114.7,-1.9" /><path
         id="path360"
         style="fill:#22407a;fill-opacity:1;fill-rule:nonzero;stroke:none"
         d="m 10604.7,12901.4 -275.5,41.9 -62.7,9.5 -988.52,150.2 -407.56,62 -63.16,-327 399.74,-102.4 969.6,-248.3 61.5,-15.8 270.2,-69.2 96.4,499.1" /><path
         id="path362"
         style="fill:#1f3b63;fill-opacity:1;fill-rule:nonzero;stroke:none"
         d="m 9277.98,13103 -407.56,62 -63.16,-327 399.74,-102.4 70.98,367.4" /><path
         id="path364"
         style="fill:#f99746;fill-opacity:1;fill-rule:nonzero;stroke:none"
         d="m 10329.2,12943.3 -62.7,9.5 -89.9,-465.5 61.5,-15.8 91.1,471.8" /><path
         id="path366"
         style="fill:#233862;fill-opacity:1;fill-rule:nonzero;stroke:none"
         d="m 10629.6,12965.6 -83.1,12.6 -119.1,-616.7 81.4,-20.8 120.8,624.9" /><g
         transform="scale(1.88605)"
         id="g368"><path
           id="path370"
           style="fill:#1f3b63;fill-opacity:1;fill-rule:nonzero;stroke:none"
           d="m 16300,4882.8 -2699.6,1713.43 -61.5,39.07 -12.6,49.12 80.1,-50.96 2693.5,-1715.45 c 0.1,-11.62 0.1,-23.39 0.1,-35.21" /></g><g
         transform="scale(1.47335)"
         id="g372"><path
           id="path374"
           style="fill:#22407a;fill-opacity:1;fill-rule:nonzero;stroke:none"
           d="m 16300,8840.48 -4.6,0.92 -53.8,-333.16 4.9,-0.5 c -24.2,-6.41 -50.1,-7.94 -76.3,-3.7 -100.5,16.23 -168.8,110.83 -152.6,211.3 16.3,100.47 110.9,168.76 211.3,152.54 26.2,-4.23 50.2,-13.82 71.1,-27.4" /></g><g
         transform="scale(1.5761)"
         id="g376"><path
           id="path378"
           style="fill:#22407a;fill-opacity:1;fill-rule:nonzero;stroke:none"
           d="m 15233,8264.99 169.5,-34.38 38.5,-7.82 608.3,-123.36 250.7,-50.86 -32.9,-204.06 -254.8,25.62 -618.1,62.15 -39.3,3.96 -172.2,17.3 50.3,311.45" /></g><g
         transform="scale(1.5761)"
         id="g380"><path
           id="path382"
           style="fill:#1f3b63;fill-opacity:1;fill-rule:nonzero;stroke:none"
           d="m 16049.3,8099.43 250.7,-50.86 -32.9,-204.06 -254.8,25.62 37,229.3" /></g><g
         transform="scale(1.49305)"
         id="g384"><path
           id="path386"
           style="fill:#ed7d2b;fill-opacity:1;fill-rule:nonzero;stroke:none"
           d="m 16259.3,8688.46 40.7,-8.25 -49.5,-306.67 -41.4,4.18 50.2,310.74" /></g><g
         transform="scale(1.4778)"
         id="g388"><path
           id="path390"
           style="fill:#233862;fill-opacity:1;fill-rule:nonzero;stroke:none"
           d="m 16245.5,8860.35 54.5,-11.05 -66.3,-410.43 -55.4,5.6 67.2,415.88" /></g><g
         transform="scale(1.77993)"
         id="g392"><path
           id="path394"
           style="fill:#1f3b63;fill-opacity:1;fill-rule:nonzero;stroke:none"
           d="m 16281.3,8764.53 -1712.4,-82.99 -84.3,-4.1 34.3,-29.2 64.6,3.22 1716.5,85.82 -18.7,27.25" /></g><g
         transform="scale(1.51767)"
         id="g396"><path
           id="path398"
           style="fill:#22407a;fill-opacity:1;fill-rule:nonzero;stroke:none"
           d="m 16179.2,9888.21 -3.5,-1.57 120.8,-246.79 3.5,1.98 c -13,-15.64 -29.5,-28.83 -49,-38.35 -74.4,-36.45 -164.3,-5.66 -200.7,68.76 -36.5,74.43 -5.7,164.31 68.8,200.76 19.3,9.5 39.8,14.4 60.1,15.21" /></g><g
         transform="scale(1.59426)"
         id="g400"><path
           id="path402"
           style="fill:#22407a;fill-opacity:1;fill-rule:nonzero;stroke:none"
           d="m 15398.6,9411.69 131.2,57.87 29.9,13.17 470.8,207.67 194.1,85.62 75.4,-153.93 -184.8,-104.66 -448.2,-253.84 -28.5,-16.09 -124.9,-70.75 -115,234.94" /></g><g
         transform="scale(1.59426)"
         id="g404"><path
           id="path406"
           style="fill:#1f3b63;fill-opacity:1;fill-rule:nonzero;stroke:none"
           d="m 16030.5,9690.4 194.1,85.62 75.4,-153.93 -184.8,-104.66 -84.7,172.97" /></g><g
         transform="scale(1.53235)"
         id="g408"><path
           id="path410"
           style="fill:#ed7d2b;fill-opacity:1;fill-rule:nonzero;stroke:none"
           d="m 16157.3,9852.18 31,13.69 111.7,-227.99 -29.6,-16.73 -113.1,231.03" /></g><g
         transform="scale(1.52182)"
         id="g412"><path
           id="path414"
           style="fill:#233862;fill-opacity:1;fill-rule:nonzero;stroke:none"
           d="m 16109.6,9889.64 41.5,18.27 148.9,-304.11 -39.4,-22.31 -151,308.15" /></g><path
         id="path416"
         style="fill:#ebf3fa;fill-opacity:1;fill-rule:nonzero;stroke:none"
         d="m 15118.5,11153.8 h -1999 v 436.2 h 1999 v -436.2" /><path
         id="path418"
         style="fill:#22407a;fill-opacity:1;fill-rule:nonzero;stroke:none"
         d="m 14384.7,11422 h -575.8 v 53.6 h 575.8 v -53.6" /><path
         id="path420"
         style="fill:#22407a;fill-opacity:1;fill-rule:nonzero;stroke:none"
         d="m 14657.5,11292.7 h -1121.3 v 53.7 h 1121.3 v -53.7" /><g
         transform="scale(1.30406)"
         id="g422"><path
           id="path424"
           style="fill:#ebf3fa;fill-opacity:1;fill-rule:nonzero;stroke:none"
           d="m 16300,8553.17 h -1532.9 v 334.48 H 16300 v -334.48" /></g><g
         transform="scale(1.25904)"
         id="g426"><path
           id="path428"
           style="fill:#22407a;fill-opacity:1;fill-rule:nonzero;stroke:none"
           d="m 16300,9072.01 h -457.3 v 42.61 h 457.3 v -42.61" /></g><g
         transform="scale(1.27577)"
         id="g430"><path
           id="path432"
           style="fill:#22407a;fill-opacity:1;fill-rule:nonzero;stroke:none"
           d="m 16300,8851.67 h -878.9 v 42.05 h 878.9 v -42.05" /></g><g
         transform="scale(1.73682)"
         id="g434"><path
           id="path436"
           style="fill:#f99746;fill-opacity:1;fill-rule:nonzero;stroke:none"
           d="m 15035.2,8423.52 c 0,0 904.6,-2020.63 1084.7,-1750.42 180.1,270.21 -1070.1,2157.85 -1084.7,1750.42" /></g><path
         id="path438"
         style="fill:#f99746;fill-opacity:1;fill-rule:nonzero;stroke:none"
         d="m 6823.18,12037.2 c 0,0 -1152.77,-593.9 -1847.6,-665.3 -694.83,-71.4 -206.6,-536.8 163.79,-430.4 370.38,106.5 2037.62,906.3 1683.81,1095.7" /></g></g></svg>